  0
SECTION
  2
HEADER
  9
$EXTMIN
 10
19.09104
 20
15.33137
 30
0.0000
  9
$EXTMAX
 10
20.90896
 20
16.66863
 30
0.0000
  0
ENDSEC
  0
SECTION
  2
TABLES
  0
TABLE
  2
LTYPE
 70
3
  0
LTYPE
  2
BYBLOCK
 70
0
  3

 72
65
 73
0
 40
0.0000
  0
LTYPE
  2
BYLAYER
 70
0
  3

 72
65
 73
0
 40
0.0000
  0
LTYPE
  2
CONTINUOUS
 70
0
  3
Solid line
 72
65
 73
0
 40
0.0000
  0
ENDTAB
  0
TABLE
  2
LAYER
 70
2
  0
LAYER
  2
0
 70
0
 62
7
  6
CONTINUOUS
  0
LAYER
  2
GEN000_PHO
 70
0
 62
7
  6
CONTINUOUS
  0
LAYER
  2
GEN001_PHO
 70
0
 62
6
  6
CONTINUOUS
  0
ENDTAB
  0
TABLE
  2
STYLE
 70
0
  0
ENDTAB
  0
ENDSEC
  0
SECTION
  2
BLOCKS
  0
BLOCK
  2
ROUND_1
  3
ROUND_1
 70
64
 10
0.0000
 20
0.0000
 30
0.0000
  0
CIRCLE
  8
0
 10
0.0000
 20
0.0000
 30
0.0000
 40
0.0030
  0
ENDBLK
  0
BLOCK
  2
ROUND_2
  3
ROUND_2
 70
64
 10
0.0000
 20
0.0000
 30
0.0000
  0
CIRCLE
  8
0
 10
0.0000
 20
0.0000
 30
0.0000
 40
0.0025
  0
ENDBLK
  0
BLOCK
  2
ROUND_3
  3
ROUND_3
 70
64
 10
0.0000
 20
0.0000
 30
0.0000
  0
CIRCLE
  8
0
 10
0.0000
 20
0.0000
 30
0.0000
 40
0.0040
  0
ENDBLK
  0
BLOCK
  2
ROUND_4
  3
ROUND_4
 70
64
 10
0.0000
 20
0.0000
 30
0.0000
  0
CIRCLE
  8
0
 10
0.0000
 20
0.0000
 30
0.0000
 40
0.0005
  0
ENDBLK
  0
BLOCK
  2
ROUND_16
  3
ROUND_16
 70
64
 10
0.0000
 20
0.0000
 30
0.0000
  0
CIRCLE
  8
0
 10
0.0000
 20
0.0000
 30
0.0000
 40
0.0050
  0
ENDBLK
  0
BLOCK
  2
ROUND_17
  3
ROUND_17
 70
64
 10
0.0000
 20
0.0000
 30
0.0000
  0
CIRCLE
  8
0
 10
0.0000
 20
0.0000
 30
0.0000
 40
0.0060
  0
ENDBLK
  0
BLOCK
  2
ROUND_20
  3
ROUND_20
 70
64
 10
0.0000
 20
0.0000
 30
0.0000
  0
CIRCLE
  8
0
 10
0.0000
 20
0.0000
 30
0.0000
 40
0.0035
  0
ENDBLK
  0
BLOCK
  2
ROUND_33
  3
ROUND_33
 70
64
 10
0.0000
 20
0.0000
 30
0.0000
  0
CIRCLE
  8
0
 10
0.0000
 20
0.0000
 30
0.0000
 40
0.002955
  0
ENDBLK
  0
BLOCK
  2
SQUARE_37
  3
SQUARE_37
 70
64
 10
0.0000
 20
0.0000
 30
0.0000
  0
SOLID
  8
0
 10
0.0180
 20
0.0180
 30
0.0000
 11
0.0180
 21
-0.0180
 31
0.0000
 12
-0.0180
 22
0.0180
 32
0.0000
 13
-0.0180
 23
-0.0180
 33
0.0000
  0
ENDBLK
  0
BLOCK
  2
SQUARE_55
  3
SQUARE_55
 70
64
 10
0.0000
 20
0.0000
 30
0.0000
  0
SOLID
  8
0
 10
0.0150
 20
0.0150
 30
0.0000
 11
0.0150
 21
-0.0150
 31
0.0000
 12
-0.0150
 22
0.0150
 32
0.0000
 13
-0.0150
 23
-0.0150
 33
0.0000
  0
ENDBLK
  0
BLOCK
  2
RECTANGLE_56
  3
RECTANGLE_56
 70
64
 10
0.0000
 20
0.0000
 30
0.0000
  0
SOLID
  8
0
 10
0.0250
 20
0.0200
 30
0.0000
 11
0.0250
 21
-0.0200
 31
0.0000
 12
-0.0250
 22
0.0200
 32
0.0000
 13
-0.0250
 23
-0.0200
 33
0.0000
  0
ENDBLK
  0
BLOCK
  2
RECTANGLE_59
  3
RECTANGLE_59
 70
64
 10
0.0000
 20
0.0000
 30
0.0000
  0
SOLID
  8
0
 10
0.0200
 20
0.0250
 30
0.0000
 11
0.0200
 21
-0.0250
 31
0.0000
 12
-0.0200
 22
0.0250
 32
0.0000
 13
-0.0200
 23
-0.0250
 33
0.0000
  0
ENDBLK
  0
BLOCK
  2
ROUND_65
  3
ROUND_65
 70
64
 10
0.0000
 20
0.0000
 30
0.0000
  0
CIRCLE
  8
0
 10
0.0000
 20
0.0000
 30
0.0000
 40
0.03937
  0
ENDBLK
  0
BLOCK
  2
ROUND_73
  3
ROUND_73
 70
64
 10
0.0000
 20
0.0000
 30
0.0000
  0
CIRCLE
  8
0
 10
0.0000
 20
0.0000
 30
0.0000
 40
0.0175
  0
ENDBLK
  0
BLOCK
  2
ROUND_77
  3
ROUND_77
 70
64
 10
0.0000
 20
0.0000
 30
0.0000
  0
CIRCLE
  8
0
 10
0.0000
 20
0.0000
 30
0.0000
 40
0.00197
  0
ENDBLK
  0
BLOCK
  2
RECTANGLE_112
  3
RECTANGLE_112
 70
64
 10
0.0000
 20
0.0000
 30
0.0000
  0
SOLID
  8
0
 10
0.0180
 20
0.0250
 30
0.0000
 11
0.0180
 21
-0.0250
 31
0.0000
 12
-0.0180
 22
0.0250
 32
0.0000
 13
-0.0180
 23
-0.0250
 33
0.0000
  0
ENDBLK
  0
BLOCK
  2
SQUARE_208
  3
SQUARE_208
 70
64
 10
0.0000
 20
0.0000
 30
0.0000
  0
SOLID
  8
0
 10
0.0165
 20
0.0165
 30
0.0000
 11
0.0165
 21
-0.0165
 31
0.0000
 12
-0.0165
 22
0.0165
 32
0.0000
 13
-0.0165
 23
-0.0165
 33
0.0000
  0
ENDBLK
  0
BLOCK
  2
ROUND_236
  3
ROUND_236
 70
64
 10
0.0000
 20
0.0000
 30
0.0000
  0
CIRCLE
  8
0
 10
0.0000
 20
0.0000
 30
0.0000
 40
0.01575
  0
ENDBLK
  0
BLOCK
  2
RECTANGLE_248
  3
RECTANGLE_248
 70
64
 10
0.0000
 20
0.0000
 30
0.0000
  0
SOLID
  8
0
 10
0.0100
 20
0.0125
 30
0.0000
 11
0.0100
 21
-0.0125
 31
0.0000
 12
-0.0100
 22
0.0125
 32
0.0000
 13
-0.0100
 23
-0.0125
 33
0.0000
  0
ENDBLK
  0
BLOCK
  2
RECTANGLE_249
  3
RECTANGLE_249
 70
64
 10
0.0000
 20
0.0000
 30
0.0000
  0
SOLID
  8
0
 10
0.0125
 20
0.0100
 30
0.0000
 11
0.0125
 21
-0.0100
 31
0.0000
 12
-0.0125
 22
0.0100
 32
0.0000
 13
-0.0125
 23
-0.0100
 33
0.0000
  0
ENDBLK
  0
BLOCK
  2
RECTANGLE_255
  3
RECTANGLE_255
 70
64
 10
0.0000
 20
0.0000
 30
0.0000
  0
SOLID
  8
0
 10
0.0250
 20
0.0180
 30
0.0000
 11
0.0250
 21
-0.0180
 31
0.0000
 12
-0.0250
 22
0.0180
 32
0.0000
 13
-0.0250
 23
-0.0180
 33
0.0000
  0
ENDBLK
  0
BLOCK
  2
RECTANGLE_262
  3
RECTANGLE_262
 70
64
 10
0.0000
 20
0.0000
 30
0.0000
  0
SOLID
  8
0
 10
0.026575
 20
0.007875
 30
0.0000
 11
0.026575
 21
-0.007875
 31
0.0000
 12
-0.026575
 22
0.007875
 32
0.0000
 13
-0.026575
 23
-0.007875
 33
0.0000
  0
ENDBLK
  0
BLOCK
  2
RECTANGLE_263
  3
RECTANGLE_263
 70
64
 10
0.0000
 20
0.0000
 30
0.0000
  0
SOLID
  8
0
 10
0.047245
 20
0.043305
 30
0.0000
 11
0.047245
 21
-0.043305
 31
0.0000
 12
-0.047245
 22
0.043305
 32
0.0000
 13
-0.047245
 23
-0.043305
 33
0.0000
  0
ENDBLK
  0
BLOCK
  2
SQUARE_267
  3
SQUARE_267
 70
64
 10
0.0000
 20
0.0000
 30
0.0000
  0
SOLID
  8
0
 10
0.03937
 20
0.03937
 30
0.0000
 11
0.03937
 21
-0.03937
 31
0.0000
 12
-0.03937
 22
0.03937
 32
0.0000
 13
-0.03937
 23
-0.03937
 33
0.0000
  0
ENDBLK
  0
BLOCK
  2
RECTANGLE_268
  3
RECTANGLE_268
 70
64
 10
0.0000
 20
0.0000
 30
0.0000
  0
SOLID
  8
0
 10
0.02362
 20
0.007875
 30
0.0000
 11
0.02362
 21
-0.007875
 31
0.0000
 12
-0.02362
 22
0.007875
 32
0.0000
 13
-0.02362
 23
-0.007875
 33
0.0000
  0
ENDBLK
  0
BLOCK
  2
ROUND_269
  3
ROUND_269
 70
64
 10
0.0000
 20
0.0000
 30
0.0000
  0
CIRCLE
  8
0
 10
0.0000
 20
0.0000
 30
0.0000
 40
0.022045
  0
ENDBLK
  0
BLOCK
  2
RECTANGLE_270
  3
RECTANGLE_270
 70
64
 10
0.0000
 20
0.0000
 30
0.0000
  0
SOLID
  8
0
 10
0.0374
 20
0.02362
 30
0.0000
 11
0.0374
 21
-0.02362
 31
0.0000
 12
-0.0374
 22
0.02362
 32
0.0000
 13
-0.0374
 23
-0.02362
 33
0.0000
  0
ENDBLK
  0
BLOCK
  2
ROUND_271
  3
ROUND_271
 70
64
 10
0.0000
 20
0.0000
 30
0.0000
  0
CIRCLE
  8
0
 10
0.0000
 20
0.0000
 30
0.0000
 40
0.014175
  0
ENDBLK
  0
BLOCK
  2
RECTANGLE_273
  3
RECTANGLE_273
 70
64
 10
0.0000
 20
0.0000
 30
0.0000
  0
SOLID
  8
0
 10
0.019685
 20
0.021655
 30
0.0000
 11
0.019685
 21
-0.021655
 31
0.0000
 12
-0.019685
 22
0.021655
 32
0.0000
 13
-0.019685
 23
-0.021655
 33
0.0000
  0
ENDBLK
  0
BLOCK
  2
RECTANGLE_274
  3
RECTANGLE_274
 70
64
 10
0.0000
 20
0.0000
 30
0.0000
  0
SOLID
  8
0
 10
0.019685
 20
0.009845
 30
0.0000
 11
0.019685
 21
-0.009845
 31
0.0000
 12
-0.019685
 22
0.009845
 32
0.0000
 13
-0.019685
 23
-0.009845
 33
0.0000
  0
ENDBLK
  0
BLOCK
  2
SQUARE_275
  3
SQUARE_275
 70
64
 10
0.0000
 20
0.0000
 30
0.0000
  0
SOLID
  8
0
 10
0.019685
 20
0.019685
 30
0.0000
 11
0.019685
 21
-0.019685
 31
0.0000
 12
-0.019685
 22
0.019685
 32
0.0000
 13
-0.019685
 23
-0.019685
 33
0.0000
  0
ENDBLK
  0
BLOCK
  2
RECTANGLE_276
  3
RECTANGLE_276
 70
64
 10
0.0000
 20
0.0000
 30
0.0000
  0
SOLID
  8
0
 10
0.0250
 20
0.019685
 30
0.0000
 11
0.0250
 21
-0.019685
 31
0.0000
 12
-0.0250
 22
0.019685
 32
0.0000
 13
-0.0250
 23
-0.019685
 33
0.0000
  0
ENDBLK
  0
BLOCK
  2
RECTANGLE_278
  3
RECTANGLE_278
 70
64
 10
0.0000
 20
0.0000
 30
0.0000
  0
SOLID
  8
0
 10
0.02953
 20
0.01378
 30
0.0000
 11
0.02953
 21
-0.01378
 31
0.0000
 12
-0.02953
 22
0.01378
 32
0.0000
 13
-0.02953
 23
-0.01378
 33
0.0000
  0
ENDBLK
  0
BLOCK
  2
RECTANGLE_279
  3
RECTANGLE_279
 70
64
 10
0.0000
 20
0.0000
 30
0.0000
  0
SOLID
  8
0
 10
0.01575
 20
0.019685
 30
0.0000
 11
0.01575
 21
-0.019685
 31
0.0000
 12
-0.01575
 22
0.019685
 32
0.0000
 13
-0.01575
 23
-0.019685
 33
0.0000
  0
ENDBLK
  0
BLOCK
  2
RECTANGLE_280
  3
RECTANGLE_280
 70
64
 10
0.0000
 20
0.0000
 30
0.0000
  0
SOLID
  8
0
 10
0.019685
 20
0.0250
 30
0.0000
 11
0.019685
 21
-0.0250
 31
0.0000
 12
-0.019685
 22
0.0250
 32
0.0000
 13
-0.019685
 23
-0.0250
 33
0.0000
  0
ENDBLK
  0
BLOCK
  2
RECTANGLE_281
  3
RECTANGLE_281
 70
64
 10
0.0000
 20
0.0000
 30
0.0000
  0
SOLID
  8
0
 10
0.009845
 20
0.019685
 30
0.0000
 11
0.009845
 21
-0.019685
 31
0.0000
 12
-0.009845
 22
0.019685
 32
0.0000
 13
-0.009845
 23
-0.019685
 33
0.0000
  0
ENDBLK
  0
BLOCK
  2
ROUND_282
  3
ROUND_282
 70
64
 10
0.0000
 20
0.0000
 30
0.0000
  0
CIRCLE
  8
0
 10
0.0000
 20
0.0000
 30
0.0000
 40
0.003935
  0
ENDBLK
  0
BLOCK
  2
ROUND_283
  3
ROUND_283
 70
64
 10
0.0000
 20
0.0000
 30
0.0000
  0
CIRCLE
  8
0
 10
0.0000
 20
0.0000
 30
0.0000
 40
0.0049
  0
ENDBLK
  0
BLOCK
  2
OBLONG_284
  3
OBLONG_284
 70
64
 10
0.0000
 20
0.0000
 30
0.0000
  0
POLYLINE
  8
0
 66
1
 10
0.0000
 20
0.0000
 30
0.0000
 40
0.0118099
 41
0.0118099
  0
VERTEX
  8
0
 10
0.033465
 20
0.0000
 30
0.0000
  0
VERTEX
  8
0
 10
-0.033465
 20
0.0000
 30
0.0000
  0
SEQEND
  0
POLYLINE
  8
0
 66
1
 10
0.0000
 20
0.0000
 30
0.0000
 70
1
 40
0.005905
 41
0.005905
  0
VERTEX
  8
0
 10
0.0305126
 20
0.0000
 30
0.0000
 42
1
  0
VERTEX
  8
0
 10
0.0364175
 20
0.0000
 30
0.0000
 42
1
  0
SEQEND
  0
POLYLINE
  8
0
 66
1
 10
0.0000
 20
0.0000
 30
0.0000
 70
1
 40
0.005905
 41
0.005905
  0
VERTEX
  8
0
 10
-0.0364175
 20
0.0000
 30
0.0000
 42
1
  0
VERTEX
  8
0
 10
-0.0305126
 20
0.0000
 30
0.0000
 42
1
  0
SEQEND
  0
ENDBLK
  0
BLOCK
  2
RECTANGLE_285
  3
RECTANGLE_285
 70
64
 10
0.0000
 20
0.0000
 30
0.0000
  0
SOLID
  8
0
 10
0.047245
 20
0.01378
 30
0.0000
 11
0.047245
 21
-0.01378
 31
0.0000
 12
-0.047245
 22
0.01378
 32
0.0000
 13
-0.047245
 23
-0.01378
 33
0.0000
  0
ENDBLK
  0
BLOCK
  2
RECTANGLE_286
  3
RECTANGLE_286
 70
64
 10
0.0000
 20
0.0000
 30
0.0000
  0
SOLID
  8
0
 10
0.031495
 20
0.01378
 30
0.0000
 11
0.031495
 21
-0.01378
 31
0.0000
 12
-0.031495
 22
0.01378
 32
0.0000
 13
-0.031495
 23
-0.01378
 33
0.0000
  0
ENDBLK
  0
ENDSEC
  0
SECTION
  2
ENTITIES
  0
INSERT
  2
ROUND_16
  8
GEN001_PHO
 10
20.42921
 20
16.44324
 30
0.0000
 41
1.0000
 42
1.0000
 50
0.0000
  0
INSERT
  2
SQUARE_37
  8
GEN001_PHO
 10
20.09021
 20
15.57063
 30
0.0000
 41
1.0000
 42
1.0000
 50
0.0000
  0
INSERT
  2
SQUARE_37
  8
GEN001_PHO
 10
20.09021
 20
15.64563
 30
0.0000
 41
1.0000
 42
1.0000
 50
0.0000
  0
INSERT
  2
SQUARE_37
  8
GEN001_PHO
 10
19.18971
 20
15.76013
 30
0.0000
 41
1.0000
 42
1.0000
 50
0.0000
  0
INSERT
  2
SQUARE_37
  8
GEN001_PHO
 10
19.26471
 20
15.76013
 30
0.0000
 41
1.0000
 42
1.0000
 50
0.0000
  0
INSERT
  2
SQUARE_37
  8
GEN001_PHO
 10
19.39771
 20
15.80013
 30
0.0000
 41
1.0000
 42
1.0000
 50
0.0000
  0
INSERT
  2
SQUARE_37
  8
GEN001_PHO
 10
19.32271
 20
15.80013
 30
0.0000
 41
1.0000
 42
1.0000
 50
0.0000
  0
INSERT
  2
SQUARE_55
  8
GEN001_PHO
 10
19.37573
 20
16.29213
 30
0.0000
 41
1.0000
 42
1.0000
 50
0.0000
  0
INSERT
  2
SQUARE_55
  8
GEN001_PHO
 10
19.31668
 20
16.29213
 30
0.0000
 41
1.0000
 42
1.0000
 50
0.0000
  0
INSERT
  2
RECTANGLE_56
  8
GEN001_PHO
 10
19.69421
 20
15.72413
 30
0.0000
 41
1.0000
 42
1.0000
 50
0.0000
  0
INSERT
  2
RECTANGLE_56
  8
GEN001_PHO
 10
19.69421
 20
15.80413
 30
0.0000
 41
1.0000
 42
1.0000
 50
0.0000
  0
INSERT
  2
RECTANGLE_56
  8
GEN001_PHO
 10
19.50321
 20
15.85913
 30
0.0000
 41
1.0000
 42
1.0000
 50
0.0000
  0
INSERT
  2
RECTANGLE_56
  8
GEN001_PHO
 10
19.50321
 20
15.77913
 30
0.0000
 41
1.0000
 42
1.0000
 50
0.0000
  0
INSERT
  2
RECTANGLE_56
  8
GEN001_PHO
 10
19.50021
 20
16.18313
 30
0.0000
 41
1.0000
 42
1.0000
 50
0.0000
  0
INSERT
  2
RECTANGLE_56
  8
GEN001_PHO
 10
19.50021
 20
16.10313
 30
0.0000
 41
1.0000
 42
1.0000
 50
0.0000
  0
INSERT
  2
RECTANGLE_59
  8
GEN001_PHO
 10
19.81121
 20
15.48413
 30
0.0000
 41
1.0000
 42
1.0000
 50
0.0000
  0
INSERT
  2
RECTANGLE_59
  8
GEN001_PHO
 10
19.89121
 20
15.48413
 30
0.0000
 41
1.0000
 42
1.0000
 50
0.0000
  0
INSERT
  2
RECTANGLE_59
  8
GEN001_PHO
 10
19.43221
 20
16.02713
 30
0.0000
 41
1.0000
 42
1.0000
 50
0.0000
  0
INSERT
  2
RECTANGLE_59
  8
GEN001_PHO
 10
19.35221
 20
16.02713
 30
0.0000
 41
1.0000
 42
1.0000
 50
0.0000
  0
INSERT
  2
ROUND_65
  8
GEN001_PHO
 10
19.80739
 20
15.38204
 30
0.0000
 41
1.0000
 42
1.0000
 50
0.0000
  0
INSERT
  2
ROUND_65
  8
GEN001_PHO
 10
19.69204
 20
15.38046
 30
0.0000
 41
1.0000
 42
1.0000
 50
0.0000
  0
INSERT
  2
ROUND_73
  8
GEN001_PHO
 10
20.78521
 20
16.48213
 30
0.0000
 41
1.0000
 42
1.0000
 50
0.0000
  0
INSERT
  2
ROUND_73
  8
GEN001_PHO
 10
20.38821
 20
16.65113
 30
0.0000
 41
1.0000
 42
1.0000
 50
0.0000
  0
INSERT
  2
ROUND_73
  8
GEN001_PHO
 10
20.46321
 20
16.65113
 30
0.0000
 41
1.0000
 42
1.0000
 50
0.0000
  0
INSERT
  2
ROUND_73
  8
GEN001_PHO
 10
20.53821
 20
16.65113
 30
0.0000
 41
1.0000
 42
1.0000
 50
0.0000
  0
INSERT
  2
ROUND_77
  8
GEN001_PHO
 10
20.26805
 20
15.47082
 30
0.0000
 41
1.0000
 42
1.0000
 50
0.0000
  0
INSERT
  2
RECTANGLE_112
  8
GEN001_PHO
 10
19.22721
 20
15.68013
 30
0.0000
 41
1.0000
 42
1.0000
 50
0.0000
  0
INSERT
  2
RECTANGLE_112
  8
GEN001_PHO
 10
19.36021
 20
15.88013
 30
0.0000
 41
1.0000
 42
1.0000
 50
0.0000
  0
INSERT
  2
ROUND_236
  8
GEN001_PHO
 10
20.04521
 20
15.44513
 30
0.0000
 41
1.0000
 42
1.0000
 50
0.0000
  0
INSERT
  2
ROUND_236
  8
GEN001_PHO
 10
20.00584
 20
15.44513
 30
0.0000
 41
1.0000
 42
1.0000
 50
0.0000
  0
INSERT
  2
RECTANGLE_248
  8
GEN001_PHO
 10
20.59989
 20
16.11413
 30
0.0000
 41
1.0000
 42
1.0000
 50
0.0000
  0
INSERT
  2
RECTANGLE_248
  8
GEN001_PHO
 10
20.56052
 20
16.11413
 30
0.0000
 41
1.0000
 42
1.0000
 50
0.0000
  0
INSERT
  2
RECTANGLE_248
  8
GEN001_PHO
 10
20.67252
 20
16.41013
 30
0.0000
 41
1.0000
 42
1.0000
 50
0.0000
  0
INSERT
  2
RECTANGLE_248
  8
GEN001_PHO
 10
20.71189
 20
16.41013
 30
0.0000
 41
1.0000
 42
1.0000
 50
0.0000
  0
INSERT
  2
RECTANGLE_248
  8
GEN001_PHO
 10
20.67252
 20
16.36613
 30
0.0000
 41
1.0000
 42
1.0000
 50
0.0000
  0
INSERT
  2
RECTANGLE_248
  8
GEN001_PHO
 10
20.71189
 20
16.36613
 30
0.0000
 41
1.0000
 42
1.0000
 50
0.0000
  0
INSERT
  2
RECTANGLE_248
  8
GEN001_PHO
 10
20.67352
 20
16.32113
 30
0.0000
 41
1.0000
 42
1.0000
 50
0.0000
  0
INSERT
  2
RECTANGLE_248
  8
GEN001_PHO
 10
20.71289
 20
16.32113
 30
0.0000
 41
1.0000
 42
1.0000
 50
0.0000
  0
INSERT
  2
RECTANGLE_248
  8
GEN001_PHO
 10
20.59689
 20
16.16113
 30
0.0000
 41
1.0000
 42
1.0000
 50
0.0000
  0
INSERT
  2
RECTANGLE_248
  8
GEN001_PHO
 10
20.55752
 20
16.16113
 30
0.0000
 41
1.0000
 42
1.0000
 50
0.0000
  0
INSERT
  2
RECTANGLE_248
  8
GEN001_PHO
 10
20.15689
 20
15.79213
 30
0.0000
 41
1.0000
 42
1.0000
 50
0.0000
  0
INSERT
  2
RECTANGLE_248
  8
GEN001_PHO
 10
20.11752
 20
15.79213
 30
0.0000
 41
1.0000
 42
1.0000
 50
0.0000
  0
INSERT
  2
RECTANGLE_248
  8
GEN001_PHO
 10
20.15689
 20
15.74713
 30
0.0000
 41
1.0000
 42
1.0000
 50
0.0000
  0
INSERT
  2
RECTANGLE_248
  8
GEN001_PHO
 10
20.11752
 20
15.74713
 30
0.0000
 41
1.0000
 42
1.0000
 50
0.0000
  0
INSERT
  2
RECTANGLE_248
  8
GEN001_PHO
 10
19.87689
 20
15.74013
 30
0.0000
 41
1.0000
 42
1.0000
 50
0.0000
  0
INSERT
  2
RECTANGLE_248
  8
GEN001_PHO
 10
19.83752
 20
15.74013
 30
0.0000
 41
1.0000
 42
1.0000
 50
0.0000
  0
INSERT
  2
RECTANGLE_248
  8
GEN001_PHO
 10
19.87689
 20
15.78913
 30
0.0000
 41
1.0000
 42
1.0000
 50
0.0000
  0
INSERT
  2
RECTANGLE_248
  8
GEN001_PHO
 10
19.83752
 20
15.78913
 30
0.0000
 41
1.0000
 42
1.0000
 50
0.0000
  0
INSERT
  2
RECTANGLE_248
  8
GEN001_PHO
 10
19.34252
 20
15.74013
 30
0.0000
 41
1.0000
 42
1.0000
 50
0.0000
  0
INSERT
  2
RECTANGLE_248
  8
GEN001_PHO
 10
19.38189
 20
15.74013
 30
0.0000
 41
1.0000
 42
1.0000
 50
0.0000
  0
INSERT
  2
RECTANGLE_248
  8
GEN001_PHO
 10
19.22889
 20
16.09013
 30
0.0000
 41
1.0000
 42
1.0000
 50
0.0000
  0
INSERT
  2
RECTANGLE_248
  8
GEN001_PHO
 10
19.18952
 20
16.09013
 30
0.0000
 41
1.0000
 42
1.0000
 50
0.0000
  0
INSERT
  2
RECTANGLE_249
  8
GEN001_PHO
 10
20.04421
 20
15.57845
 30
0.0000
 41
1.0000
 42
1.0000
 50
0.0000
  0
INSERT
  2
RECTANGLE_249
  8
GEN001_PHO
 10
20.04421
 20
15.61782
 30
0.0000
 41
1.0000
 42
1.0000
 50
0.0000
  0
INSERT
  2
RECTANGLE_249
  8
GEN001_PHO
 10
19.61121
 20
15.61982
 30
0.0000
 41
1.0000
 42
1.0000
 50
0.0000
  0
INSERT
  2
RECTANGLE_249
  8
GEN001_PHO
 10
19.61121
 20
15.58045
 30
0.0000
 41
1.0000
 42
1.0000
 50
0.0000
  0
INSERT
  2
RECTANGLE_249
  8
GEN001_PHO
 10
19.24921
 20
15.81345
 30
0.0000
 41
1.0000
 42
1.0000
 50
0.0000
  0
INSERT
  2
RECTANGLE_249
  8
GEN001_PHO
 10
19.24921
 20
15.85282
 30
0.0000
 41
1.0000
 42
1.0000
 50
0.0000
  0
INSERT
  2
RECTANGLE_249
  8
GEN001_PHO
 10
19.43821
 20
15.70145
 30
0.0000
 41
1.0000
 42
1.0000
 50
0.0000
  0
INSERT
  2
RECTANGLE_249
  8
GEN001_PHO
 10
19.43821
 20
15.74082
 30
0.0000
 41
1.0000
 42
1.0000
 50
0.0000
  0
INSERT
  2
RECTANGLE_249
  8
GEN001_PHO
 10
19.20121
 20
15.81345
 30
0.0000
 41
1.0000
 42
1.0000
 50
0.0000
  0
INSERT
  2
RECTANGLE_249
  8
GEN001_PHO
 10
19.20121
 20
15.85282
 30
0.0000
 41
1.0000
 42
1.0000
 50
0.0000
  0
INSERT
  2
RECTANGLE_249
  8
GEN001_PHO
 10
19.23621
 20
16.14745
 30
0.0000
 41
1.0000
 42
1.0000
 50
0.0000
  0
INSERT
  2
RECTANGLE_249
  8
GEN001_PHO
 10
19.23621
 20
16.18682
 30
0.0000
 41
1.0000
 42
1.0000
 50
0.0000
  0
INSERT
  2
RECTANGLE_249
  8
GEN001_PHO
 10
19.56221
 20
16.16182
 30
0.0000
 41
1.0000
 42
1.0000
 50
0.0000
  0
INSERT
  2
RECTANGLE_249
  8
GEN001_PHO
 10
19.56221
 20
16.12245
 30
0.0000
 41
1.0000
 42
1.0000
 50
0.0000
  0
INSERT
  2
RECTANGLE_255
  8
GEN001_PHO
 10
20.17021
 20
15.60813
 30
0.0000
 41
1.0000
 42
1.0000
 50
0.0000
  0
INSERT
  2
SQUARE_267
  8
GEN001_PHO
 10
20.25821
 20
15.73579
 30
0.0000
 41
1.0000
 42
1.0000
 50
0.0000
  0
INSERT
  2
SQUARE_267
  8
GEN001_PHO
 10
20.52986
 20
15.73579
 30
0.0000
 41
1.0000
 42
1.0000
 50
0.0000
  0
INSERT
  2
SQUARE_267
  8
GEN001_PHO
 10
20.52986
 20
15.46413
 30
0.0000
 41
1.0000
 42
1.0000
 50
0.0000
  0
INSERT
  2
RECTANGLE_268
  8
GEN001_PHO
 10
20.67921
 20
16.08613
 30
0.0000
 41
1.0000
 42
1.0000
 50
0.0000
  0
INSERT
  2
RECTANGLE_268
  8
GEN001_PHO
 10
20.67921
 20
16.11172
 30
0.0000
 41
1.0000
 42
1.0000
 50
0.0000
  0
INSERT
  2
RECTANGLE_268
  8
GEN001_PHO
 10
20.67921
 20
16.13731
 30
0.0000
 41
1.0000
 42
1.0000
 50
0.0000
  0
INSERT
  2
RECTANGLE_268
  8
GEN001_PHO
 10
20.67921
 20
16.1629
 30
0.0000
 41
1.0000
 42
1.0000
 50
0.0000
  0
INSERT
  2
RECTANGLE_268
  8
GEN001_PHO
 10
20.67921
 20
16.18849
 30
0.0000
 41
1.0000
 42
1.0000
 50
0.0000
  0
INSERT
  2
RECTANGLE_270
  8
GEN001_PHO
 10
20.78865
 20
16.10975
 30
0.0000
 41
1.0000
 42
1.0000
 50
0.0000
  0
INSERT
  2
RECTANGLE_270
  8
GEN001_PHO
 10
20.78865
 20
16.16881
 30
0.0000
 41
1.0000
 42
1.0000
 50
0.0000
  0
INSERT
  2
RECTANGLE_273
  8
GEN001_PHO
 10
19.76521
 20
15.81938
 30
0.0000
 41
1.0000
 42
1.0000
 50
0.0000
  0
INSERT
  2
RECTANGLE_273
  8
GEN001_PHO
 10
19.76521
 20
15.72489
 30
0.0000
 41
1.0000
 42
1.0000
 50
0.0000
  0
INSERT
  2
RECTANGLE_273
  8
GEN001_PHO
 10
19.17921
 20
16.14789
 30
0.0000
 41
1.0000
 42
1.0000
 50
0.0000
  0
INSERT
  2
RECTANGLE_273
  8
GEN001_PHO
 10
19.17921
 20
16.24238
 30
0.0000
 41
1.0000
 42
1.0000
 50
0.0000
  0
INSERT
  2
RECTANGLE_274
  8
GEN001_PHO
 10
19.77717
 20
15.63813
 30
0.0000
 41
1.0000
 42
1.0000
 50
0.0000
  0
INSERT
  2
RECTANGLE_274
  8
GEN001_PHO
 10
19.77717
 20
15.60073
 30
0.0000
 41
1.0000
 42
1.0000
 50
0.0000
  0
INSERT
  2
RECTANGLE_274
  8
GEN001_PHO
 10
19.77717
 20
15.56333
 30
0.0000
 41
1.0000
 42
1.0000
 50
0.0000
  0
INSERT
  2
RECTANGLE_274
  8
GEN001_PHO
 10
19.68465
 20
15.56333
 30
0.0000
 41
1.0000
 42
1.0000
 50
0.0000
  0
INSERT
  2
RECTANGLE_274
  8
GEN001_PHO
 10
19.68465
 20
15.63813
 30
0.0000
 41
1.0000
 42
1.0000
 50
0.0000
  0
INSERT
  2
SQUARE_275
  8
GEN001_PHO
 10
19.1932
 20
15.92113
 30
0.0000
 41
1.0000
 42
1.0000
 50
0.0000
  0
INSERT
  2
SQUARE_275
  8
GEN001_PHO
 10
19.1932
 20
15.99987
 30
0.0000
 41
1.0000
 42
1.0000
 50
0.0000
  0
INSERT
  2
SQUARE_275
  8
GEN001_PHO
 10
19.5772
 20
15.92813
 30
0.0000
 41
1.0000
 42
1.0000
 50
0.0000
  0
INSERT
  2
SQUARE_275
  8
GEN001_PHO
 10
19.49846
 20
15.92813
 30
0.0000
 41
1.0000
 42
1.0000
 50
0.0000
  0
INSERT
  2
RECTANGLE_276
  8
GEN001_PHO
 10
19.29163
 20
15.9605
 30
0.0000
 41
1.0000
 42
1.0000
 50
0.0000
  0
INSERT
  2
RECTANGLE_278
  8
GEN001_PHO
 10
20.69321
 20
15.79313
 30
0.0000
 41
1.0000
 42
1.0000
 50
0.0000
  0
INSERT
  2
RECTANGLE_278
  8
GEN001_PHO
 10
20.69321
 20
15.67502
 30
0.0000
 41
1.0000
 42
1.0000
 50
0.0000
  0
INSERT
  2
RECTANGLE_278
  8
GEN001_PHO
 10
20.69321
 20
15.61597
 30
0.0000
 41
1.0000
 42
1.0000
 50
0.0000
  0
INSERT
  2
RECTANGLE_279
  8
GEN001_PHO
 10
20.72273
 20
15.84825
 30
0.0000
 41
1.0000
 42
1.0000
 50
0.0000
  0
INSERT
  2
RECTANGLE_279
  8
GEN001_PHO
 10
20.73218
 20
15.56085
 30
0.0000
 41
1.0000
 42
1.0000
 50
0.0000
  0
INSERT
  2
RECTANGLE_279
  8
GEN001_PHO
 10
20.81328
 20
15.84825
 30
0.0000
 41
1.0000
 42
1.0000
 50
0.0000
  0
INSERT
  2
RECTANGLE_279
  8
GEN001_PHO
 10
20.81328
 20
15.56085
 30
0.0000
 41
1.0000
 42
1.0000
 50
0.0000
  0
INSERT
  2
RECTANGLE_280
  8
GEN001_PHO
 10
19.53783
 20
16.02655
 30
0.0000
 41
1.0000
 42
1.0000
 50
0.0000
  0
INSERT
  2
RECTANGLE_281
  8
GEN001_PHO
 10
19.37621
 20
16.13816
 30
0.0000
 41
1.0000
 42
1.0000
 50
0.0000
  0
INSERT
  2
RECTANGLE_281
  8
GEN001_PHO
 10
19.3388
 20
16.13816
 30
0.0000
 41
1.0000
 42
1.0000
 50
0.0000
  0
INSERT
  2
RECTANGLE_281
  8
GEN001_PHO
 10
19.3014
 20
16.13816
 30
0.0000
 41
1.0000
 42
1.0000
 50
0.0000
  0
INSERT
  2
RECTANGLE_281
  8
GEN001_PHO
 10
19.3014
 20
16.23068
 30
0.0000
 41
1.0000
 42
1.0000
 50
0.0000
  0
INSERT
  2
RECTANGLE_281
  8
GEN001_PHO
 10
19.37621
 20
16.23068
 30
0.0000
 41
1.0000
 42
1.0000
 50
0.0000
  0
INSERT
  2
OBLONG_284
  8
GEN001_PHO
 10
20.54535
 20
16.45505
 30
0.0000
 41
1.0000
 42
1.0000
 50
0.0000
  0
INSERT
  2
OBLONG_284
  8
GEN001_PHO
 10
20.54535
 20
16.42946
 30
0.0000
 41
1.0000
 42
1.0000
 50
0.0000
  0
INSERT
  2
OBLONG_284
  8
GEN001_PHO
 10
20.54535
 20
16.40387
 30
0.0000
 41
1.0000
 42
1.0000
 50
0.0000
  0
INSERT
  2
OBLONG_284
  8
GEN001_PHO
 10
20.54535
 20
16.37828
 30
0.0000
 41
1.0000
 42
1.0000
 50
0.0000
  0
INSERT
  2
OBLONG_284
  8
GEN001_PHO
 10
20.54535
 20
16.35269
 30
0.0000
 41
1.0000
 42
1.0000
 50
0.0000
  0
INSERT
  2
OBLONG_284
  8
GEN001_PHO
 10
20.54535
 20
16.3271
 30
0.0000
 41
1.0000
 42
1.0000
 50
0.0000
  0
INSERT
  2
OBLONG_284
  8
GEN001_PHO
 10
20.54535
 20
16.30151
 30
0.0000
 41
1.0000
 42
1.0000
 50
0.0000
  0
INSERT
  2
OBLONG_284
  8
GEN001_PHO
 10
20.54535
 20
16.27591
 30
0.0000
 41
1.0000
 42
1.0000
 50
0.0000
  0
INSERT
  2
OBLONG_284
  8
GEN001_PHO
 10
20.54535
 20
16.25032
 30
0.0000
 41
1.0000
 42
1.0000
 50
0.0000
  0
INSERT
  2
OBLONG_284
  8
GEN001_PHO
 10
20.54535
 20
16.22473
 30
0.0000
 41
1.0000
 42
1.0000
 50
0.0000
  0
INSERT
  2
OBLONG_284
  8
GEN001_PHO
 10
20.30913
 20
16.22473
 30
0.0000
 41
1.0000
 42
1.0000
 50
0.0000
  0
INSERT
  2
OBLONG_284
  8
GEN001_PHO
 10
20.30913
 20
16.25032
 30
0.0000
 41
1.0000
 42
1.0000
 50
0.0000
  0
INSERT
  2
OBLONG_284
  8
GEN001_PHO
 10
20.30913
 20
16.27591
 30
0.0000
 41
1.0000
 42
1.0000
 50
0.0000
  0
INSERT
  2
OBLONG_284
  8
GEN001_PHO
 10
20.30913
 20
16.30151
 30
0.0000
 41
1.0000
 42
1.0000
 50
0.0000
  0
INSERT
  2
OBLONG_284
  8
GEN001_PHO
 10
20.30913
 20
16.3271
 30
0.0000
 41
1.0000
 42
1.0000
 50
0.0000
  0
INSERT
  2
OBLONG_284
  8
GEN001_PHO
 10
20.30913
 20
16.35269
 30
0.0000
 41
1.0000
 42
1.0000
 50
0.0000
  0
INSERT
  2
OBLONG_284
  8
GEN001_PHO
 10
20.30913
 20
16.37828
 30
0.0000
 41
1.0000
 42
1.0000
 50
0.0000
  0
INSERT
  2
OBLONG_284
  8
GEN001_PHO
 10
20.30913
 20
16.40387
 30
0.0000
 41
1.0000
 42
1.0000
 50
0.0000
  0
INSERT
  2
OBLONG_284
  8
GEN001_PHO
 10
20.30913
 20
16.42946
 30
0.0000
 41
1.0000
 42
1.0000
 50
0.0000
  0
INSERT
  2
OBLONG_284
  8
GEN001_PHO
 10
20.30913
 20
16.45505
 30
0.0000
 41
1.0000
 42
1.0000
 50
0.0000
  0
INSERT
  2
RECTANGLE_285
  8
GEN001_PHO
 10
20.5592
 20
16.03813
 30
0.0000
 41
1.0000
 42
1.0000
 50
0.0000
  0
INSERT
  2
RECTANGLE_285
  8
GEN001_PHO
 10
20.5592
 20
15.98813
 30
0.0000
 41
1.0000
 42
1.0000
 50
0.0000
  0
INSERT
  2
RECTANGLE_285
  8
GEN001_PHO
 10
20.5592
 20
15.93813
 30
0.0000
 41
1.0000
 42
1.0000
 50
0.0000
  0
INSERT
  2
RECTANGLE_285
  8
GEN001_PHO
 10
20.5592
 20
15.88813
 30
0.0000
 41
1.0000
 42
1.0000
 50
0.0000
  0
INSERT
  2
RECTANGLE_285
  8
GEN001_PHO
 10
20.32298
 20
15.88813
 30
0.0000
 41
1.0000
 42
1.0000
 50
0.0000
  0
INSERT
  2
RECTANGLE_285
  8
GEN001_PHO
 10
20.32298
 20
15.93813
 30
0.0000
 41
1.0000
 42
1.0000
 50
0.0000
  0
INSERT
  2
RECTANGLE_285
  8
GEN001_PHO
 10
20.32298
 20
15.98813
 30
0.0000
 41
1.0000
 42
1.0000
 50
0.0000
  0
INSERT
  2
RECTANGLE_285
  8
GEN001_PHO
 10
20.32298
 20
16.03813
 30
0.0000
 41
1.0000
 42
1.0000
 50
0.0000
  0
INSERT
  2
RECTANGLE_286
  8
GEN001_PHO
 10
20.1278
 20
16.53303
 30
0.0000
 41
1.0000
 42
1.0000
 50
0.0000
  0
INSERT
  2
RECTANGLE_286
  8
GEN001_PHO
 10
20.1278
 20
16.47988
 30
0.0000
 41
1.0000
 42
1.0000
 50
0.0000
  0
INSERT
  2
RECTANGLE_286
  8
GEN001_PHO
 10
20.1278
 20
16.42673
 30
0.0000
 41
1.0000
 42
1.0000
 50
0.0000
  0
INSERT
  2
RECTANGLE_286
  8
GEN001_PHO
 10
20.1278
 20
16.37358
 30
0.0000
 41
1.0000
 42
1.0000
 50
0.0000
  0
INSERT
  2
RECTANGLE_286
  8
GEN001_PHO
 10
20.1278
 20
16.32043
 30
0.0000
 41
1.0000
 42
1.0000
 50
0.0000
  0
INSERT
  2
RECTANGLE_286
  8
GEN001_PHO
 10
20.1278
 20
16.26728
 30
0.0000
 41
1.0000
 42
1.0000
 50
0.0000
  0
INSERT
  2
RECTANGLE_286
  8
GEN001_PHO
 10
20.1278
 20
16.21413
 30
0.0000
 41
1.0000
 42
1.0000
 50
0.0000
  0
INSERT
  2
RECTANGLE_286
  8
GEN001_PHO
 10
20.1278
 20
16.16098
 30
0.0000
 41
1.0000
 42
1.0000
 50
0.0000
  0
INSERT
  2
RECTANGLE_286
  8
GEN001_PHO
 10
20.1278
 20
16.10783
 30
0.0000
 41
1.0000
 42
1.0000
 50
0.0000
  0
INSERT
  2
RECTANGLE_286
  8
GEN001_PHO
 10
20.1278
 20
16.05468
 30
0.0000
 41
1.0000
 42
1.0000
 50
0.0000
  0
INSERT
  2
RECTANGLE_286
  8
GEN001_PHO
 10
20.1278
 20
16.00153
 30
0.0000
 41
1.0000
 42
1.0000
 50
0.0000
  0
INSERT
  2
RECTANGLE_286
  8
GEN001_PHO
 10
20.1278
 20
15.94838
 30
0.0000
 41
1.0000
 42
1.0000
 50
0.0000
  0
INSERT
  2
RECTANGLE_286
  8
GEN001_PHO
 10
20.1278
 20
15.89523
 30
0.0000
 41
1.0000
 42
1.0000
 50
0.0000
  0
INSERT
  2
RECTANGLE_286
  8
GEN001_PHO
 10
19.70261
 20
15.89523
 30
0.0000
 41
1.0000
 42
1.0000
 50
0.0000
  0
INSERT
  2
RECTANGLE_286
  8
GEN001_PHO
 10
19.70261
 20
15.94838
 30
0.0000
 41
1.0000
 42
1.0000
 50
0.0000
  0
INSERT
  2
RECTANGLE_286
  8
GEN001_PHO
 10
19.70261
 20
16.00153
 30
0.0000
 41
1.0000
 42
1.0000
 50
0.0000
  0
INSERT
  2
RECTANGLE_286
  8
GEN001_PHO
 10
19.70261
 20
16.05468
 30
0.0000
 41
1.0000
 42
1.0000
 50
0.0000
  0
INSERT
  2
RECTANGLE_286
  8
GEN001_PHO
 10
19.70261
 20
16.10783
 30
0.0000
 41
1.0000
 42
1.0000
 50
0.0000
  0
INSERT
  2
RECTANGLE_286
  8
GEN001_PHO
 10
19.70261
 20
16.16098
 30
0.0000
 41
1.0000
 42
1.0000
 50
0.0000
  0
INSERT
  2
RECTANGLE_286
  8
GEN001_PHO
 10
19.70261
 20
16.21413
 30
0.0000
 41
1.0000
 42
1.0000
 50
0.0000
  0
INSERT
  2
RECTANGLE_286
  8
GEN001_PHO
 10
19.70261
 20
16.26728
 30
0.0000
 41
1.0000
 42
1.0000
 50
0.0000
  0
INSERT
  2
RECTANGLE_286
  8
GEN001_PHO
 10
19.70261
 20
16.32043
 30
0.0000
 41
1.0000
 42
1.0000
 50
0.0000
  0
INSERT
  2
RECTANGLE_286
  8
GEN001_PHO
 10
19.70261
 20
16.37358
 30
0.0000
 41
1.0000
 42
1.0000
 50
0.0000
  0
INSERT
  2
RECTANGLE_286
  8
GEN001_PHO
 10
19.70261
 20
16.42673
 30
0.0000
 41
1.0000
 42
1.0000
 50
0.0000
  0
INSERT
  2
RECTANGLE_286
  8
GEN001_PHO
 10
19.70261
 20
16.47988
 30
0.0000
 41
1.0000
 42
1.0000
 50
0.0000
  0
INSERT
  2
RECTANGLE_286
  8
GEN001_PHO
 10
19.70261
 20
16.53303
 30
0.0000
 41
1.0000
 42
1.0000
 50
0.0000
  0
POLYLINE
  8
GEN001_PHO
 66
1
 10
0.0000
 20
0.0000
 30
0.0000
 40
0.0060
 41
0.0060
  0
VERTEX
  8
GEN001_PHO
 10
20.54021
 20
16.09413
 30
0.0000
  0
VERTEX
  8
GEN001_PHO
 10
20.62021
 20
16.09413
 30
0.0000
  0
VERTEX
  8
GEN001_PHO
 10
20.62021
 20
16.13413
 30
0.0000
  0
VERTEX
  8
GEN001_PHO
 10
20.54021
 20
16.13413
 30
0.0000
  0
VERTEX
  8
GEN001_PHO
 10
20.54021
 20
16.09413
 30
0.0000
  0
SEQEND
  0
POLYLINE
  8
GEN001_PHO
 66
1
 10
0.0000
 20
0.0000
 30
0.0000
 40
0.0060
 41
0.0060
  0
VERTEX
  8
GEN001_PHO
 10
20.73221
 20
16.43013
 30
0.0000
  0
VERTEX
  8
GEN001_PHO
 10
20.65221
 20
16.43013
 30
0.0000
  0
VERTEX
  8
GEN001_PHO
 10
20.65221
 20
16.39013
 30
0.0000
  0
VERTEX
  8
GEN001_PHO
 10
20.73221
 20
16.39013
 30
0.0000
  0
VERTEX
  8
GEN001_PHO
 10
20.73221
 20
16.43013
 30
0.0000
  0
SEQEND
  0
POLYLINE
  8
GEN001_PHO
 66
1
 10
0.0000
 20
0.0000
 30
0.0000
 40
0.0060
 41
0.0060
  0
VERTEX
  8
GEN001_PHO
 10
20.66021
 20
16.34613
 30
0.0000
  0
VERTEX
  8
GEN001_PHO
 10
20.72421
 20
16.34613
 30
0.0000
  0
SEQEND
  0
POLYLINE
  8
GEN001_PHO
 66
1
 10
0.0000
 20
0.0000
 30
0.0000
 40
0.0060
 41
0.0060
  0
VERTEX
  8
GEN001_PHO
 10
20.72421
 20
16.34613
 30
0.0000
 42
0.4535975
  0
VERTEX
  8
GEN001_PHO
 10
20.72421
 20
16.38613
 30
0.0000
 42
0.0000
  0
SEQEND
  0
POLYLINE
  8
GEN001_PHO
 66
1
 10
0.0000
 20
0.0000
 30
0.0000
 40
0.0060
 41
0.0060
  0
VERTEX
  8
GEN001_PHO
 10
20.72421
 20
16.38613
 30
0.0000
  0
VERTEX
  8
GEN001_PHO
 10
20.66021
 20
16.38613
 30
0.0000
  0
SEQEND
  0
POLYLINE
  8
GEN001_PHO
 66
1
 10
0.0000
 20
0.0000
 30
0.0000
 40
0.0060
 41
0.0060
  0
VERTEX
  8
GEN001_PHO
 10
20.66022
 20
16.38615
 30
0.0000
 42
0.4509653
  0
VERTEX
  8
GEN001_PHO
 10
20.66019
 20
16.34615
 30
0.0000
 42
0.0000
  0
SEQEND
  0
POLYLINE
  8
GEN001_PHO
 66
1
 10
0.0000
 20
0.0000
 30
0.0000
 40
0.0060
 41
0.0060
  0
VERTEX
  8
GEN001_PHO
 10
20.66121
 20
16.30113
 30
0.0000
  0
VERTEX
  8
GEN001_PHO
 10
20.72521
 20
16.30113
 30
0.0000
  0
SEQEND
  0
POLYLINE
  8
GEN001_PHO
 66
1
 10
0.0000
 20
0.0000
 30
0.0000
 40
0.0060
 41
0.0060
  0
VERTEX
  8
GEN001_PHO
 10
20.72521
 20
16.30113
 30
0.0000
 42
0.4535975
  0
VERTEX
  8
GEN001_PHO
 10
20.72521
 20
16.34113
 30
0.0000
 42
0.0000
  0
SEQEND
  0
POLYLINE
  8
GEN001_PHO
 66
1
 10
0.0000
 20
0.0000
 30
0.0000
 40
0.0060
 41
0.0060
  0
VERTEX
  8
GEN001_PHO
 10
20.72521
 20
16.34113
 30
0.0000
  0
VERTEX
  8
GEN001_PHO
 10
20.66121
 20
16.34113
 30
0.0000
  0
SEQEND
  0
POLYLINE
  8
GEN001_PHO
 66
1
 10
0.0000
 20
0.0000
 30
0.0000
 40
0.0060
 41
0.0060
  0
VERTEX
  8
GEN001_PHO
 10
20.66122
 20
16.34115
 30
0.0000
 42
0.4509653
  0
VERTEX
  8
GEN001_PHO
 10
20.66119
 20
16.30115
 30
0.0000
 42
0.0000
  0
SEQEND
  0
POLYLINE
  8
GEN001_PHO
 66
1
 10
0.0000
 20
0.0000
 30
0.0000
 40
0.0060
 41
0.0060
  0
VERTEX
  8
GEN001_PHO
 10
20.60921
 20
16.18113
 30
0.0000
  0
VERTEX
  8
GEN001_PHO
 10
20.54521
 20
16.18113
 30
0.0000
  0
SEQEND
  0
POLYLINE
  8
GEN001_PHO
 66
1
 10
0.0000
 20
0.0000
 30
0.0000
 40
0.0060
 41
0.0060
  0
VERTEX
  8
GEN001_PHO
 10
20.54521
 20
16.18113
 30
0.0000
 42
0.4537682
  0
VERTEX
  8
GEN001_PHO
 10
20.54521
 20
16.14113
 30
0.0000
 42
0.0000
  0
SEQEND
  0
POLYLINE
  8
GEN001_PHO
 66
1
 10
0.0000
 20
0.0000
 30
0.0000
 40
0.0060
 41
0.0060
  0
VERTEX
  8
GEN001_PHO
 10
20.54521
 20
16.14113
 30
0.0000
  0
VERTEX
  8
GEN001_PHO
 10
20.60921
 20
16.14113
 30
0.0000
  0
SEQEND
  0
POLYLINE
  8
GEN001_PHO
 66
1
 10
0.0000
 20
0.0000
 30
0.0000
 40
0.0060
 41
0.0060
  0
VERTEX
  8
GEN001_PHO
 10
20.60919
 20
16.14112
 30
0.0000
 42
0.450968
  0
VERTEX
  8
GEN001_PHO
 10
20.60922
 20
16.18112
 30
0.0000
 42
0.0000
  0
SEQEND
  0
POLYLINE
  8
GEN001_PHO
 66
1
 10
0.0000
 20
0.0000
 30
0.0000
 40
0.0060
 41
0.0060
  0
VERTEX
  8
GEN001_PHO
 10
20.09721
 20
15.77213
 30
0.0000
  0
VERTEX
  8
GEN001_PHO
 10
20.17721
 20
15.77213
 30
0.0000
  0
VERTEX
  8
GEN001_PHO
 10
20.17721
 20
15.81213
 30
0.0000
  0
VERTEX
  8
GEN001_PHO
 10
20.09721
 20
15.81213
 30
0.0000
  0
VERTEX
  8
GEN001_PHO
 10
20.09721
 20
15.77213
 30
0.0000
  0
SEQEND
  0
POLYLINE
  8
GEN001_PHO
 66
1
 10
0.0000
 20
0.0000
 30
0.0000
 40
0.0060
 41
0.0060
  0
VERTEX
  8
GEN001_PHO
 10
20.09721
 20
15.72713
 30
0.0000
  0
VERTEX
  8
GEN001_PHO
 10
20.17721
 20
15.72713
 30
0.0000
  0
VERTEX
  8
GEN001_PHO
 10
20.17721
 20
15.76713
 30
0.0000
  0
VERTEX
  8
GEN001_PHO
 10
20.09721
 20
15.76713
 30
0.0000
  0
VERTEX
  8
GEN001_PHO
 10
20.09721
 20
15.72713
 30
0.0000
  0
SEQEND
  0
POLYLINE
  8
GEN001_PHO
 66
1
 10
0.0000
 20
0.0000
 30
0.0000
 40
0.0060
 41
0.0060
  0
VERTEX
  8
GEN001_PHO
 10
20.02421
 20
15.63813
 30
0.0000
  0
VERTEX
  8
GEN001_PHO
 10
20.02421
 20
15.55813
 30
0.0000
  0
VERTEX
  8
GEN001_PHO
 10
20.06421
 20
15.55813
 30
0.0000
  0
VERTEX
  8
GEN001_PHO
 10
20.06421
 20
15.63813
 30
0.0000
  0
VERTEX
  8
GEN001_PHO
 10
20.02421
 20
15.63813
 30
0.0000
  0
SEQEND
  0
POLYLINE
  8
GEN001_PHO
 66
1
 10
0.0000
 20
0.0000
 30
0.0000
 40
0.0060
 41
0.0060
  0
VERTEX
  8
GEN001_PHO
 10
19.63121
 20
15.56013
 30
0.0000
  0
VERTEX
  8
GEN001_PHO
 10
19.63121
 20
15.64013
 30
0.0000
  0
VERTEX
  8
GEN001_PHO
 10
19.59121
 20
15.64013
 30
0.0000
  0
VERTEX
  8
GEN001_PHO
 10
19.59121
 20
15.56013
 30
0.0000
  0
VERTEX
  8
GEN001_PHO
 10
19.63121
 20
15.56013
 30
0.0000
  0
SEQEND
  0
POLYLINE
  8
GEN001_PHO
 66
1
 10
0.0000
 20
0.0000
 30
0.0000
 40
0.0060
 41
0.0060
  0
VERTEX
  8
GEN001_PHO
 10
19.81721
 20
15.72013
 30
0.0000
  0
VERTEX
  8
GEN001_PHO
 10
19.89721
 20
15.72013
 30
0.0000
  0
VERTEX
  8
GEN001_PHO
 10
19.89721
 20
15.76013
 30
0.0000
  0
VERTEX
  8
GEN001_PHO
 10
19.81721
 20
15.76013
 30
0.0000
  0
VERTEX
  8
GEN001_PHO
 10
19.81721
 20
15.72013
 30
0.0000
  0
SEQEND
  0
POLYLINE
  8
GEN001_PHO
 66
1
 10
0.0000
 20
0.0000
 30
0.0000
 40
0.0060
 41
0.0060
  0
VERTEX
  8
GEN001_PHO
 10
19.81721
 20
15.76913
 30
0.0000
  0
VERTEX
  8
GEN001_PHO
 10
19.89721
 20
15.76913
 30
0.0000
  0
VERTEX
  8
GEN001_PHO
 10
19.89721
 20
15.80913
 30
0.0000
  0
VERTEX
  8
GEN001_PHO
 10
19.81721
 20
15.80913
 30
0.0000
  0
VERTEX
  8
GEN001_PHO
 10
19.81721
 20
15.76913
 30
0.0000
  0
SEQEND
  0
POLYLINE
  8
GEN001_PHO
 66
1
 10
0.0000
 20
0.0000
 30
0.0000
 40
0.0060
 41
0.0060
  0
VERTEX
  8
GEN001_PHO
 10
19.22921
 20
15.87313
 30
0.0000
  0
VERTEX
  8
GEN001_PHO
 10
19.22921
 20
15.79313
 30
0.0000
  0
VERTEX
  8
GEN001_PHO
 10
19.26921
 20
15.79313
 30
0.0000
  0
VERTEX
  8
GEN001_PHO
 10
19.26921
 20
15.87313
 30
0.0000
  0
VERTEX
  8
GEN001_PHO
 10
19.22921
 20
15.87313
 30
0.0000
  0
SEQEND
  0
POLYLINE
  8
GEN001_PHO
 66
1
 10
0.0000
 20
0.0000
 30
0.0000
 40
0.0060
 41
0.0060
  0
VERTEX
  8
GEN001_PHO
 10
19.41821
 20
15.76113
 30
0.0000
  0
VERTEX
  8
GEN001_PHO
 10
19.41821
 20
15.68113
 30
0.0000
  0
VERTEX
  8
GEN001_PHO
 10
19.45821
 20
15.68113
 30
0.0000
  0
VERTEX
  8
GEN001_PHO
 10
19.45821
 20
15.76113
 30
0.0000
  0
VERTEX
  8
GEN001_PHO
 10
19.41821
 20
15.76113
 30
0.0000
  0
SEQEND
  0
POLYLINE
  8
GEN001_PHO
 66
1
 10
0.0000
 20
0.0000
 30
0.0000
 40
0.0060
 41
0.0060
  0
VERTEX
  8
GEN001_PHO
 10
19.18121
 20
15.87313
 30
0.0000
  0
VERTEX
  8
GEN001_PHO
 10
19.18121
 20
15.79313
 30
0.0000
  0
VERTEX
  8
GEN001_PHO
 10
19.22121
 20
15.79313
 30
0.0000
  0
VERTEX
  8
GEN001_PHO
 10
19.22121
 20
15.87313
 30
0.0000
  0
VERTEX
  8
GEN001_PHO
 10
19.18121
 20
15.87313
 30
0.0000
  0
SEQEND
  0
POLYLINE
  8
GEN001_PHO
 66
1
 10
0.0000
 20
0.0000
 30
0.0000
 40
0.0060
 41
0.0060
  0
VERTEX
  8
GEN001_PHO
 10
19.40221
 20
15.76013
 30
0.0000
  0
VERTEX
  8
GEN001_PHO
 10
19.32221
 20
15.76013
 30
0.0000
  0
VERTEX
  8
GEN001_PHO
 10
19.32221
 20
15.72013
 30
0.0000
  0
VERTEX
  8
GEN001_PHO
 10
19.40221
 20
15.72013
 30
0.0000
  0
VERTEX
  8
GEN001_PHO
 10
19.40221
 20
15.76013
 30
0.0000
  0
SEQEND
  0
POLYLINE
  8
GEN001_PHO
 66
1
 10
0.0000
 20
0.0000
 30
0.0000
 40
0.0060
 41
0.0060
  0
VERTEX
  8
GEN001_PHO
 10
19.25621
 20
16.13513
 30
0.0000
  0
VERTEX
  8
GEN001_PHO
 10
19.25621
 20
16.19913
 30
0.0000
  0
SEQEND
  0
POLYLINE
  8
GEN001_PHO
 66
1
 10
0.0000
 20
0.0000
 30
0.0000
 40
0.0060
 41
0.0060
  0
VERTEX
  8
GEN001_PHO
 10
19.25621
 20
16.19913
 30
0.0000
 42
0.4535975
  0
VERTEX
  8
GEN001_PHO
 10
19.21621
 20
16.19913
 30
0.0000
 42
0.0000
  0
SEQEND
  0
POLYLINE
  8
GEN001_PHO
 66
1
 10
0.0000
 20
0.0000
 30
0.0000
 40
0.0060
 41
0.0060
  0
VERTEX
  8
GEN001_PHO
 10
19.21621
 20
16.19913
 30
0.0000
  0
VERTEX
  8
GEN001_PHO
 10
19.21621
 20
16.13513
 30
0.0000
  0
SEQEND
  0
POLYLINE
  8
GEN001_PHO
 66
1
 10
0.0000
 20
0.0000
 30
0.0000
 40
0.0060
 41
0.0060
  0
VERTEX
  8
GEN001_PHO
 10
19.21619
 20
16.13515
 30
0.0000
 42
0.4508809
  0
VERTEX
  8
GEN001_PHO
 10
19.25619
 20
16.13511
 30
0.0000
 42
0.0000
  0
SEQEND
  0
POLYLINE
  8
GEN001_PHO
 66
1
 10
0.0000
 20
0.0000
 30
0.0000
 40
0.0060
 41
0.0060
  0
VERTEX
  8
GEN001_PHO
 10
19.16921
 20
16.07013
 30
0.0000
  0
VERTEX
  8
GEN001_PHO
 10
19.24921
 20
16.07013
 30
0.0000
  0
VERTEX
  8
GEN001_PHO
 10
19.24921
 20
16.11013
 30
0.0000
  0
VERTEX
  8
GEN001_PHO
 10
19.16921
 20
16.11013
 30
0.0000
  0
VERTEX
  8
GEN001_PHO
 10
19.16921
 20
16.07013
 30
0.0000
  0
SEQEND
  0
POLYLINE
  8
GEN001_PHO
 66
1
 10
0.0000
 20
0.0000
 30
0.0000
 40
0.0060
 41
0.0060
  0
VERTEX
  8
GEN001_PHO
 10
19.54221
 20
16.17413
 30
0.0000
  0
VERTEX
  8
GEN001_PHO
 10
19.54221
 20
16.11013
 30
0.0000
  0
SEQEND
  0
POLYLINE
  8
GEN001_PHO
 66
1
 10
0.0000
 20
0.0000
 30
0.0000
 40
0.0060
 41
0.0060
  0
VERTEX
  8
GEN001_PHO
 10
19.54221
 20
16.11013
 30
0.0000
 42
0.4535975
  0
VERTEX
  8
GEN001_PHO
 10
19.58221
 20
16.11013
 30
0.0000
 42
0.0000
  0
SEQEND
  0
POLYLINE
  8
GEN001_PHO
 66
1
 10
0.0000
 20
0.0000
 30
0.0000
 40
0.0060
 41
0.0060
  0
VERTEX
  8
GEN001_PHO
 10
19.58221
 20
16.11013
 30
0.0000
  0
VERTEX
  8
GEN001_PHO
 10
19.58221
 20
16.17413
 30
0.0000
  0
SEQEND
  0
POLYLINE
  8
GEN001_PHO
 66
1
 10
0.0000
 20
0.0000
 30
0.0000
 40
0.0060
 41
0.0060
  0
VERTEX
  8
GEN001_PHO
 10
19.58222
 20
16.17411
 30
0.0000
 42
0.4510499
  0
VERTEX
  8
GEN001_PHO
 10
19.54222
 20
16.17415
 30
0.0000
 42
0.0000
  0
SEQEND
  0
POLYLINE
  8
GEN001_PHO
 66
1
 10
0.0000
 20
0.0000
 30
0.0000
 70
1
 40
0.0050
 41
0.0050
  0
VERTEX
  8
GEN001_PHO
 10
19.73707
 20
15.64572
 30
0.0000
 42
1
  0
VERTEX
  8
GEN001_PHO
 10
19.74969
 20
15.64572
 30
0.0000
 42
1
  0
SEQEND
  0
POLYLINE
  8
GEN001_PHO
 66
1
 10
0.0000
 20
0.0000
 30
0.0000
 70
1
 40
0.0050
 41
0.0050
  0
VERTEX
  8
GEN001_PHO
 10
19.37748
 20
16.17196
 30
0.0000
 42
1
  0
VERTEX
  8
GEN001_PHO
 10
19.3901
 20
16.17196
 30
0.0000
 42
1
  0
SEQEND
  0
POLYLINE
  8
GEN001_PHO
 66
1
 10
0.0000
 20
0.0000
 30
0.0000
 40
0.0080
 41
0.0080
  0
VERTEX
  8
GEN001_PHO
 10
19.74621
 20
15.76413
 30
0.0000
  0
VERTEX
  8
GEN001_PHO
 10
19.78421
 20
15.76413
 30
0.0000
  0
SEQEND
  0
POLYLINE
  8
GEN001_PHO
 66
1
 10
0.0000
 20
0.0000
 30
0.0000
 40
0.0080
 41
0.0080
  0
VERTEX
  8
GEN001_PHO
 10
19.75321
 20
15.78113
 30
0.0000
  0
VERTEX
  8
GEN001_PHO
 10
19.77721
 20
15.78113
 30
0.0000
  0
SEQEND
  0
POLYLINE
  8
GEN001_PHO
 66
1
 10
0.0000
 20
0.0000
 30
0.0000
 40
0.0080
 41
0.0080
  0
VERTEX
  8
GEN001_PHO
 10
19.77921
 20
15.78013
 30
0.0000
  0
VERTEX
  8
GEN001_PHO
 10
19.76721
 20
15.76713
 30
0.0000
  0
SEQEND
  0
POLYLINE
  8
GEN001_PHO
 66
1
 10
0.0000
 20
0.0000
 30
0.0000
 40
0.0080
 41
0.0080
  0
VERTEX
  8
GEN001_PHO
 10
19.75121
 20
15.78113
 30
0.0000
  0
VERTEX
  8
GEN001_PHO
 10
19.76221
 20
15.76713
 30
0.0000
  0
SEQEND
  0
POLYLINE
  8
GEN001_PHO
 66
1
 10
0.0000
 20
0.0000
 30
0.0000
 40
0.0080
 41
0.0080
  0
VERTEX
  8
GEN001_PHO
 10
19.76521
 20
15.76413
 30
0.0000
  0
VERTEX
  8
GEN001_PHO
 10
19.76521
 20
15.75048
 30
0.0000
  0
SEQEND
  0
POLYLINE
  8
GEN001_PHO
 66
1
 10
0.0000
 20
0.0000
 30
0.0000
 40
0.0080
 41
0.0080
  0
VERTEX
  8
GEN001_PHO
 10
19.76521
 20
15.78313
 30
0.0000
  0
VERTEX
  8
GEN001_PHO
 10
19.76521
 20
15.79528
 30
0.0000
  0
SEQEND
  0
POLYLINE
  8
GEN001_PHO
 66
1
 10
0.0000
 20
0.0000
 30
0.0000
 40
0.0080
 41
0.0080
  0
VERTEX
  8
GEN001_PHO
 10
19.19821
 20
16.20313
 30
0.0000
  0
VERTEX
  8
GEN001_PHO
 10
19.16021
 20
16.20313
 30
0.0000
  0
SEQEND
  0
POLYLINE
  8
GEN001_PHO
 66
1
 10
0.0000
 20
0.0000
 30
0.0000
 40
0.0080
 41
0.0080
  0
VERTEX
  8
GEN001_PHO
 10
19.19121
 20
16.18613
 30
0.0000
  0
VERTEX
  8
GEN001_PHO
 10
19.16721
 20
16.18613
 30
0.0000
  0
SEQEND
  0
POLYLINE
  8
GEN001_PHO
 66
1
 10
0.0000
 20
0.0000
 30
0.0000
 40
0.0080
 41
0.0080
  0
VERTEX
  8
GEN001_PHO
 10
19.16521
 20
16.18713
 30
0.0000
  0
VERTEX
  8
GEN001_PHO
 10
19.17721
 20
16.20013
 30
0.0000
  0
SEQEND
  0
POLYLINE
  8
GEN001_PHO
 66
1
 10
0.0000
 20
0.0000
 30
0.0000
 40
0.0080
 41
0.0080
  0
VERTEX
  8
GEN001_PHO
 10
19.19321
 20
16.18613
 30
0.0000
  0
VERTEX
  8
GEN001_PHO
 10
19.18221
 20
16.20013
 30
0.0000
  0
SEQEND
  0
POLYLINE
  8
GEN001_PHO
 66
1
 10
0.0000
 20
0.0000
 30
0.0000
 40
0.0080
 41
0.0080
  0
VERTEX
  8
GEN001_PHO
 10
19.17921
 20
16.20313
 30
0.0000
  0
VERTEX
  8
GEN001_PHO
 10
19.17921
 20
16.21679
 30
0.0000
  0
SEQEND
  0
POLYLINE
  8
GEN001_PHO
 66
1
 10
0.0000
 20
0.0000
 30
0.0000
 40
0.0080
 41
0.0080
  0
VERTEX
  8
GEN001_PHO
 10
19.17921
 20
16.18413
 30
0.0000
  0
VERTEX
  8
GEN001_PHO
 10
19.17921
 20
16.17198
 30
0.0000
  0
SEQEND
  0
POLYLINE
  8
GEN001_PHO
 66
1
 10
0.0000
 20
0.0000
 30
0.0000
 40
0.0010
 41
0.0010
  0
VERTEX
  8
GEN001_PHO
 10
20.83563
 20
16.47271
 30
0.0000
 42
0.3964213
  0
VERTEX
  8
GEN001_PHO
 10
20.7617
 20
16.5513
 30
0.0000
 42
0.0000
  0
SEQEND
  0
POLYLINE
  8
GEN001_PHO
 66
1
 10
0.0000
 20
0.0000
 30
0.0000
 40
0.0010
 41
0.0010
  0
VERTEX
  8
GEN001_PHO
 10
20.83563
 20
16.47271
 30
0.0000
  0
VERTEX
  8
GEN001_PHO
 10
20.83563
 20
15.48683
 30
0.0000
  0
SEQEND
  0
POLYLINE
  8
GEN001_PHO
 66
1
 10
0.0000
 20
0.0000
 30
0.0000
 40
0.0010
 41
0.0010
  0
VERTEX
  8
GEN001_PHO
 10
20.7617
 20
15.40823
 30
0.0000
 42
0.3964233
  0
VERTEX
  8
GEN001_PHO
 10
20.83563
 20
15.48683
 30
0.0000
 42
0.0000
  0
SEQEND
  0
POLYLINE
  8
GEN001_PHO
 66
1
 10
0.0000
 20
0.0000
 30
0.0000
 40
0.0010
 41
0.0010
  0
VERTEX
  8
GEN001_PHO
 10
20.76164
 20
15.40823
 30
0.0000
  0
VERTEX
  8
GEN001_PHO
 10
20.73118
 20
15.4064
 30
0.0000
  0
VERTEX
  8
GEN001_PHO
 10
20.67048
 20
15.40293
 30
0.0000
  0
VERTEX
  8
GEN001_PHO
 10
20.60978
 20
15.39964
 30
0.0000
  0
VERTEX
  8
GEN001_PHO
 10
20.54906
 20
15.39654
 30
0.0000
  0
VERTEX
  8
GEN001_PHO
 10
20.48834
 20
15.39362
 30
0.0000
  0
VERTEX
  8
GEN001_PHO
 10
20.42761
 20
15.3909
 30
0.0000
  0
VERTEX
  8
GEN001_PHO
 10
20.36687
 20
15.38836
 30
0.0000
  0
VERTEX
  8
GEN001_PHO
 10
20.30612
 20
15.38601
 30
0.0000
  0
VERTEX
  8
GEN001_PHO
 10
20.24536
 20
15.38384
 30
0.0000
  0
VERTEX
  8
GEN001_PHO
 10
20.1846
 20
15.38187
 30
0.0000
  0
VERTEX
  8
GEN001_PHO
 10
20.12383
 20
15.38008
 30
0.0000
  0
VERTEX
  8
GEN001_PHO
 10
20.06306
 20
15.37848
 30
0.0000
  0
VERTEX
  8
GEN001_PHO
 10
20.00228
 20
15.37707
 30
0.0000
  0
VERTEX
  8
GEN001_PHO
 10
19.9415
 20
15.37584
 30
0.0000
  0
VERTEX
  8
GEN001_PHO
 10
19.88071
 20
15.3748
 30
0.0000
  0
VERTEX
  8
GEN001_PHO
 10
19.81993
 20
15.37395
 30
0.0000
  0
VERTEX
  8
GEN001_PHO
 10
19.75914
 20
15.37329
 30
0.0000
  0
VERTEX
  8
GEN001_PHO
 10
19.69834
 20
15.37282
 30
0.0000
  0
VERTEX
  8
GEN001_PHO
 10
19.63755
 20
15.37253
 30
0.0000
  0
VERTEX
  8
GEN001_PHO
 10
19.57676
 20
15.37243
 30
0.0000
  0
VERTEX
  8
GEN001_PHO
 10
19.54625
 20
15.37247
 30
0.0000
  0
SEQEND
  0
POLYLINE
  8
GEN001_PHO
 66
1
 10
0.0000
 20
0.0000
 30
0.0000
 40
0.0010
 41
0.0010
  0
VERTEX
  8
GEN001_PHO
 10
19.53642
 20
15.38231
 30
0.0000
 42
0.4136184
  0
VERTEX
  8
GEN001_PHO
 10
19.54624
 20
15.37247
 30
0.0000
 42
0.0000
  0
SEQEND
  0
POLYLINE
  8
GEN001_PHO
 66
1
 10
0.0000
 20
0.0000
 30
0.0000
 40
0.0010
 41
0.0010
  0
VERTEX
  8
GEN001_PHO
 10
19.53642
 20
15.38231
 30
0.0000
  0
VERTEX
  8
GEN001_PHO
 10
19.53642
 20
15.49453
 30
0.0000
  0
SEQEND
  0
POLYLINE
  8
GEN001_PHO
 66
1
 10
0.0000
 20
0.0000
 30
0.0000
 40
0.0010
 41
0.0010
  0
VERTEX
  8
GEN001_PHO
 10
19.53642
 20
15.49453
 30
0.0000
 42
0.4142159
  0
VERTEX
  8
GEN001_PHO
 10
19.52657
 20
15.50437
 30
0.0000
 42
0.0000
  0
SEQEND
  0
POLYLINE
  8
GEN001_PHO
 66
1
 10
0.0000
 20
0.0000
 30
0.0000
 40
0.0010
 41
0.0010
  0
VERTEX
  8
GEN001_PHO
 10
19.52657
 20
15.50437
 30
0.0000
  0
VERTEX
  8
GEN001_PHO
 10
19.10138
 20
15.50437
 30
0.0000
  0
SEQEND
  0
POLYLINE
  8
GEN001_PHO
 66
1
 10
0.0000
 20
0.0000
 30
0.0000
 40
0.0010
 41
0.0010
  0
VERTEX
  8
GEN001_PHO
 10
19.09154
 20
15.51421
 30
0.0000
 42
0.4142136
  0
VERTEX
  8
GEN001_PHO
 10
19.10138
 20
15.50437
 30
0.0000
 42
0.0000
  0
SEQEND
  0
POLYLINE
  8
GEN001_PHO
 66
1
 10
0.0000
 20
0.0000
 30
0.0000
 40
0.0010
 41
0.0010
  0
VERTEX
  8
GEN001_PHO
 10
19.09154
 20
15.51421
 30
0.0000
  0
VERTEX
  8
GEN001_PHO
 10
19.09154
 20
16.44532
 30
0.0000
  0
SEQEND
  0
POLYLINE
  8
GEN001_PHO
 66
1
 10
0.0000
 20
0.0000
 30
0.0000
 40
0.0010
 41
0.0010
  0
VERTEX
  8
GEN001_PHO
 10
19.10138
 20
16.45516
 30
0.0000
 42
0.4142136
  0
VERTEX
  8
GEN001_PHO
 10
19.09154
 20
16.44532
 30
0.0000
 42
0.0000
  0
SEQEND
  0
POLYLINE
  8
GEN001_PHO
 66
1
 10
0.0000
 20
0.0000
 30
0.0000
 40
0.0010
 41
0.0010
  0
VERTEX
  8
GEN001_PHO
 10
19.10138
 20
16.45516
 30
0.0000
  0
VERTEX
  8
GEN001_PHO
 10
19.52657
 20
16.45516
 30
0.0000
  0
SEQEND
  0
POLYLINE
  8
GEN001_PHO
 66
1
 10
0.0000
 20
0.0000
 30
0.0000
 40
0.0010
 41
0.0010
  0
VERTEX
  8
GEN001_PHO
 10
19.52657
 20
16.45516
 30
0.0000
 42
0.4142159
  0
VERTEX
  8
GEN001_PHO
 10
19.53642
 20
16.4650
 30
0.0000
 42
0.0000
  0
SEQEND
  0
POLYLINE
  8
GEN001_PHO
 66
1
 10
0.0000
 20
0.0000
 30
0.0000
 40
0.0010
 41
0.0010
  0
VERTEX
  8
GEN001_PHO
 10
19.53642
 20
16.4650
 30
0.0000
  0
VERTEX
  8
GEN001_PHO
 10
19.53642
 20
16.57722
 30
0.0000
  0
SEQEND
  0
POLYLINE
  8
GEN001_PHO
 66
1
 10
0.0000
 20
0.0000
 30
0.0000
 40
0.0010
 41
0.0010
  0
VERTEX
  8
GEN001_PHO
 10
19.54624
 20
16.58707
 30
0.0000
 42
0.4136187
  0
VERTEX
  8
GEN001_PHO
 10
19.53642
 20
16.57722
 30
0.0000
 42
0.0000
  0
SEQEND
  0
POLYLINE
  8
GEN001_PHO
 66
1
 10
0.0000
 20
0.0000
 30
0.0000
 40
0.0010
 41
0.0010
  0
VERTEX
  8
GEN001_PHO
 10
19.54625
 20
16.58707
 30
0.0000
  0
VERTEX
  8
GEN001_PHO
 10
19.57676
 20
16.5871
 30
0.0000
  0
VERTEX
  8
GEN001_PHO
 10
19.63755
 20
16.5870
 30
0.0000
  0
VERTEX
  8
GEN001_PHO
 10
19.69834
 20
16.58671
 30
0.0000
  0
VERTEX
  8
GEN001_PHO
 10
19.75914
 20
16.58624
 30
0.0000
  0
VERTEX
  8
GEN001_PHO
 10
19.81993
 20
16.58558
 30
0.0000
  0
VERTEX
  8
GEN001_PHO
 10
19.88071
 20
16.58473
 30
0.0000
  0
VERTEX
  8
GEN001_PHO
 10
19.9415
 20
16.58369
 30
0.0000
  0
VERTEX
  8
GEN001_PHO
 10
20.00228
 20
16.58247
 30
0.0000
  0
VERTEX
  8
GEN001_PHO
 10
20.06306
 20
16.58105
 30
0.0000
  0
VERTEX
  8
GEN001_PHO
 10
20.12383
 20
16.57945
 30
0.0000
  0
VERTEX
  8
GEN001_PHO
 10
20.1846
 20
16.57766
 30
0.0000
  0
VERTEX
  8
GEN001_PHO
 10
20.24536
 20
16.57569
 30
0.0000
  0
VERTEX
  8
GEN001_PHO
 10
20.30612
 20
16.57353
 30
0.0000
  0
VERTEX
  8
GEN001_PHO
 10
20.36687
 20
16.57117
 30
0.0000
  0
VERTEX
  8
GEN001_PHO
 10
20.42761
 20
16.56864
 30
0.0000
  0
VERTEX
  8
GEN001_PHO
 10
20.48834
 20
16.56591
 30
0.0000
  0
VERTEX
  8
GEN001_PHO
 10
20.54906
 20
16.5630
 30
0.0000
  0
VERTEX
  8
GEN001_PHO
 10
20.60978
 20
16.55989
 30
0.0000
  0
VERTEX
  8
GEN001_PHO
 10
20.67048
 20
16.55661
 30
0.0000
  0
VERTEX
  8
GEN001_PHO
 10
20.73118
 20
16.55313
 30
0.0000
  0
VERTEX
  8
GEN001_PHO
 10
20.76164
 20
16.5513
 30
0.0000
  0
SEQEND
  0
POLYLINE
  8
GEN001_PHO
 66
1
 10
0.0000
 20
0.0000
 30
0.0000
 70
1
 40
0.0010
 41
0.0010
  0
VERTEX
  8
GEN001_PHO
 10
19.13328
 20
16.38179
 30
0.0000
 42
1
  0
VERTEX
  8
GEN001_PHO
 10
19.2002
 20
16.38179
 30
0.0000
 42
1
  0
SEQEND
  0
POLYLINE
  8
GEN001_PHO
 66
1
 10
0.0000
 20
0.0000
 30
0.0000
 70
1
 40
0.0010
 41
0.0010
  0
VERTEX
  8
GEN001_PHO
 10
19.18445
 20
15.58258
 30
0.0000
 42
1
  0
VERTEX
  8
GEN001_PHO
 10
19.25139
 20
15.58258
 30
0.0000
 42
1
  0
SEQEND
  0
POLYLINE
  8
GEN001_PHO
 66
1
 10
0.0000
 20
0.0000
 30
0.0000
 70
1
 40
0.0010
 41
0.0010
  0
VERTEX
  8
GEN001_PHO
 10
19.55031
 20
15.45054
 30
0.0000
 42
1
  0
VERTEX
  8
GEN001_PHO
 10
19.62119
 20
15.45054
 30
0.0000
 42
1
  0
SEQEND
  0
POLYLINE
  8
GEN001_PHO
 66
1
 10
0.0000
 20
0.0000
 30
0.0000
 70
1
 40
0.0010
 41
0.0010
  0
VERTEX
  8
GEN001_PHO
 10
20.64075
 20
15.45221
 30
0.0000
 42
1
  0
VERTEX
  8
GEN001_PHO
 10
20.71161
 20
15.45221
 30
0.0000
 42
1
  0
SEQEND
  0
POLYLINE
  8
GEN001_PHO
 66
1
 10
0.0000
 20
0.0000
 30
0.0000
 70
1
 40
0.0010
 41
0.0010
  0
VERTEX
  8
GEN001_PHO
 10
20.64075
 20
16.50732
 30
0.0000
 42
1
  0
VERTEX
  8
GEN001_PHO
 10
20.71161
 20
16.50732
 30
0.0000
 42
1
  0
SEQEND
  0
POLYLINE
  8
GEN001_PHO
 66
1
 10
0.0000
 20
0.0000
 30
0.0000
 70
1
 40
0.0010
 41
0.0010
  0
VERTEX
  8
GEN001_PHO
 10
19.5502
 20
16.50929
 30
0.0000
 42
1
  0
VERTEX
  8
GEN001_PHO
 10
19.62106
 20
16.50929
 30
0.0000
 42
1
  0
SEQEND
  0
POLYLINE
  8
GEN001_PHO
 66
1
 10
0.0000
 20
0.0000
 30
0.0000
 70
1
 40
0.0010
 41
0.0010
  0
VERTEX
  8
GEN001_PHO
 10
19.56359
 20
15.70418
 30
0.0000
 42
1
  0
VERTEX
  8
GEN001_PHO
 10
19.62657
 20
15.70418
 30
0.0000
 42
1
  0
SEQEND
  0
POLYLINE
  8
GEN001_PHO
 66
1
 10
0.0000
 20
0.0000
 30
0.0000
 70
1
 40
0.0010
 41
0.0010
  0
VERTEX
  8
GEN001_PHO
 10
19.56359
 20
16.25536
 30
0.0000
 42
1
  0
VERTEX
  8
GEN001_PHO
 10
19.62657
 20
16.25536
 30
0.0000
 42
1
  0
SEQEND
  0
POLYLINE
  8
GEN001_PHO
 66
1
 10
0.0000
 20
0.0000
 30
0.0000
 70
1
 40
0.0010
 41
0.0010
  0
VERTEX
  8
GEN001_PHO
 10
19.44635
 20
16.33257
 30
0.0000
 42
1
  0
VERTEX
  8
GEN001_PHO
 10
19.51721
 20
16.33257
 30
0.0000
 42
1
  0
SEQEND
  0
POLYLINE
  8
GEN001_PHO
 66
1
 10
0.0000
 20
0.0000
 30
0.0000
 70
1
 40
0.0010
 41
0.0010
  0
VERTEX
  8
GEN001_PHO
 10
19.86478
 20
15.65113
 30
0.0000
 42
1
  0
VERTEX
  8
GEN001_PHO
 10
19.93564
 20
15.65113
 30
0.0000
 42
1
  0
SEQEND
  0
POLYLINE
  8
GEN001_PHO
 66
1
 10
0.0000
 20
0.0000
 30
0.0000
 40
0.0010
 41
0.0010
  0
VERTEX
  8
GEN001_PHO
 10
20.88484
 20
16.25929
 30
0.0000
  0
VERTEX
  8
GEN001_PHO
 10
20.90217
 20
16.25929
 30
0.0000
  0
SEQEND
  0
POLYLINE
  8
GEN001_PHO
 66
1
 10
0.0000
 20
0.0000
 30
0.0000
 40
0.0010
 41
0.0010
  0
VERTEX
  8
GEN001_PHO
 10
20.83563
 20
15.57032
 30
0.0000
  0
VERTEX
  8
GEN001_PHO
 10
20.72736
 20
15.57032
 30
0.0000
  0
SEQEND
  0
POLYLINE
  8
GEN001_PHO
 66
1
 10
0.0000
 20
0.0000
 30
0.0000
 40
0.0010
 41
0.0010
  0
VERTEX
  8
GEN001_PHO
 10
20.90846
 20
16.02307
 30
0.0000
  0
VERTEX
  8
GEN001_PHO
 10
20.90846
 20
16.25142
 30
0.0000
  0
SEQEND
  0
POLYLINE
  8
GEN001_PHO
 66
1
 10
0.0000
 20
0.0000
 30
0.0000
 40
0.0010
 41
0.0010
  0
VERTEX
  8
GEN001_PHO
 10
20.88484
 20
16.0152
 30
0.0000
  0
VERTEX
  8
GEN001_PHO
 10
20.90217
 20
16.0152
 30
0.0000
  0
SEQEND
  0
POLYLINE
  8
GEN001_PHO
 66
1
 10
0.0000
 20
0.0000
 30
0.0000
 40
0.0010
 41
0.0010
  0
VERTEX
  8
GEN001_PHO
 10
20.88484
 20
16.26559
 30
0.0000
  0
VERTEX
  8
GEN001_PHO
 10
20.88484
 20
16.0089
 30
0.0000
  0
SEQEND
  0
POLYLINE
  8
GEN001_PHO
 66
1
 10
0.0000
 20
0.0000
 30
0.0000
 40
0.0010
 41
0.0010
  0
VERTEX
  8
GEN001_PHO
 10
20.88484
 20
16.26559
 30
0.0000
  0
VERTEX
  8
GEN001_PHO
 10
20.69035
 20
16.26559
 30
0.0000
  0
VERTEX
  8
GEN001_PHO
 10
20.69035
 20
16.0089
 30
0.0000
  0
VERTEX
  8
GEN001_PHO
 10
20.88484
 20
16.0089
 30
0.0000
  0
SEQEND
  0
POLYLINE
  8
GEN001_PHO
 66
1
 10
0.0000
 20
0.0000
 30
0.0000
 40
0.0010
 41
0.0010
  0
VERTEX
  8
GEN001_PHO
 10
20.72736
 20
15.83803
 30
0.0000
  0
VERTEX
  8
GEN001_PHO
 10
20.83563
 20
15.83803
 30
0.0000
  0
SEQEND
  0
POLYLINE
  8
GEN001_PHO
 66
1
 10
0.0000
 20
0.0000
 30
0.0000
 40
0.0010
 41
0.0010
  0
VERTEX
  8
GEN001_PHO
 10
20.72736
 20
15.57032
 30
0.0000
  0
VERTEX
  8
GEN001_PHO
 10
20.72736
 20
15.83803
 30
0.0000
  0
SEQEND
  0
POLYLINE
  8
GEN001_PHO
 66
1
 10
0.0000
 20
0.0000
 30
0.0000
 40
0.0010
 41
0.0010
  0
VERTEX
  8
GEN001_PHO
 10
20.89862
 20
15.76082
 30
0.0000
  0
VERTEX
  8
GEN001_PHO
 10
20.89862
 20
15.70964
 30
0.0000
  0
SEQEND
  0
POLYLINE
  8
GEN001_PHO
 66
1
 10
0.0000
 20
0.0000
 30
0.0000
 40
0.0010
 41
0.0010
  0
VERTEX
  8
GEN001_PHO
 10
20.83563
 20
15.76082
 30
0.0000
  0
VERTEX
  8
GEN001_PHO
 10
20.89862
 20
15.76082
 30
0.0000
  0
SEQEND
  0
POLYLINE
  8
GEN001_PHO
 66
1
 10
0.0000
 20
0.0000
 30
0.0000
 40
0.0010
 41
0.0010
  0
VERTEX
  8
GEN001_PHO
 10
20.89862
 20
15.70964
 30
0.0000
  0
VERTEX
  8
GEN001_PHO
 10
20.83563
 20
15.70964
 30
0.0000
  0
SEQEND
  0
POLYLINE
  8
GEN001_PHO
 66
1
 10
0.0000
 20
0.0000
 30
0.0000
 40
0.0010
 41
0.0010
  0
VERTEX
  8
GEN001_PHO
 10
20.89862
 20
15.76126
 30
0.0000
  0
VERTEX
  8
GEN001_PHO
 10
20.89862
 20
15.71008
 30
0.0000
  0
VERTEX
  8
GEN001_PHO
 10
20.83563
 20
15.71008
 30
0.0000
  0
SEQEND
  0
POLYLINE
  8
GEN001_PHO
 66
1
 10
0.0000
 20
0.0000
 30
0.0000
 40
0.0010
 41
0.0010
  0
VERTEX
  8
GEN001_PHO
 10
20.83563
 20
15.76126
 30
0.0000
  0
VERTEX
  8
GEN001_PHO
 10
20.89862
 20
15.76126
 30
0.0000
  0
SEQEND
  0
POLYLINE
  8
GEN001_PHO
 66
1
 10
0.0000
 20
0.0000
 30
0.0000
 70
1
 40
0.0100
 41
0.0100
  0
VERTEX
  8
GEN001_PHO
 10
20.46891
 20
16.44324
 30
0.0000
 42
1
  0
VERTEX
  8
GEN001_PHO
 10
20.49187
 20
16.44324
 30
0.0000
 42
1
  0
SEQEND
  0
POLYLINE
  8
GEN001_PHO
 66
1
 10
0.0000
 20
0.0000
 30
0.0000
 40
0.0100
 41
0.0100
  0
VERTEX
  8
GEN001_PHO
 10
20.40755
 20
16.46687
 30
0.0000
 42
0.4142136
  0
VERTEX
  8
GEN001_PHO
 10
20.4292
 20
16.44324
 30
0.0000
 42
0.0000
  0
SEQEND
  0
POLYLINE
  8
GEN001_PHO
 66
1
 10
0.0000
 20
0.0000
 30
0.0000
 40
0.0100
 41
0.0100
  0
VERTEX
  8
GEN001_PHO
 10
20.40755
 20
16.46686
 30
0.0000
  0
VERTEX
  8
GEN001_PHO
 10
20.35834
 20
16.46686
 30
0.0000
  0
VERTEX
  8
GEN001_PHO
 10
20.35834
 20
16.21489
 30
0.0000
  0
VERTEX
  8
GEN001_PHO
 10
20.50204
 20
16.21489
 30
0.0000
  0
VERTEX
  8
GEN001_PHO
 10
20.50204
 20
16.46489
 30
0.0000
  0
VERTEX
  8
GEN001_PHO
 10
20.50007
 20
16.46686
 30
0.0000
  0
VERTEX
  8
GEN001_PHO
 10
20.44889
 20
16.46686
 30
0.0000
  0
SEQEND
  0
POLYLINE
  8
GEN001_PHO
 66
1
 10
0.0000
 20
0.0000
 30
0.0000
 40
0.0100
 41
0.0100
  0
VERTEX
  8
GEN001_PHO
 10
20.42921
 20
16.44324
 30
0.0000
 42
0.4142136
  0
VERTEX
  8
GEN001_PHO
 10
20.44889
 20
16.46686
 30
0.0000
 42
0.0000
  0
SEQEND
  0
POLYLINE
  8
GEN001_PHO
 66
1
 10
0.0000
 20
0.0000
 30
0.0000
 40
0.0100
 41
0.0100
  0
VERTEX
  8
GEN001_PHO
 10
20.41157
 20
16.08183
 30
0.0000
 42
1.0000
  0
VERTEX
  8
GEN001_PHO
 10
20.46157
 20
16.08183
 30
0.0000
 42
0.0000
  0
SEQEND
  0
POLYLINE
  8
GEN001_PHO
 66
1
 10
0.0000
 20
0.0000
 30
0.0000
 40
0.0100
 41
0.0100
  0
VERTEX
  8
GEN001_PHO
 10
20.51708
 20
15.84482
 30
0.0000
  0
VERTEX
  8
GEN001_PHO
 10
20.51708
 20
15.87042
 30
0.0000
  0
SEQEND
  0
POLYLINE
  8
GEN001_PHO
 66
1
 10
0.0000
 20
0.0000
 30
0.0000
 40
0.0100
 41
0.0100
  0
VERTEX
  8
GEN001_PHO
 10
20.35999
 20
16.05545
 30
0.0000
  0
VERTEX
  8
GEN001_PHO
 10
20.35999
 20
16.08104
 30
0.0000
  0
SEQEND
  0
POLYLINE
  8
GEN001_PHO
 66
1
 10
0.0000
 20
0.0000
 30
0.0000
 40
0.0100
 41
0.0100
  0
VERTEX
  8
GEN001_PHO
 10
20.51708
 20
16.05545
 30
0.0000
  0
VERTEX
  8
GEN001_PHO
 10
20.51708
 20
16.08104
 30
0.0000
  0
SEQEND
  0
POLYLINE
  8
GEN001_PHO
 66
1
 10
0.0000
 20
0.0000
 30
0.0000
 40
0.0100
 41
0.0100
  0
VERTEX
  8
GEN001_PHO
 10
20.3655
 20
15.84915
 30
0.0000
  0
VERTEX
  8
GEN001_PHO
 10
20.3655
 20
15.87475
 30
0.0000
  0
SEQEND
  0
POLYLINE
  8
GEN001_PHO
 66
1
 10
0.0000
 20
0.0000
 30
0.0000
 40
0.0100
 41
0.0100
  0
VERTEX
  8
GEN001_PHO
 10
20.16921
 20
15.57813
 30
0.0000
  0
VERTEX
  8
GEN001_PHO
 10
20.16921
 20
15.55313
 30
0.0000
  0
VERTEX
  8
GEN001_PHO
 10
20.11921
 20
15.55313
 30
0.0000
  0
SEQEND
  0
POLYLINE
  8
GEN001_PHO
 66
1
 10
0.0000
 20
0.0000
 30
0.0000
 40
0.0100
 41
0.0100
  0
VERTEX
  8
GEN001_PHO
 10
20.16921
 20
15.63813
 30
0.0000
  0
VERTEX
  8
GEN001_PHO
 10
20.16921
 20
15.66313
 30
0.0000
  0
VERTEX
  8
GEN001_PHO
 10
20.11921
 20
15.66313
 30
0.0000
  0
SEQEND
  0
POLYLINE
  8
GEN001_PHO
 66
1
 10
0.0000
 20
0.0000
 30
0.0000
 40
0.0100
 41
0.0100
  0
VERTEX
  8
GEN001_PHO
 10
20.07921
 20
15.60313
 30
0.0000
  0
VERTEX
  8
GEN001_PHO
 10
20.07921
 20
15.61313
 30
0.0000
  0
SEQEND
  0
POLYLINE
  8
GEN001_PHO
 66
1
 10
0.0000
 20
0.0000
 30
0.0000
 40
0.0100
 41
0.0100
  0
VERTEX
  8
GEN001_PHO
 10
20.1141
 20
15.53568
 30
0.0000
  0
VERTEX
  8
GEN001_PHO
 10
19.93694
 20
15.53568
 30
0.0000
  0
VERTEX
  8
GEN001_PHO
 10
19.93694
 20
15.39001
 30
0.0000
  0
VERTEX
  8
GEN001_PHO
 10
20.1141
 20
15.39001
 30
0.0000
  0
VERTEX
  8
GEN001_PHO
 10
20.1141
 20
15.53568
 30
0.0000
  0
SEQEND
  0
POLYLINE
  8
GEN001_PHO
 66
1
 10
0.0000
 20
0.0000
 30
0.0000
 40
0.0100
 41
0.0100
  0
VERTEX
  8
GEN001_PHO
 10
19.19721
 20
15.68113
 30
0.0000
  0
VERTEX
  8
GEN001_PHO
 10
19.17221
 20
15.68113
 30
0.0000
  0
VERTEX
  8
GEN001_PHO
 10
19.17221
 20
15.73113
 30
0.0000
  0
SEQEND
  0
POLYLINE
  8
GEN001_PHO
 66
1
 10
0.0000
 20
0.0000
 30
0.0000
 40
0.0100
 41
0.0100
  0
VERTEX
  8
GEN001_PHO
 10
19.25721
 20
15.68113
 30
0.0000
  0
VERTEX
  8
GEN001_PHO
 10
19.28221
 20
15.68113
 30
0.0000
  0
VERTEX
  8
GEN001_PHO
 10
19.28221
 20
15.73113
 30
0.0000
  0
SEQEND
  0
POLYLINE
  8
GEN001_PHO
 66
1
 10
0.0000
 20
0.0000
 30
0.0000
 40
0.0100
 41
0.0100
  0
VERTEX
  8
GEN001_PHO
 10
19.22221
 20
15.77113
 30
0.0000
  0
VERTEX
  8
GEN001_PHO
 10
19.23221
 20
15.77113
 30
0.0000
  0
SEQEND
  0
POLYLINE
  8
GEN001_PHO
 66
1
 10
0.0000
 20
0.0000
 30
0.0000
 40
0.0100
 41
0.0100
  0
VERTEX
  8
GEN001_PHO
 10
19.39021
 20
15.87913
 30
0.0000
  0
VERTEX
  8
GEN001_PHO
 10
19.41521
 20
15.87913
 30
0.0000
  0
VERTEX
  8
GEN001_PHO
 10
19.41521
 20
15.82913
 30
0.0000
  0
SEQEND
  0
POLYLINE
  8
GEN001_PHO
 66
1
 10
0.0000
 20
0.0000
 30
0.0000
 40
0.0100
 41
0.0100
  0
VERTEX
  8
GEN001_PHO
 10
19.33021
 20
15.87913
 30
0.0000
  0
VERTEX
  8
GEN001_PHO
 10
19.30521
 20
15.87913
 30
0.0000
  0
VERTEX
  8
GEN001_PHO
 10
19.30521
 20
15.82913
 30
0.0000
  0
SEQEND
  0
POLYLINE
  8
GEN001_PHO
 66
1
 10
0.0000
 20
0.0000
 30
0.0000
 40
0.0100
 41
0.0100
  0
VERTEX
  8
GEN001_PHO
 10
19.36521
 20
15.78913
 30
0.0000
  0
VERTEX
  8
GEN001_PHO
 10
19.35521
 20
15.78913
 30
0.0000
  0
SEQEND
  0
POLYLINE
  8
GEN001_PHO
 66
1
 10
0.0000
 20
0.0000
 30
0.0000
 40
0.0100
 41
0.0100
  0
VERTEX
  8
GEN001_PHO
 10
19.85267
 20
15.42771
 30
0.0000
  0
VERTEX
  8
GEN001_PHO
 10
19.64755
 20
15.42771
 30
0.0000
  0
VERTEX
  8
GEN001_PHO
 10
19.64755
 20
15.33637
 30
0.0000
  0
VERTEX
  8
GEN001_PHO
 10
19.85267
 20
15.33637
 30
0.0000
  0
VERTEX
  8
GEN001_PHO
 10
19.85267
 20
15.42771
 30
0.0000
  0
SEQEND
  0
POLYLINE
  8
GEN001_PHO
 66
1
 10
0.0000
 20
0.0000
 30
0.0000
 70
1
 40
0.0100
 41
0.0100
  0
VERTEX
  8
GEN001_PHO
 10
20.0170
 20
16.52712
 30
0.0000
 42
1
  0
VERTEX
  8
GEN001_PHO
 10
20.06616
 20
16.52712
 30
0.0000
 42
1
  0
SEQEND
  0
POLYLINE
  8
GEN001_PHO
 66
1
 10
0.0000
 20
0.0000
 30
0.0000
 40
0.0100
 41
0.0100
  0
VERTEX
  8
GEN001_PHO
 10
20.65423
 20
15.87896
 30
0.0000
  0
VERTEX
  8
GEN001_PHO
 10
20.65423
 20
15.5329
 30
0.0000
  0
VERTEX
  8
GEN001_PHO
 10
20.83533
 20
15.5329
 30
0.0000
  0
VERTEX
  8
GEN001_PHO
 10
20.83533
 20
15.87896
 30
0.0000
  0
VERTEX
  8
GEN001_PHO
 10
20.65423
 20
15.87896
 30
0.0000
  0
SEQEND
  0
POLYLINE
  8
GEN001_PHO
 66
1
 10
0.0000
 20
0.0000
 30
0.0000
 40
0.0100
 41
0.0100
  0
VERTEX
  8
GEN001_PHO
 10
20.83888
 20
15.7514
 30
0.0000
  0
VERTEX
  8
GEN001_PHO
 10
20.83888
 20
15.6140
 30
0.0000
  0
VERTEX
  8
GEN001_PHO
 10
20.90187
 20
15.6140
 30
0.0000
  0
VERTEX
  8
GEN001_PHO
 10
20.90187
 20
15.7514
 30
0.0000
  0
VERTEX
  8
GEN001_PHO
 10
20.83888
 20
15.7514
 30
0.0000
  0
SEQEND
  0
POLYLINE
  8
GEN001_PHO
 66
1
 10
0.0000
 20
0.0000
 30
0.0000
 40
0.0100
 41
0.0100
  0
VERTEX
  8
GEN001_PHO
 10
20.41214
 20
15.45193
 30
0.0000
  0
VERTEX
  8
GEN001_PHO
 10
20.38262
 20
15.4224
 30
0.0000
  0
VERTEX
  8
GEN001_PHO
 10
20.35388
 20
15.45114
 30
0.0000
  0
VERTEX
  8
GEN001_PHO
 10
20.41214
 20
15.45114
 30
0.0000
  0
VERTEX
  8
GEN001_PHO
 10
20.41214
 20
15.45193
 30
0.0000
  0
SEQEND
  0
POLYLINE
  8
GEN001_PHO
 66
1
 10
0.0000
 20
0.0000
 30
0.0000
 40
0.0100
 41
0.0100
  0
VERTEX
  8
GEN001_PHO
 10
20.29206
 20
15.40626
 30
0.0000
  0
VERTEX
  8
GEN001_PHO
 10
20.20742
 20
15.4909
 30
0.0000
  0
VERTEX
  8
GEN001_PHO
 10
20.20742
 20
15.78854
 30
0.0000
  0
VERTEX
  8
GEN001_PHO
 10
20.58025
 20
15.78854
 30
0.0000
  0
VERTEX
  8
GEN001_PHO
 10
20.58025
 20
15.40626
 30
0.0000
  0
VERTEX
  8
GEN001_PHO
 10
20.29206
 20
15.40626
 30
0.0000
  0
SEQEND
  0
POLYLINE
  8
GEN001_PHO
 66
1
 10
0.0000
 20
0.0000
 30
0.0000
 40
0.0120
 41
0.0120
  0
VERTEX
  8
GEN001_PHO
 10
19.2332
 20
16.02007
 30
0.0000
  0
VERTEX
  8
GEN001_PHO
 10
19.29198
 20
16.02007
 30
0.0000
  0
VERTEX
  8
GEN001_PHO
 10
19.29198
 20
15.99613
 30
0.0000
  0
SEQEND
  0
POLYLINE
  8
GEN001_PHO
 66
1
 10
0.0000
 20
0.0000
 30
0.0000
 40
0.0120
 41
0.0120
  0
VERTEX
  8
GEN001_PHO
 10
19.2332
 20
15.90113
 30
0.0000
  0
VERTEX
  8
GEN001_PHO
 10
19.29198
 20
15.90113
 30
0.0000
  0
VERTEX
  8
GEN001_PHO
 10
19.29198
 20
15.92113
 30
0.0000
  0
SEQEND
  0
POLYLINE
  8
GEN001_PHO
 66
1
 10
0.0000
 20
0.0000
 30
0.0000
 40
0.0120
 41
0.0120
  0
VERTEX
  8
GEN001_PHO
 10
19.1882
 20
15.9522
 30
0.0000
  0
VERTEX
  8
GEN001_PHO
 10
19.1882
 20
15.96901
 30
0.0000
  0
SEQEND
  0
POLYLINE
  8
GEN001_PHO
 66
1
 10
0.0000
 20
0.0000
 30
0.0000
 40
0.0120
 41
0.0120
  0
VERTEX
  8
GEN001_PHO
 10
19.47827
 20
15.96813
 30
0.0000
  0
VERTEX
  8
GEN001_PHO
 10
19.47827
 20
16.02691
 30
0.0000
  0
VERTEX
  8
GEN001_PHO
 10
19.5022
 20
16.02691
 30
0.0000
  0
SEQEND
  0
POLYLINE
  8
GEN001_PHO
 66
1
 10
0.0000
 20
0.0000
 30
0.0000
 40
0.0120
 41
0.0120
  0
VERTEX
  8
GEN001_PHO
 10
19.5972
 20
15.96813
 30
0.0000
  0
VERTEX
  8
GEN001_PHO
 10
19.5972
 20
16.02691
 30
0.0000
  0
VERTEX
  8
GEN001_PHO
 10
19.5772
 20
16.02691
 30
0.0000
  0
SEQEND
  0
POLYLINE
  8
GEN001_PHO
 66
1
 10
0.0000
 20
0.0000
 30
0.0000
 40
0.0120
 41
0.0120
  0
VERTEX
  8
GEN001_PHO
 10
19.54614
 20
15.92313
 30
0.0000
  0
VERTEX
  8
GEN001_PHO
 10
19.52933
 20
15.92313
 30
0.0000
  0
SEQEND
  0
POLYLINE
  8
GEN001_PHO
 66
1
 10
0.0000
 20
0.0000
 30
0.0000
 40
0.0070
 41
0.0070
  0
VERTEX
  8
GEN001_PHO
 10
19.66421
 20
15.82127
 30
0.0000
  0
VERTEX
  8
GEN001_PHO
 10
19.66421
 20
15.70721
 30
0.0000
  0
SEQEND
  0
POLYLINE
  8
GEN001_PHO
 66
1
 10
0.0000
 20
0.0000
 30
0.0000
 40
0.0070
 41
0.0070
  0
VERTEX
  8
GEN001_PHO
 10
19.66421
 20
15.70721
 30
0.0000
 42
0.4358262
  0
VERTEX
  8
GEN001_PHO
 10
19.72421
 20
15.70721
 30
0.0000
 42
0.0000
  0
SEQEND
  0
POLYLINE
  8
GEN001_PHO
 66
1
 10
0.0000
 20
0.0000
 30
0.0000
 40
0.0070
 41
0.0070
  0
VERTEX
  8
GEN001_PHO
 10
19.72421
 20
15.70721
 30
0.0000
  0
VERTEX
  8
GEN001_PHO
 10
19.72421
 20
15.82127
 30
0.0000
  0
SEQEND
  0
POLYLINE
  8
GEN001_PHO
 66
1
 10
0.0000
 20
0.0000
 30
0.0000
 40
0.0070
 41
0.0070
  0
VERTEX
  8
GEN001_PHO
 10
19.72421
 20
15.82127
 30
0.0000
 42
0.4286897
  0
VERTEX
  8
GEN001_PHO
 10
19.66421
 20
15.82127
 30
0.0000
 42
0.0000
  0
SEQEND
  0
POLYLINE
  8
GEN001_PHO
 66
1
 10
0.0000
 20
0.0000
 30
0.0000
 40
0.0070
 41
0.0070
  0
VERTEX
  8
GEN001_PHO
 10
19.90835
 20
15.51413
 30
0.0000
  0
VERTEX
  8
GEN001_PHO
 10
19.79428
 20
15.51413
 30
0.0000
  0
SEQEND
  0
POLYLINE
  8
GEN001_PHO
 66
1
 10
0.0000
 20
0.0000
 30
0.0000
 40
0.0070
 41
0.0070
  0
VERTEX
  8
GEN001_PHO
 10
19.79428
 20
15.51413
 30
0.0000
 42
0.4358262
  0
VERTEX
  8
GEN001_PHO
 10
19.79428
 20
15.45413
 30
0.0000
 42
0.0000
  0
SEQEND
  0
POLYLINE
  8
GEN001_PHO
 66
1
 10
0.0000
 20
0.0000
 30
0.0000
 40
0.0070
 41
0.0070
  0
VERTEX
  8
GEN001_PHO
 10
19.79428
 20
15.45413
 30
0.0000
  0
VERTEX
  8
GEN001_PHO
 10
19.90835
 20
15.45413
 30
0.0000
  0
SEQEND
  0
POLYLINE
  8
GEN001_PHO
 66
1
 10
0.0000
 20
0.0000
 30
0.0000
 40
0.0070
 41
0.0070
  0
VERTEX
  8
GEN001_PHO
 10
19.90835
 20
15.45413
 30
0.0000
 42
0.4285862
  0
VERTEX
  8
GEN001_PHO
 10
19.90835
 20
15.51413
 30
0.0000
 42
0.0000
  0
SEQEND
  0
POLYLINE
  8
GEN001_PHO
 66
1
 10
0.0000
 20
0.0000
 30
0.0000
 40
0.0070
 41
0.0070
  0
VERTEX
  8
GEN001_PHO
 10
19.33506
 20
15.99713
 30
0.0000
  0
VERTEX
  8
GEN001_PHO
 10
19.44913
 20
15.99713
 30
0.0000
  0
SEQEND
  0
POLYLINE
  8
GEN001_PHO
 66
1
 10
0.0000
 20
0.0000
 30
0.0000
 40
0.0070
 41
0.0070
  0
VERTEX
  8
GEN001_PHO
 10
19.44913
 20
15.99713
 30
0.0000
 42
0.4358262
  0
VERTEX
  8
GEN001_PHO
 10
19.44913
 20
16.05713
 30
0.0000
 42
0.0000
  0
SEQEND
  0
POLYLINE
  8
GEN001_PHO
 66
1
 10
0.0000
 20
0.0000
 30
0.0000
 40
0.0070
 41
0.0070
  0
VERTEX
  8
GEN001_PHO
 10
19.44913
 20
16.05713
 30
0.0000
  0
VERTEX
  8
GEN001_PHO
 10
19.33506
 20
16.05713
 30
0.0000
  0
SEQEND
  0
POLYLINE
  8
GEN001_PHO
 66
1
 10
0.0000
 20
0.0000
 30
0.0000
 40
0.0070
 41
0.0070
  0
VERTEX
  8
GEN001_PHO
 10
19.33506
 20
16.05713
 30
0.0000
 42
0.4285862
  0
VERTEX
  8
GEN001_PHO
 10
19.33506
 20
15.99713
 30
0.0000
 42
0.0000
  0
SEQEND
  0
POLYLINE
  8
GEN001_PHO
 66
1
 10
0.0000
 20
0.0000
 30
0.0000
 40
0.0070
 41
0.0070
  0
VERTEX
  8
GEN001_PHO
 10
19.39151
 20
16.26675
 30
0.0000
  0
VERTEX
  8
GEN001_PHO
 10
19.30151
 20
16.26675
 30
0.0000
  0
SEQEND
  0
POLYLINE
  8
GEN001_PHO
 66
1
 10
0.0000
 20
0.0000
 30
0.0000
 40
0.0070
 41
0.0070
  0
VERTEX
  8
GEN001_PHO
 10
19.30151
 20
16.31675
 30
0.0000
 42
0.4000
  0
VERTEX
  8
GEN001_PHO
 10
19.30151
 20
16.26675
 30
0.0000
 42
0.0000
  0
SEQEND
  0
POLYLINE
  8
GEN001_PHO
 66
1
 10
0.0000
 20
0.0000
 30
0.0000
 40
0.0070
 41
0.0070
  0
VERTEX
  8
GEN001_PHO
 10
19.30151
 20
16.31675
 30
0.0000
  0
VERTEX
  8
GEN001_PHO
 10
19.39151
 20
16.31675
 30
0.0000
  0
SEQEND
  0
POLYLINE
  8
GEN001_PHO
 66
1
 10
0.0000
 20
0.0000
 30
0.0000
 40
0.0070
 41
0.0070
  0
VERTEX
  8
GEN001_PHO
 10
19.39151
 20
16.26675
 30
0.0000
 42
0.4142136
  0
VERTEX
  8
GEN001_PHO
 10
19.39151
 20
16.31675
 30
0.0000
 42
0.0000
  0
SEQEND
  0
POLYLINE
  8
GEN001_PHO
 66
1
 10
0.0000
 20
0.0000
 30
0.0000
 40
0.0070
 41
0.0070
  0
VERTEX
  8
GEN001_PHO
 10
19.53321
 20
15.76199
 30
0.0000
  0
VERTEX
  8
GEN001_PHO
 10
19.53321
 20
15.87606
 30
0.0000
  0
SEQEND
  0
POLYLINE
  8
GEN001_PHO
 66
1
 10
0.0000
 20
0.0000
 30
0.0000
 40
0.0070
 41
0.0070
  0
VERTEX
  8
GEN001_PHO
 10
19.53321
 20
15.87606
 30
0.0000
 42
0.4358262
  0
VERTEX
  8
GEN001_PHO
 10
19.47321
 20
15.87606
 30
0.0000
 42
0.0000
  0
SEQEND
  0
POLYLINE
  8
GEN001_PHO
 66
1
 10
0.0000
 20
0.0000
 30
0.0000
 40
0.0070
 41
0.0070
  0
VERTEX
  8
GEN001_PHO
 10
19.47321
 20
15.87606
 30
0.0000
  0
VERTEX
  8
GEN001_PHO
 10
19.47321
 20
15.76199
 30
0.0000
  0
SEQEND
  0
POLYLINE
  8
GEN001_PHO
 66
1
 10
0.0000
 20
0.0000
 30
0.0000
 40
0.0070
 41
0.0070
  0
VERTEX
  8
GEN001_PHO
 10
19.47321
 20
15.76199
 30
0.0000
 42
0.4285862
  0
VERTEX
  8
GEN001_PHO
 10
19.53321
 20
15.76199
 30
0.0000
 42
0.0000
  0
SEQEND
  0
POLYLINE
  8
GEN001_PHO
 66
1
 10
0.0000
 20
0.0000
 30
0.0000
 40
0.0070
 41
0.0070
  0
VERTEX
  8
GEN001_PHO
 10
19.53021
 20
16.08599
 30
0.0000
  0
VERTEX
  8
GEN001_PHO
 10
19.53021
 20
16.20006
 30
0.0000
  0
SEQEND
  0
POLYLINE
  8
GEN001_PHO
 66
1
 10
0.0000
 20
0.0000
 30
0.0000
 40
0.0070
 41
0.0070
  0
VERTEX
  8
GEN001_PHO
 10
19.53021
 20
16.20006
 30
0.0000
 42
0.4358262
  0
VERTEX
  8
GEN001_PHO
 10
19.47021
 20
16.20006
 30
0.0000
 42
0.0000
  0
SEQEND
  0
POLYLINE
  8
GEN001_PHO
 66
1
 10
0.0000
 20
0.0000
 30
0.0000
 40
0.0070
 41
0.0070
  0
VERTEX
  8
GEN001_PHO
 10
19.47021
 20
16.20006
 30
0.0000
  0
VERTEX
  8
GEN001_PHO
 10
19.47021
 20
16.08599
 30
0.0000
  0
SEQEND
  0
POLYLINE
  8
GEN001_PHO
 66
1
 10
0.0000
 20
0.0000
 30
0.0000
 40
0.0070
 41
0.0070
  0
VERTEX
  8
GEN001_PHO
 10
19.47021
 20
16.08599
 30
0.0000
 42
0.4285862
  0
VERTEX
  8
GEN001_PHO
 10
19.53021
 20
16.08599
 30
0.0000
 42
0.0000
  0
SEQEND
  0
POLYLINE
  8
GEN001_PHO
 66
1
 10
0.0000
 20
0.0000
 30
0.0000
 40
0.00591
 41
0.00591
  0
VERTEX
  8
GEN001_PHO
 10
19.73765
 20
15.84624
 30
0.0000
  0
VERTEX
  8
GEN001_PHO
 10
19.73765
 20
15.68836
 30
0.0000
  0
VERTEX
  8
GEN001_PHO
 10
19.7485
 20
15.68836
 30
0.0000
  0
VERTEX
  8
GEN001_PHO
 10
19.79276
 20
15.68836
 30
0.0000
  0
VERTEX
  8
GEN001_PHO
 10
19.79276
 20
15.84624
 30
0.0000
  0
VERTEX
  8
GEN001_PHO
 10
19.73765
 20
15.84624
 30
0.0000
  0
SEQEND
  0
POLYLINE
  8
GEN001_PHO
 66
1
 10
0.0000
 20
0.0000
 30
0.0000
 40
0.00591
 41
0.00591
  0
VERTEX
  8
GEN001_PHO
 10
19.20676
 20
16.12102
 30
0.0000
  0
VERTEX
  8
GEN001_PHO
 10
19.20676
 20
16.2789
 30
0.0000
  0
VERTEX
  8
GEN001_PHO
 10
19.19591
 20
16.2789
 30
0.0000
  0
VERTEX
  8
GEN001_PHO
 10
19.15165
 20
16.2789
 30
0.0000
  0
VERTEX
  8
GEN001_PHO
 10
19.15165
 20
16.12102
 30
0.0000
  0
VERTEX
  8
GEN001_PHO
 10
19.20676
 20
16.12102
 30
0.0000
  0
SEQEND
  0
POLYLINE
  8
GEN001_PHO
 66
1
 10
0.0000
 20
0.0000
 30
0.0000
 40
0.00394
 41
0.00394
  0
VERTEX
  8
GEN001_PHO
 10
19.75521
 20
15.66813
 30
0.0000
  0
VERTEX
  8
GEN001_PHO
 10
19.70521
 20
15.66813
 30
0.0000
  0
VERTEX
  8
GEN001_PHO
 10
19.70521
 20
15.53813
 30
0.0000
  0
VERTEX
  8
GEN001_PHO
 10
19.75521
 20
15.53813
 30
0.0000
  0
VERTEX
  8
GEN001_PHO
 10
19.75521
 20
15.66813
 30
0.0000
  0
SEQEND
  0
POLYLINE
  8
GEN001_PHO
 66
1
 10
0.0000
 20
0.0000
 30
0.0000
 40
0.00394
 41
0.00394
  0
VERTEX
  8
GEN001_PHO
 10
19.40621
 20
16.16013
 30
0.0000
  0
VERTEX
  8
GEN001_PHO
 10
19.40621
 20
16.21013
 30
0.0000
  0
VERTEX
  8
GEN001_PHO
 10
19.27621
 20
16.21013
 30
0.0000
  0
VERTEX
  8
GEN001_PHO
 10
19.27621
 20
16.16013
 30
0.0000
  0
VERTEX
  8
GEN001_PHO
 10
19.40621
 20
16.16013
 30
0.0000
  0
SEQEND
  0
POLYLINE
  8
GEN001_PHO
 66
1
 10
0.0000
 20
0.0000
 30
0.0000
 70
1
 40
0.00394
 41
0.00394
  0
VERTEX
  8
GEN001_PHO
 10
20.74438
 20
15.7636
 30
0.0000
 42
1
  0
VERTEX
  8
GEN001_PHO
 10
20.77982
 20
15.7636
 30
0.0000
 42
1
  0
SEQEND
  0
POLYLINE
  8
GEN001_PHO
 66
1
 10
0.0000
 20
0.0000
 30
0.0000
 70
1
 40
0.00394
 41
0.00394
  0
VERTEX
  8
GEN001_PHO
 10
20.74438
 20
15.64549
 30
0.0000
 42
1
  0
VERTEX
  8
GEN001_PHO
 10
20.77982
 20
15.64549
 30
0.0000
 42
1
  0
SEQEND
  0
POLYLINE
  8
GEN001_PHO
 66
1
 10
0.0000
 20
0.0000
 30
0.0000
 40
0.04409
 41
0.04409
  0
VERTEX
  8
GEN001_PHO
 10
20.66897
 20
16.03653
 30
0.0000
  0
VERTEX
  8
GEN001_PHO
 10
20.66897
 20
16.04755
 30
0.0000
  0
VERTEX
  8
GEN001_PHO
 10
20.67999
 20
16.04755
 30
0.0000
  0
VERTEX
  8
GEN001_PHO
 10
20.67999
 20
16.03653
 30
0.0000
  0
VERTEX
  8
GEN001_PHO
 10
20.66897
 20
16.03653
 30
0.0000
  0
SEQEND
  0
POLYLINE
  8
GEN001_PHO
 66
1
 10
0.0000
 20
0.0000
 30
0.0000
 40
0.04409
 41
0.04409
  0
VERTEX
  8
GEN001_PHO
 10
20.66897
 20
16.04127
 30
0.0000
  0
VERTEX
  8
GEN001_PHO
 10
20.67999
 20
16.04127
 30
0.0000
  0
SEQEND
  0
POLYLINE
  8
GEN001_PHO
 66
1
 10
0.0000
 20
0.0000
 30
0.0000
 40
0.04409
 41
0.04409
  0
VERTEX
  8
GEN001_PHO
 10
20.67461
 20
16.03653
 30
0.0000
  0
VERTEX
  8
GEN001_PHO
 10
20.67461
 20
16.04755
 30
0.0000
  0
SEQEND
  0
POLYLINE
  8
GEN001_PHO
 66
1
 10
0.0000
 20
0.0000
 30
0.0000
 40
0.04409
 41
0.04409
  0
VERTEX
  8
GEN001_PHO
 10
20.66897
 20
16.22747
 30
0.0000
  0
VERTEX
  8
GEN001_PHO
 10
20.66897
 20
16.23849
 30
0.0000
  0
VERTEX
  8
GEN001_PHO
 10
20.67999
 20
16.23849
 30
0.0000
  0
VERTEX
  8
GEN001_PHO
 10
20.67999
 20
16.22747
 30
0.0000
  0
VERTEX
  8
GEN001_PHO
 10
20.66897
 20
16.22747
 30
0.0000
  0
SEQEND
  0
POLYLINE
  8
GEN001_PHO
 66
1
 10
0.0000
 20
0.0000
 30
0.0000
 40
0.04409
 41
0.04409
  0
VERTEX
  8
GEN001_PHO
 10
20.67461
 20
16.22747
 30
0.0000
  0
VERTEX
  8
GEN001_PHO
 10
20.67461
 20
16.23849
 30
0.0000
  0
SEQEND
  0
POLYLINE
  8
GEN001_PHO
 66
1
 10
0.0000
 20
0.0000
 30
0.0000
 40
0.02835
 41
0.02835
  0
VERTEX
  8
GEN001_PHO
 10
20.76739
 20
15.98613
 30
0.0000
  0
VERTEX
  8
GEN001_PHO
 10
20.76739
 20
16.00503
 30
0.0000
  0
VERTEX
  8
GEN001_PHO
 10
20.80991
 20
16.00503
 30
0.0000
  0
VERTEX
  8
GEN001_PHO
 10
20.80991
 20
15.98613
 30
0.0000
  0
VERTEX
  8
GEN001_PHO
 10
20.76739
 20
15.98613
 30
0.0000
  0
SEQEND
  0
POLYLINE
  8
GEN001_PHO
 66
1
 10
0.0000
 20
0.0000
 30
0.0000
 40
0.02835
 41
0.02835
  0
VERTEX
  8
GEN001_PHO
 10
20.76739
 20
15.99402
 30
0.0000
  0
VERTEX
  8
GEN001_PHO
 10
20.80991
 20
15.99402
 30
0.0000
  0
SEQEND
  0
POLYLINE
  8
GEN001_PHO
 66
1
 10
0.0000
 20
0.0000
 30
0.0000
 40
0.02835
 41
0.02835
  0
VERTEX
  8
GEN001_PHO
 10
20.78799
 20
15.98613
 30
0.0000
  0
VERTEX
  8
GEN001_PHO
 10
20.78799
 20
16.00503
 30
0.0000
  0
SEQEND
  0
POLYLINE
  8
GEN001_PHO
 66
1
 10
0.0000
 20
0.0000
 30
0.0000
 40
0.02835
 41
0.02835
  0
VERTEX
  8
GEN001_PHO
 10
20.76739
 20
16.2696
 30
0.0000
  0
VERTEX
  8
GEN001_PHO
 10
20.76739
 20
16.28849
 30
0.0000
  0
VERTEX
  8
GEN001_PHO
 10
20.80991
 20
16.28849
 30
0.0000
  0
VERTEX
  8
GEN001_PHO
 10
20.80991
 20
16.2696
 30
0.0000
  0
VERTEX
  8
GEN001_PHO
 10
20.76739
 20
16.2696
 30
0.0000
  0
SEQEND
  0
POLYLINE
  8
GEN001_PHO
 66
1
 10
0.0000
 20
0.0000
 30
0.0000
 40
0.02835
 41
0.02835
  0
VERTEX
  8
GEN001_PHO
 10
20.76739
 20
16.27749
 30
0.0000
  0
VERTEX
  8
GEN001_PHO
 10
20.80991
 20
16.27749
 30
0.0000
  0
SEQEND
  0
POLYLINE
  8
GEN001_PHO
 66
1
 10
0.0000
 20
0.0000
 30
0.0000
 40
0.02835
 41
0.02835
  0
VERTEX
  8
GEN001_PHO
 10
20.78799
 20
16.2696
 30
0.0000
  0
VERTEX
  8
GEN001_PHO
 10
20.78799
 20
16.28849
 30
0.0000
  0
SEQEND
  0
POLYLINE
  8
GEN001_PHO
 66
1
 10
0.0000
 20
0.0000
 30
0.0000
 40
0.00787
 41
0.00787
  0
VERTEX
  8
GEN001_PHO
 10
20.32435
 20
15.65232
 30
0.0000
  0
VERTEX
  8
GEN001_PHO
 10
20.32435
 20
15.68579
 30
0.0000
  0
SEQEND
  0
POLYLINE
  8
GEN001_PHO
 66
1
 10
0.0000
 20
0.0000
 30
0.0000
 40
0.00787
 41
0.00787
  0
VERTEX
  8
GEN001_PHO
 10
20.30663
 20
15.67004
 30
0.0000
  0
VERTEX
  8
GEN001_PHO
 10
20.3401
 20
15.67004
 30
0.0000
  0
SEQEND
  0
POLYLINE
  8
GEN001_PHO
 66
1
 10
0.0000
 20
0.0000
 30
0.0000
 70
1
 40
0.00787
 41
0.00787
  0
VERTEX
  8
GEN001_PHO
 10
20.29642
 20
15.66925
 30
0.0000
 42
1
  0
VERTEX
  8
GEN001_PHO
 10
20.3570
 20
15.66925
 30
0.0000
 42
1
  0
SEQEND
  0
POLYLINE
  8
GEN001_PHO
 66
1
 10
0.0000
 20
0.0000
 30
0.0000
 40
0.0098
 41
0.0098
  0
VERTEX
  8
GEN001_PHO
 10
20.41314
 20
16.08341
 30
0.0000
  0
VERTEX
  8
GEN001_PHO
 10
20.36235
 20
16.08341
 30
0.0000
  0
SEQEND
  0
POLYLINE
  8
GEN001_PHO
 66
1
 10
0.0000
 20
0.0000
 30
0.0000
 40
0.0098
 41
0.0098
  0
VERTEX
  8
GEN001_PHO
 10
20.51865
 20
16.08104
 30
0.0000
  0
VERTEX
  8
GEN001_PHO
 10
20.46235
 20
16.08104
 30
0.0000
  0
SEQEND
  0
POLYLINE
  8
GEN001_PHO
 66
1
 10
0.0000
 20
0.0000
 30
0.0000
 40
0.0098
 41
0.0098
  0
VERTEX
  8
GEN001_PHO
 10
20.5159
 20
15.84679
 30
0.0000
  0
VERTEX
  8
GEN001_PHO
 10
20.3655
 20
15.84679
 30
0.0000
  0
SEQEND
  0
ENDSEC
  0
EOF
