  0
SECTION
  2
HEADER
  9
$ACADVER
  1
AC1015
  9
$ACADMAINTVER
 70
    20
  9
$DWGCODEPAGE
  3
ANSI_936
  9
$INSBASE
 10
0.0
 20
0.0
 30
0.0
  9
$EXTMIN
 10
16.67077043036887
 20
5.316529277785889
 30
0.0
  9
$EXTMAX
 10
62.82077043036888
 20
36.1684722746067
 30
0.0
  9
$LIMMIN
 10
0.0
 20
0.0
  9
$LIMMAX
 10
420.0
 20
297.0
  9
$ORTHOMODE
 70
     0
  9
$REGENMODE
 70
     1
  9
$FILLMODE
 70
     1
  9
$QTEXTMODE
 70
     0
  9
$MIRRTEXT
 70
     0
  9
$LTSCALE
 40
1.0
  9
$ATTMODE
 70
     1
  9
$TEXTSIZE
 40
2.5
  9
$TRACEWID
 40
1.0
  9
$TEXTSTYLE
  7
Standard
  9
$CLAYER
  8
0
  9
$CELTYPE
  6
ByLayer
  9
$CECOLOR
 62
   256
  9
$CELTSCALE
 40
1.0
  9
$DISPSILH
 70
     0
  9
$DIMSCALE
 40
1.0
  9
$DIMASZ
 40
2.5
  9
$DIMEXO
 40
0.625
  9
$DIMDLI
 40
3.75
  9
$DIMRND
 40
0.0
  9
$DIMDLE
 40
0.0
  9
$DIMEXE
 40
1.25
  9
$DIMTP
 40
0.0
  9
$DIMTM
 40
0.0
  9
$DIMTXT
 40
2.5
  9
$DIMCEN
 40
2.5
  9
$DIMTSZ
 40
0.0
  9
$DIMTOL
 70
     0
  9
$DIMLIM
 70
     0
  9
$DIMTIH
 70
     0
  9
$DIMTOH
 70
     0
  9
$DIMSE1
 70
     0
  9
$DIMSE2
 70
     0
  9
$DIMTAD
 70
     1
  9
$DIMZIN
 70
     8
  9
$DIMBLK
  1

  9
$DIMASO
 70
     1
  9
$DIMSHO
 70
     1
  9
$DIMPOST
  1

  9
$DIMAPOST
  1

  9
$DIMALT
 70
     0
  9
$DIMALTD
 70
     3
  9
$DIMALTF
 40
0.03937007874016
  9
$DIMLFAC
 40
1.0
  9
$DIMTOFL
 70
     1
  9
$DIMTVP
 40
0.0
  9
$DIMTIX
 70
     0
  9
$DIMSOXD
 70
     0
  9
$DIMSAH
 70
     0
  9
$DIMBLK1
  1

  9
$DIMBLK2
  1

  9
$DIMSTYLE
  2
ISO-25
  9
$DIMCLRD
 70
     0
  9
$DIMCLRE
 70
     0
  9
$DIMCLRT
 70
     0
  9
$DIMTFAC
 40
1.0
  9
$DIMGAP
 40
0.625
  9
$DIMJUST
 70
     0
  9
$DIMSD1
 70
     0
  9
$DIMSD2
 70
     0
  9
$DIMTOLJ
 70
     0
  9
$DIMTZIN
 70
     8
  9
$DIMALTZ
 70
     0
  9
$DIMALTTZ
 70
     0
  9
$DIMUPT
 70
     0
  9
$DIMDEC
 70
     2
  9
$DIMTDEC
 70
     2
  9
$DIMALTU
 70
     2
  9
$DIMALTTD
 70
     3
  9
$DIMTXSTY
  7
Standard
  9
$DIMAUNIT
 70
     0
  9
$DIMADEC
 70
     0
  9
$DIMALTRND
 40
0.0
  9
$DIMAZIN
 70
     0
  9
$DIMDSEP
 70
    46
  9
$DIMATFIT
 70
     3
  9
$DIMFRAC
 70
     0
  9
$DIMLDRBLK
  1

  9
$DIMLUNIT
 70
     2
  9
$DIMLWD
 70
    -2
  9
$DIMLWE
 70
    -2
  9
$DIMTMOVE
 70
     0
  9
$LUNITS
 70
     2
  9
$LUPREC
 70
     4
  9
$SKETCHINC
 40
1.0
  9
$FILLETRAD
 40
0.0
  9
$AUNITS
 70
     0
  9
$AUPREC
 70
     0
  9
$MENU
  1
.
  9
$ELEVATION
 40
0.0
  9
$PELEVATION
 40
0.0
  9
$THICKNESS
 40
0.0
  9
$LIMCHECK
 70
     0
  9
$CHAMFERA
 40
0.0
  9
$CHAMFERB
 40
0.0
  9
$CHAMFERC
 40
0.0
  9
$CHAMFERD
 40
0.0
  9
$SKPOLY
 70
     0
  9
$TDCREATE
 40
2457199.642974699
  9
$TDUCREATE
 40
2457199.309641366
  9
$TDUPDATE
 40
2457199.761076783
  9
$TDUUPDATE
 40
2457199.427743449
  9
$TDINDWG
 40
0.0600967940
  9
$TDUSRTIMER
 40
0.0600957986
  9
$USRTIMER
 70
     1
  9
$ANGBASE
 50
0.0
  9
$ANGDIR
 70
     0
  9
$PDMODE
 70
     0
  9
$PDSIZE
 40
0.0
  9
$PLINEWID
 40
0.0
  9
$SPLFRAME
 70
     0
  9
$SPLINETYPE
 70
     6
  9
$SPLINESEGS
 70
     8
  9
$HANDSEED
  5
46E
  9
$SURFTAB1
 70
     6
  9
$SURFTAB2
 70
     6
  9
$SURFTYPE
 70
     6
  9
$SURFU
 70
     6
  9
$SURFV
 70
     6
  9
$UCSBASE
  2

  9
$UCSNAME
  2

  9
$UCSORG
 10
0.0
 20
0.0
 30
0.0
  9
$UCSXDIR
 10
1.0
 20
0.0
 30
0.0
  9
$UCSYDIR
 10
0.0
 20
1.0
 30
0.0
  9
$UCSORTHOREF
  2

  9
$UCSORTHOVIEW
 70
     0
  9
$UCSORGTOP
 10
0.0
 20
0.0
 30
0.0
  9
$UCSORGBOTTOM
 10
0.0
 20
0.0
 30
0.0
  9
$UCSORGLEFT
 10
0.0
 20
0.0
 30
0.0
  9
$UCSORGRIGHT
 10
0.0
 20
0.0
 30
0.0
  9
$UCSORGFRONT
 10
0.0
 20
0.0
 30
0.0
  9
$UCSORGBACK
 10
0.0
 20
0.0
 30
0.0
  9
$PUCSBASE
  2

  9
$PUCSNAME
  2

  9
$PUCSORG
 10
0.0
 20
0.0
 30
0.0
  9
$PUCSXDIR
 10
1.0
 20
0.0
 30
0.0
  9
$PUCSYDIR
 10
0.0
 20
1.0
 30
0.0
  9
$PUCSORTHOREF
  2

  9
$PUCSORTHOVIEW
 70
     0
  9
$PUCSORGTOP
 10
0.0
 20
0.0
 30
0.0
  9
$PUCSORGBOTTOM
 10
0.0
 20
0.0
 30
0.0
  9
$PUCSORGLEFT
 10
0.0
 20
0.0
 30
0.0
  9
$PUCSORGRIGHT
 10
0.0
 20
0.0
 30
0.0
  9
$PUCSORGFRONT
 10
0.0
 20
0.0
 30
0.0
  9
$PUCSORGBACK
 10
0.0
 20
0.0
 30
0.0
  9
$USERI1
 70
     0
  9
$USERI2
 70
     0
  9
$USERI3
 70
     0
  9
$USERI4
 70
     0
  9
$USERI5
 70
     0
  9
$USERR1
 40
0.0
  9
$USERR2
 40
0.0
  9
$USERR3
 40
0.0
  9
$USERR4
 40
0.0
  9
$USERR5
 40
0.0
  9
$WORLDVIEW
 70
     1
  9
$SHADEDGE
 70
     3
  9
$SHADEDIF
 70
    70
  9
$TILEMODE
 70
     1
  9
$MAXACTVP
 70
    64
  9
$PINSBASE
 10
0.0
 20
0.0
 30
0.0
  9
$PLIMCHECK
 70
     0
  9
$PEXTMIN
 10
1.000000000000000E+20
 20
1.000000000000000E+20
 30
1.000000000000000E+20
  9
$PEXTMAX
 10
-1.000000000000000E+20
 20
-1.000000000000000E+20
 30
-1.000000000000000E+20
  9
$PLIMMIN
 10
0.0
 20
0.0
  9
$PLIMMAX
 10
420.0
 20
297.0
  9
$UNITMODE
 70
     0
  9
$VISRETAIN
 70
     1
  9
$PLINEGEN
 70
     0
  9
$PSLTSCALE
 70
     1
  9
$TREEDEPTH
 70
  3020
  9
$CMLSTYLE
  2
Standard
  9
$CMLJUST
 70
     0
  9
$CMLSCALE
 40
20.0
  9
$PROXYGRAPHICS
 70
     1
  9
$MEASUREMENT
 70
     1
  9
$CELWEIGHT
370
    -1
  9
$ENDCAPS
280
     0
  9
$JOINSTYLE
280
     0
  9
$LWDISPLAY
290
     0
  9
$INSUNITS
 70
     4
  9
$HYPERLINKBASE
  1

  9
$STYLESHEET
  1

  9
$XEDIT
290
     1
  9
$CEPSNTYPE
380
     0
  9
$PSTYLEMODE
290
     1
  9
$FINGERPRINTGUID
  2
{8B3E3677-E6A4-47B5-B288-C8D108727AA8}
  9
$VERSIONGUID
  2
{DF28022A-6D8D-4C0C-8575-2EA1B9686394}
  9
$EXTNAMES
290
     1
  9
$PSVPSCALE
 40
0.0
  9
$OLESTARTUP
290
     0
  0
ENDSEC
  0
SECTION
  2
CLASSES
  0
CLASS
  1
ACDBDICTIONARYWDFLT
  2
AcDbDictionaryWithDefault
  3
ObjectDBX Classes
 90
        0
280
     0
281
     0
  0
CLASS
  1
MATERIAL
  2
AcDbMaterial
  3
ObjectDBX Classes
 90
     1024
280
     0
281
     0
  0
CLASS
  1
VISUALSTYLE
  2
AcDbVisualStyle
  3
ObjectDBX Classes
 90
     4095
280
     0
281
     0
  0
CLASS
  1
TABLESTYLE
  2
AcDbTableStyle
  3
ObjectDBX Classes
 90
     4095
280
     0
281
     0
  0
CLASS
  1
DICTIONARYVAR
  2
AcDbDictionaryVar
  3
ObjectDBX Classes
 90
        0
280
     0
281
     0
  0
CLASS
  1
ACDBPLACEHOLDER
  2
AcDbPlaceHolder
  3
ObjectDBX Classes
 90
        0
280
     0
281
     0
  0
CLASS
  1
LAYOUT
  2
AcDbLayout
  3
ObjectDBX Classes
 90
        0
280
     0
281
     0
  0
CLASS
  1
DIMASSOC
  2
AcDbDimAssoc
  3
"AcDbDimAssoc|Product Desc:     AcDim ARX App For Dimension|Company:          Autodesk, Inc.|WEB Address:      www.autodesk.com"
 90
    32768
280
     0
281
     0
  0
CLASS
  1
SORTENTSTABLE
  2
AcDbSortentsTable
  3
ObjectDBX Classes
 90
        0
280
     0
281
     0
  0
ENDSEC
  0
SECTION
  2
TABLES
  0
TABLE
  2
VPORT
  5
8
330
0
100
AcDbSymbolTable
 70
     1
  0
VPORT
  5
28
330
8
100
AcDbSymbolTableRecord
100
AcDbViewportTableRecord
  2
*Active
 70
     0
 10
0.0
 20
0.0
 11
1.0
 21
1.0
 12
49.43546125622333
 22
38.38362584231128
 13
0.0
 23
0.0
 14
10.0
 24
10.0
 15
10.0
 25
10.0
 16
0.0
 26
0.0
 36
1.0
 17
0.0
 27
0.0
 37
0.0
 40
88.96559217581964
 41
1.866141732283464
 42
50.0
 43
0.0
 44
0.0
 50
0.0
 51
0.0
 71
     0
 72
  1000
 73
     1
 74
     3
 75
     0
 76
     0
 77
     0
 78
     0
281
     0
 65
     1
110
0.0
120
0.0
130
0.0
111
1.0
121
0.0
131
0.0
112
0.0
122
1.0
132
0.0
 79
     0
146
0.0
  0
ENDTAB
  0
TABLE
  2
LTYPE
  5
5
330
0
100
AcDbSymbolTable
 70
     1
  0
LTYPE
  5
29
330
5
100
AcDbSymbolTableRecord
100
AcDbLinetypeTableRecord
  2
ByBlock
 70
     0
  3

 72
    65
 73
     0
 40
0.0
  0
LTYPE
  5
2A
330
5
100
AcDbSymbolTableRecord
100
AcDbLinetypeTableRecord
  2
ByLayer
 70
     0
  3

 72
    65
 73
     0
 40
0.0
  0
LTYPE
  5
2B
330
5
100
AcDbSymbolTableRecord
100
AcDbLinetypeTableRecord
  2
Continuous
 70
     0
  3
Solid line
 72
    65
 73
     0
 40
0.0
  0
ENDTAB
  0
TABLE
  2
LAYER
  5
2
330
0
100
AcDbSymbolTable
 70
     2
  0
LAYER
  5
25
330
2
100
AcDbSymbolTableRecord
100
AcDbLayerTableRecord
  2
0
 70
     0
 62
     7
  6
Continuous
370
    -3
390
F
  0
LAYER
  5
40B
330
2
100
AcDbSymbolTableRecord
100
AcDbLayerTableRecord
  2
Defpoints
 70
     0
 62
     7
  6
Continuous
290
     0
370
    -3
390
F
  0
ENDTAB
  0
TABLE
  2
STYLE
  5
3
330
0
100
AcDbSymbolTable
 70
     1
  0
STYLE
  5
26
330
3
100
AcDbSymbolTableRecord
100
AcDbTextStyleTableRecord
  2
Standard
 70
     0
 40
0.0
 41
1.0
 50
0.0
 71
     0
 42
2.5
  3
txt
  4

  0
ENDTAB
  0
TABLE
  2
VIEW
  5
6
330
0
100
AcDbSymbolTable
 70
     0
  0
ENDTAB
  0
TABLE
  2
UCS
  5
7
330
0
100
AcDbSymbolTable
 70
     0
  0
ENDTAB
  0
TABLE
  2
APPID
  5
9
330
0
100
AcDbSymbolTable
 70
     2
  0
APPID
  5
27
330
9
100
AcDbSymbolTableRecord
100
AcDbRegAppTableRecord
  2
ACAD
 70
     0
  0
APPID
  5
1D9
330
9
100
AcDbSymbolTableRecord
100
AcDbRegAppTableRecord
  2
ACAD_DSTYLE_DIMJOGGED_JOGANGLE_SYMBOL
 70
     0
  0
ENDTAB
  0
TABLE
  2
DIMSTYLE
  5
A
330
0
100
AcDbSymbolTable
 70
     2
100
AcDbDimStyleTable
 71
     1
340
3F
  0
DIMSTYLE
105
3F
330
A
100
AcDbSymbolTableRecord
100
AcDbDimStyleTableRecord
  2
ISO-25
 70
     0
 41
2.5
 42
0.625
 43
3.75
 44
1.25
 73
     0
 74
     0
 77
     1
 78
     8
140
2.5
141
2.5
143
0.03937007874016
147
0.625
171
     3
172
     1
271
     2
272
     2
274
     3
283
     0
284
     8
340
26
1001
ACAD_DSTYLE_DIMJOGGED_JOGANGLE_SYMBOL
1070
   384
1040
1.570796326794896
  0
DIMSTYLE
105
42
330
A
100
AcDbSymbolTableRecord
100
AcDbDimStyleTableRecord
  2
STANDARD
 70
     0
 41
3.5
 42
1.0
 44
1.5
 47
0.01
 48
0.01
 71
     1
 73
     0
 74
     0
 77
     1
 78
     8
140
3.5
147
0.625
271
     2
272
     2
278
    44
284
     8
340
26
  0
ENDTAB
  0
TABLE
  2
BLOCK_RECORD
  5
1
330
0
100
AcDbSymbolTable
 70
     3
  0
BLOCK_RECORD
  5
37
102
{ACAD_XDICTIONARY
360
442
102
}
330
1
100
AcDbSymbolTableRecord
100
AcDbBlockTableRecord
  2
*Model_Space
340
3A
  0
BLOCK_RECORD
  5
33
330
1
100
AcDbSymbolTableRecord
100
AcDbBlockTableRecord
  2
*Paper_Space
340
36
  0
BLOCK_RECORD
  5
3B
330
1
100
AcDbSymbolTableRecord
100
AcDbBlockTableRecord
  2
*Paper_Space0
340
3E
  0
BLOCK_RECORD
  5
F9
330
1
100
AcDbSymbolTableRecord
100
AcDbBlockTableRecord
  2
A$C00294823
340
0
1001
ACAD
1000
DesignCenter Data
1002
{
1070
     1
1070
     4
1002
}
  0
BLOCK_RECORD
  5
19A
330
1
100
AcDbSymbolTableRecord
100
AcDbBlockTableRecord
  2
A$C4AE13D6C
340
0
1001
ACAD
1000
DesignCenter Data
1002
{
1070
     1
1070
     4
1002
}
  0
ENDTAB
  0
ENDSEC
  0
SECTION
  2
BLOCKS
  0
BLOCK
  5
38
330
37
100
AcDbEntity
  8
0
100
AcDbBlockBegin
  2
*Model_Space
 70
     0
 10
0.0
 20
0.0
 30
0.0
  3
*Model_Space
  1

  0
ENDBLK
  5
39
330
37
100
AcDbEntity
  8
0
100
AcDbBlockEnd
  0
BLOCK
  5
34
330
33
100
AcDbEntity
 67
     1
  8
0
100
AcDbBlockBegin
  2
*Paper_Space
 70
     0
 10
0.0
 20
0.0
 30
0.0
  3
*Paper_Space
  1

  0
ENDBLK
  5
35
330
33
100
AcDbEntity
 67
     1
  8
0
100
AcDbBlockEnd
  0
BLOCK
  5
3C
330
3B
100
AcDbEntity
 67
     1
  8
0
100
AcDbBlockBegin
  2
*Paper_Space0
 70
     0
 10
0.0
 20
0.0
 30
0.0
  3
*Paper_Space0
  1

  0
ENDBLK
  5
3D
330
3B
100
AcDbEntity
 67
     1
  8
0
100
AcDbBlockEnd
  0
BLOCK
  5
128
330
F9
100
AcDbEntity
  8
0
100
AcDbBlockBegin
  2
A$C00294823
 70
     0
 10
0.0
 20
0.0
 30
0.0
  3
A$C00294823
  1

  0
LINE
  5
FA
330
F9
100
AcDbEntity
  8
0
  6
Continuous
 62
     7
100
AcDbLine
 10
0.8919995775627851
 20
5.032271965105802
 30
0.0
 11
0.4999995775627897
 21
5.025429579705804
 31
0.0
  0
LINE
  5
FB
330
F9
100
AcDbEntity
  8
0
  6
Continuous
 62
     7
100
AcDbLine
 10
1.141999577562784
 20
3.350429579705803
 30
0.0
 11
11.94199957756279
 21
3.350429579705803
 31
0.0
  0
LINE
  5
FC
330
F9
100
AcDbEntity
  8
0
  6
Continuous
 62
     7
100
AcDbLine
 10
0.6419995775627854
 20
7.925457131005797
 30
0.0
 11
0.2419995775627797
 21
7.925457131005797
 31
0.0
  0
LINE
  5
FD
330
F9
100
AcDbEntity
  8
0
  6
Continuous
 62
     7
100
AcDbLine
 10
0.8919995775627851
 20
8.5254295797058
 30
0.0
 11
0.6419995775627854
 21
8.5254295797058
 31
0.0
  0
LINE
  5
FE
330
F9
100
AcDbEntity
  8
0
  6
Continuous
 62
     7
100
AcDbLine
 10
0.8920082475627848
 20
3.601423068805802
 30
0.0
 11
0.7434546759627949
 21
3.602719476105803
 31
0.0
  0
LINE
  5
FF
330
F9
100
AcDbEntity
  8
0
  6
Continuous
 62
     7
100
AcDbLine
 10
0.8919995775627851
 20
13.7254295797058
 30
0.0
 11
0.6419995775627854
 21
13.7254295797058
 31
0.0
  0
LINE
  5
100
330
F9
100
AcDbEntity
  8
0
  6
Continuous
 62
     7
100
AcDbLine
 10
0.6419995775627854
 20
14.3254020284058
 30
0.0
 11
0.2419995775627797
 21
14.3254020284058
 31
0.0
  0
LINE
  5
101
330
F9
100
AcDbEntity
  8
0
  6
Continuous
 62
     7
100
AcDbLine
 10
0.8919995775627851
 20
17.0254295797058
 30
0.0
 11
0.4999995775627897
 21
17.0254295797058
 31
0.0
  0
LINE
  5
102
330
F9
100
AcDbEntity
  8
0
  6
Continuous
 62
     7
100
AcDbLine
 10
0.4500300355628042
 20
17.1289216567058
 30
0.0
 11
0.8919995775627851
 21
17.1289216567058
 31
0.0
  0
LINE
  5
103
330
F9
100
AcDbEntity
  8
0
  6
Continuous
 62
     7
100
AcDbLine
 10
0.8919995775627851
 20
15.1298628285058
 30
0.0
 11
0.7434546759627949
 21
15.1311591603058
 31
0.0
  0
LINE
  5
104
330
F9
100
AcDbEntity
  8
0
  6
Continuous
 62
     7
100
AcDbLine
 10
0.7434599044628101
 20
27.1481397289058
 30
0.0
 11
0.8928808679627875
 21
27.1494437059058
 31
0.0
  0
LINE
  5
105
330
F9
100
AcDbEntity
  8
0
  6
Continuous
 62
     7
100
AcDbLine
 10
0.8919995775627851
 20
25.1219375028058
 30
0.0
 11
0.4500300355628042
 21
25.1219375028058
 31
0.0
  0
LINE
  5
106
330
F9
100
AcDbEntity
  8
0
  6
Continuous
 62
     7
100
AcDbLine
 10
0.8919995775627851
 20
25.22542957970581
 30
0.0
 11
0.4999995775627897
 21
25.22542957970581
 31
0.0
  0
LINE
  5
107
330
F9
100
AcDbEntity
  8
0
  6
Continuous
 62
     7
100
AcDbLine
 10
1.141999577562784
 20
27.5004295797058
 30
0.0
 11
11.94199957756279
 21
27.5004295797058
 31
0.0
  0
LINE
  5
108
330
F9
100
AcDbEntity
  8
0
  6
Continuous
 62
     7
100
AcDbLine
 10
-0.0000004224372105
 20
16.5254295797058
 30
0.0
 11
0.4999995775627897
 21
17.0254295797058
 31
0.0
  0
LINE
  5
109
330
F9
100
AcDbEntity
  8
0
  6
Continuous
 62
     7
100
AcDbLine
 10
-0.0000004224372105
 20
4.352690918405802
 30
0.0
 11
-0.0000004224372105
 21
4.525429579705804
 31
0.0
  0
LINE
  5
10A
330
F9
100
AcDbEntity
  8
0
  6
Continuous
 62
     7
100
AcDbLine
 10
-0.0000004224372105
 20
15.8811306026058
 30
0.0
 11
-0.0000004224372105
 21
16.5254295797058
 31
0.0
  0
LINE
  5
10B
330
F9
100
AcDbEntity
  8
0
  6
Continuous
 62
     7
100
AcDbLine
 10
-0.0000004224372105
 20
25.7254295797058
 30
0.0
 11
-0.0000004224372105
 21
26.39816824100581
 31
0.0
  0
LINE
  5
10C
330
F9
100
AcDbEntity
  8
0
  6
Continuous
 62
     7
100
AcDbLine
 10
0.2419995775627797
 20
7.925457144505799
 30
0.0
 11
0.2419995775627797
 21
14.3254020149058
 31
0.0
  0
LINE
  5
10D
330
F9
100
AcDbEntity
  8
0
  6
Continuous
 62
     7
100
AcDbLine
 10
0.4499995775628065
 20
17.1289216567058
 30
0.0
 11
0.4499995775628065
 21
25.1219375028058
 31
0.0
  0
LINE
  5
10E
330
F9
100
AcDbEntity
  8
0
  6
Continuous
 62
     7
100
AcDbLine
 10
0.6419995775627854
 20
7.925457131005797
 30
0.0
 11
0.6419995775627854
 21
14.3254020284058
 31
0.0
  0
LINE
  5
10F
330
F9
100
AcDbEntity
  8
0
  6
Continuous
 62
     7
100
AcDbLine
 10
-0.0000004224372105
 20
4.525429579705804
 30
0.0
 11
0.4999995775627897
 21
5.025429579705804
 31
0.0
  0
LINE
  5
110
330
F9
100
AcDbEntity
  8
0
  6
Continuous
 62
     7
100
AcDbLine
 10
0.4999995775627897
 20
25.22542957970581
 30
0.0
 11
-0.0000004224372105
 21
25.7254295797058
 31
0.0
  0
LINE
  5
111
330
F9
100
AcDbEntity
  8
0
  6
Continuous
 62
     7
100
AcDbLine
 10
0.8919995775627851
 20
27.2504295797058
 30
0.0
 11
0.8919995775627851
 21
3.600429579705803
 31
0.0
  0
LINE
  5
112
330
F9
100
AcDbEntity
  8
0
  6
Continuous
 62
     7
100
AcDbLine
 10
12.19199957756279
 20
30.60085963250581
 30
0.0
 11
12.19199957756279
 21
27.7504295797058
 31
0.0
  0
LINE
  5
113
330
F9
100
AcDbEntity
  8
0
  6
Continuous
 62
     7
100
AcDbLine
 10
12.19199957756279
 20
3.100429579705803
 30
0.0
 11
12.19199957756279
 21
0.2499995269058033
 31
0.0
  0
CIRCLE
  5
114
330
F9
100
AcDbEntity
  8
0
  6
Continuous
 62
     7
100
AcDbCircle
 10
2.799999577562799
 20
5.225429579705801
 30
0.0
 40
1.6
  0
CIRCLE
  5
115
330
F9
100
AcDbEntity
  8
0
  6
Continuous
 62
     7
100
AcDbCircle
 10
2.799999577562799
 20
5.225429579705801
 30
0.0
 40
0.9
  0
CIRCLE
  5
116
330
F9
100
AcDbEntity
  8
0
  6
Continuous
 62
     7
100
AcDbCircle
 10
13.44199957756279
 20
1.975429579705803
 30
0.0
 40
0.9
  0
CIRCLE
  5
117
330
F9
100
AcDbEntity
  8
0
  6
Continuous
 62
     7
100
AcDbCircle
 10
2.799999577562799
 20
5.225429579705801
 30
0.0
 40
0.8146141486000001
  0
ARC
  5
118
330
F9
100
AcDbEntity
  8
0
  6
Continuous
 62
     7
100
AcDbCircle
 10
0.7499995775627895
 20
4.352690918405802
 30
0.0
 40
0.75
100
AcDbArc
 50
180.0
 51
269.5000000000003
  0
CIRCLE
  5
119
330
F9
100
AcDbEntity
  8
0
  6
Continuous
 62
     7
100
AcDbCircle
 10
2.799999577562799
 20
5.225429579705801
 30
0.0
 40
0.6646190137
  0
ARC
  5
11A
330
F9
100
AcDbEntity
  8
0
  6
Continuous
 62
     7
100
AcDbCircle
 10
12.44199957756279
 20
0.2499995269058033
 30
0.0
 40
0.25
100
AcDbArc
 50
180.0
 51
269.9156590108001
  0
ARC
  5
11B
330
F9
100
AcDbEntity
  8
0
  6
Continuous
 62
     7
100
AcDbCircle
 10
1.141999577562784
 20
3.600429579705803
 30
0.0
 40
0.25
100
AcDbArc
 50
180.0
 51
270.0
  0
ARC
  5
11C
330
F9
100
AcDbEntity
  8
0
  6
Continuous
 62
     7
100
AcDbCircle
 10
11.94199957756279
 20
3.100429579705803
 30
0.0
 40
0.25
100
AcDbArc
 50
0.0
 51
90.0
  0
CIRCLE
  5
11D
330
F9
100
AcDbEntity
  8
0
  6
Continuous
 62
     7
100
AcDbCircle
 10
4.099999577562783
 20
25.5254295797058
 30
0.0
 40
1.6
  0
CIRCLE
  5
11E
330
F9
100
AcDbEntity
  8
0
  6
Continuous
 62
     7
100
AcDbCircle
 10
4.099999577562783
 20
25.5254295797058
 30
0.0
 40
0.9
  0
CIRCLE
  5
11F
330
F9
100
AcDbEntity
  8
0
  6
Continuous
 62
     7
100
AcDbCircle
 10
13.44199957756279
 20
28.8754295797058
 30
0.0
 40
0.9
  0
CIRCLE
  5
120
330
F9
100
AcDbEntity
  8
0
  6
Continuous
 62
     7
100
AcDbCircle
 10
4.099999577562783
 20
25.5254295797058
 30
0.0
 40
0.8146141486000001
  0
ARC
  5
121
330
F9
100
AcDbEntity
  8
0
  6
Continuous
 62
     7
100
AcDbCircle
 10
0.7499995775627895
 20
15.8811306026058
 30
0.0
 40
0.75
100
AcDbArc
 50
180.0
 51
269.4999999998994
  0
ARC
  5
122
330
F9
100
AcDbEntity
  8
0
  6
Continuous
 62
     7
100
AcDbCircle
 10
0.7499995775627895
 20
26.39816824100581
 30
0.0
 40
0.75
100
AcDbArc
 50
90.49960055450071
 51
180.0
  0
CIRCLE
  5
123
330
F9
100
AcDbEntity
  8
0
  6
Continuous
 62
     7
100
AcDbCircle
 10
4.099999577562783
 20
25.5254295797058
 30
0.0
 40
0.6646190137
  0
ARC
  5
124
330
F9
100
AcDbEntity
  8
0
  6
Continuous
 62
     7
100
AcDbCircle
 10
1.141999577562784
 20
27.2504295797058
 30
0.0
 40
0.25
100
AcDbArc
 50
90.0
 51
180.0
  0
ARC
  5
125
330
F9
100
AcDbEntity
  8
0
  6
Continuous
 62
     7
100
AcDbCircle
 10
12.44199957756279
 20
30.60085963250581
 30
0.0
 40
0.25
100
AcDbArc
 50
90.08434098919993
 51
180.0
  0
ARC
  5
126
330
F9
100
AcDbEntity
  8
0
  6
Continuous
 62
     7
100
AcDbCircle
 10
11.94199957756279
 20
27.7504295797058
 30
0.0
 40
0.25
100
AcDbArc
 50
270.0
 51
0.0
  0
LINE
  5
127
330
F9
100
AcDbEntity
  8
0
100
AcDbLine
 10
5.509472679127043
 20
5.019137363904007
 30
0.0
 11
5.509472679127043
 21
23.51913736390402
 31
0.0
  0
ENDBLK
  5
129
330
F9
100
AcDbEntity
  8
0
100
AcDbBlockEnd
  0
BLOCK
  5
1A5
330
19A
100
AcDbEntity
  8
0
100
AcDbBlockBegin
  2
A$C4AE13D6C
 70
     0
 10
0.0
 20
0.0
 30
0.0
  3
A$C4AE13D6C
  1

  0
LINE
  5
19B
330
19A
100
AcDbEntity
  8
0
  6
Continuous
 62
     7
100
AcDbLine
 10
-0.0000001979594231
 20
5.324888874327391
 30
0.0
 11
10.79999980204059
 21
5.324888874327391
 31
0.0
  0
LINE
  5
19C
330
19A
100
AcDbEntity
  8
0
  6
Continuous
 62
     7
100
AcDbLine
 10
11.04999980204059
 20
8.425318927127392
 30
0.0
 11
11.04999980204059
 21
5.574888874327391
 31
0.0
  0
ARC
  5
19D
330
19A
100
AcDbEntity
  8
0
  6
Continuous
 62
     7
100
AcDbCircle
 10
20.31999980204057
 20
1.599888874327389
 30
0.0
 40
1.6
100
AcDbArc
 50
65.03351436380036
 51
75.83357012760005
  0
ARC
  5
19E
330
19A
100
AcDbEntity
  8
0
  6
Continuous
 62
     7
100
AcDbCircle
 10
20.31999980204057
 20
1.599888874327389
 30
0.0
 40
1.6
100
AcDbArc
 50
75.83808242203843
 51
114.9664856361996
  0
ARC
  5
19F
330
19A
100
AcDbEntity
  8
0
  6
Continuous
 62
     7
100
AcDbCircle
 10
20.3199998020406
 20
1.599888874327389
 30
0.0
 40
1.600000000000013
100
AcDbArc
 50
115.1144779703437
 51
65.03351436380054
  0
ARC
  5
1A0
330
19A
100
AcDbEntity
  8
0
  6
Continuous
 62
     7
100
AcDbCircle
 10
20.31999980204057
 20
1.599888874327389
 30
0.0
 40
0.9
100
AcDbArc
 50
70.83856629800088
 51
70.83729707377377
  0
CIRCLE
  5
1A1
330
19A
100
AcDbEntity
  8
0
  6
Continuous
 62
     7
100
AcDbCircle
 10
12.29999980204059
 20
6.699888874327392
 30
0.0
 40
0.9
  0
ARC
  5
1A2
330
19A
100
AcDbEntity
  8
0
  6
Continuous
 62
     7
100
AcDbCircle
 10
20.31999980204057
 20
1.599888874327389
 30
0.0
 40
0.875
100
AcDbArc
 50
76.76004494050042
 51
76.75263430069964
  0
CIRCLE
  5
1A3
330
19A
100
AcDbEntity
  8
0
  6
Continuous
 62
     7
100
AcDbCircle
 10
20.31999980204057
 20
1.599888874327389
 30
0.0
 40
0.675
  0
ARC
  5
1A4
330
19A
100
AcDbEntity
  8
0
  6
Continuous
 62
     7
100
AcDbCircle
 10
10.79999980204059
 20
5.574888874327391
 30
0.0
 40
0.25
100
AcDbArc
 50
270.0
 51
0.0
  0
ENDBLK
  5
1A6
330
19A
100
AcDbEntity
  8
0
100
AcDbBlockEnd
  0
ENDSEC
  0
SECTION
  2
ENTITIES
  0
LINE
  5
1E2
330
37
100
AcDbEntity
  8
0
  6
Continuous
 62
     7
100
AcDbLine
 10
57.28077043036887
 20
28.00250077620555
 30
0.0
 11
62.22077043036887
 21
28.00250077610555
 31
0.0
  0
LINE
  5
1E3
330
37
100
AcDbEntity
  8
0
  6
Continuous
 62
     7
100
AcDbLine
 10
62.22077043036887
 20
27.84250077620554
 30
0.0
 11
62.66077043036887
 21
27.84250077620554
 31
0.0
  0
LINE
  5
1E6
330
37
100
AcDbEntity
  8
0
  6
Continuous
 62
     7
100
AcDbLine
 10
62.22077043036887
 20
21.64250077620552
 30
0.0
 11
62.66077043036887
 21
21.64250077620552
 31
0.0
  0
LINE
  5
1E7
330
37
100
AcDbEntity
  8
0
  6
Continuous
 62
     7
100
AcDbLine
 10
57.28077043036887
 20
21.48250077620553
 30
0.0
 11
62.22077043036887
 21
21.48250077630554
 31
0.0
  0
LINE
  5
1EB
330
37
100
AcDbEntity
  8
0
  6
Continuous
 62
     7
100
AcDbLine
 10
58.22077043036887
 20
17.14250077620552
 30
0.0
 11
60.97077043036887
 21
17.14250077620552
 31
0.0
  0
LINE
  5
1EC
330
37
100
AcDbEntity
  8
0
  6
Continuous
 62
     7
100
AcDbLine
 10
60.97077043036887
 20
15.19250077620553
 30
0.0
 11
62.57077043036886
 21
15.19250077620553
 31
0.0
  0
LINE
  5
1ED
330
37
100
AcDbEntity
  8
0
  6
Continuous
 62
     7
100
AcDbLine
 10
62.57077043036886
 20
13.89250077620555
 30
0.0
 11
60.97077043036887
 21
13.89250077620555
 31
0.0
  0
LINE
  5
1EE
330
37
100
AcDbEntity
  8
0
  6
Continuous
 62
     7
100
AcDbLine
 10
60.97077043036887
 20
10.34250077620552
 30
0.0
 11
58.22077043036887
 21
10.34250077620552
 31
0.0
  0
LINE
  5
1FB
330
37
100
AcDbEntity
  8
0
  6
Continuous
 62
     7
100
AcDbLine
 10
58.22077043036887
 20
10.34250077620552
 30
0.0
 11
58.22077043036887
 21
17.14250077620552
 31
0.0
  0
LINE
  5
205
330
37
100
AcDbEntity
  8
0
  6
Continuous
 62
     7
100
AcDbLine
 10
62.57077043036886
 20
15.19250077620553
 30
0.0
 11
62.57077043036886
 21
13.89250077620555
 31
0.0
  0
LINE
  5
207
330
37
100
AcDbEntity
  8
0
  6
Continuous
 62
     7
100
AcDbLine
 10
62.82077043036887
 20
21.84250077780555
 30
0.0
 11
62.82077043036887
 21
27.64250077470555
 31
0.0
  0
CIRCLE
  5
20A
330
37
100
AcDbEntity
  8
0
  6
Continuous
 62
     7
100
AcDbCircle
 10
29.46077043036891
 20
27.74250077620553
 30
0.0
 40
1.399999999999999
  0
CIRCLE
  5
20B
330
37
100
AcDbEntity
  8
0
  6
Continuous
 62
     7
100
AcDbCircle
 10
29.2207704303689
 20
34.19250077620553
 30
0.0
 40
0.9
  0
CIRCLE
  5
20C
330
37
100
AcDbEntity
  8
0
  6
Continuous
 62
     7
100
AcDbCircle
 10
29.46077043036891
 20
27.74250077620553
 30
0.0
 40
0.8
  0
CIRCLE
  5
212
330
37
100
AcDbEntity
  8
0
  6
Continuous
 62
     7
100
AcDbCircle
 10
29.46077043036891
 20
13.74250077620553
 30
0.0
 40
1.399999999999999
  0
CIRCLE
  5
214
330
37
100
AcDbEntity
  8
0
  6
Continuous
 62
     7
100
AcDbCircle
 10
29.46077043036891
 20
13.74250077620553
 30
0.0
 40
0.8
  0
CIRCLE
  5
21A
330
37
100
AcDbEntity
  8
0
  6
Continuous
 62
     7
100
AcDbCircle
 10
56.92077043036888
 20
34.14250077620553
 30
0.0
 40
0.9
  0
CIRCLE
  5
221
330
37
100
AcDbEntity
  8
0
  6
Continuous
 62
     7
100
AcDbCircle
 10
56.92077043036888
 20
7.342500776205554
 30
0.0
 40
0.9
  0
SPLINE
  5
222
330
37
100
AcDbEntity
  8
0
  6
Continuous
 62
     7
100
AcDbSpline
210
0.0
220
0.0
230
1.0
 70
     8
 71
     3
 72
    11
 73
     7
 74
     0
 42
0.0000000001
 43
0.0000000001
 40
0.0
 40
0.0
 40
0.0
 40
0.0
 40
0.2239163411
 40
0.4638974139
 40
0.7249584264
 40
1.0
 40
1.0
 40
1.0
 40
1.0
 10
62.66077043036887
 20
27.84250077620554
 30
0.0
 10
62.68180341026887
 20
27.84250077620554
 30
0.0
 10
62.72594536996888
 20
27.83107685510554
 30
0.0
 10
62.77874796486887
 20
27.78505911090554
 30
0.0
 10
62.81295465136887
 20
27.71908000840554
 30
0.0
 10
62.82077043056887
 20
27.66833606640555
 30
0.0
 10
62.82077043036887
 20
27.64250077520553
 30
0.0
  0
SPLINE
  5
223
330
37
100
AcDbEntity
  8
0
  6
Continuous
 62
     7
100
AcDbSpline
210
0.0
220
0.0
230
1.0
 70
     8
 71
     3
 72
    11
 73
     7
 74
     0
 42
0.0000000001
 43
0.0000000001
 40
0.0
 40
0.0
 40
0.0
 40
0.0
 40
0.2750414638
 40
0.5361024583000003
 40
0.776083566
 40
1.0
 40
1.0
 40
1.0
 40
1.0
 10
62.82077043036887
 20
21.84250077920554
 30
0.0
 10
62.82077043056887
 20
21.81666549810552
 30
0.0
 10
62.81295465736889
 20
21.76592156830553
 30
0.0
 10
62.77874798526888
 20
21.69994246820554
 30
0.0
 10
62.72594539146886
 20
21.65392470630555
 30
0.0
 10
62.68180341906887
 20
21.64250077620552
 30
0.0
 10
62.66077043036887
 20
21.64250077620552
 30
0.0
  0
CIRCLE
  5
226
330
37
100
AcDbEntity
  8
0
  6
Continuous
 62
     7
100
AcDbCircle
 10
18.58096283340171
 20
30.9539033736053
 30
0.0
 40
1.399999999999999
  0
CIRCLE
  5
227
330
37
100
AcDbEntity
  8
0
  6
Continuous
 62
     7
100
AcDbCircle
 10
18.58096283340171
 20
30.9539033736053
 30
0.0
 40
0.9
  0
CIRCLE
  5
228
330
37
100
AcDbEntity
  8
0
  6
Continuous
 62
     7
100
AcDbCircle
 10
19.88096283340168
 20
10.6539033736053
 30
0.0
 40
1.399999999999999
  0
CIRCLE
  5
229
330
37
100
AcDbEntity
  8
0
  6
Continuous
 62
     7
100
AcDbCircle
 10
19.88096283340168
 20
10.6539033736053
 30
0.0
 40
0.9
  0
CIRCLE
  5
22A
330
37
100
AcDbEntity
  8
0
  6
Continuous
 62
     7
100
AcDbCircle
 10
26.58300358845504
 20
29.70374874386008
 30
0.0
 40
1.6
  0
CIRCLE
  5
22B
330
37
100
AcDbEntity
  8
0
  6
Continuous
 62
     7
100
AcDbCircle
 10
26.58300358845504
 20
29.70374874386008
 30
0.0
 40
0.9
  0
ARC
  5
22F
330
37
100
AcDbEntity
  8
0
  6
Continuous
 62
     7
100
AcDbCircle
 10
37.24387453483299
 20
12.40017645226558
 30
0.0
 40
0.9
100
AcDbArc
 50
289.1627029262263
 51
289.1614337019992
  0
CIRCLE
  5
230
330
37
100
AcDbEntity
  8
0
  6
Continuous
 62
     7
100
AcDbCircle
 10
29.22387453483299
 20
7.300176452265573
 30
0.0
 40
0.9
  0
CIRCLE
  5
251
330
37
100
AcDbEntity
  8
0
100
AcDbCircle
 10
29.22387453483299
 20
7.300176452265573
 30
0.0
 40
1.8
  0
CIRCLE
  5
252
330
37
100
AcDbEntity
  8
0
100
AcDbCircle
 10
29.2207704303689
 20
34.19250077620553
 30
0.0
 40
1.8
  0
CIRCLE
  5
253
330
37
100
AcDbEntity
  8
0
100
AcDbCircle
 10
56.92077043036888
 20
7.342500776205554
 30
0.0
 40
1.8
  0
CIRCLE
  5
254
330
37
100
AcDbEntity
  8
0
100
AcDbCircle
 10
56.92077043036888
 20
34.14250077620553
 30
0.0
 40
1.8
  0
LINE
  5
398
330
37
100
AcDbEntity
  8
0
  6
Continuous
 62
     7
100
AcDbLine
 10
58.72077043036887
 20
8.931248995605507
 30
0.0
 11
43.72077043036887
 21
8.931248995605507
 31
0.0
  0
LINE
  5
399
330
37
100
AcDbEntity
  8
0
  6
Continuous
 62
     7
100
AcDbLine
 10
59.72077043036887
 20
9.931248995605507
 30
0.0
 11
42.72077043036886
 21
9.931248995605507
 31
0.0
  0
LINE
  5
39A
330
37
100
AcDbEntity
  8
0
  6
Continuous
 62
     7
100
AcDbLine
 10
39.19077043036887
 20
10.1812489956055
 30
0.0
 11
24.49077043036886
 21
10.1812489956055
 31
0.0
  0
LINE
  5
39B
330
37
100
AcDbEntity
  8
0
  6
Continuous
 62
     7
100
AcDbLine
 10
62.57077043036886
 20
13.88124899560552
 30
0.0
 11
60.97077043036887
 21
13.88124899560552
 31
0.0
  0
LINE
  5
39C
330
37
100
AcDbEntity
  8
0
  6
Continuous
 62
     7
100
AcDbLine
 10
39.92077043036886
 20
14.33124899560551
 30
0.0
 11
40.22077043036886
 21
14.33124899560551
 31
0.0
  0
LINE
  5
39D
330
37
100
AcDbEntity
  8
0
  6
Continuous
 62
     7
100
AcDbLine
 10
41.22077043036886
 20
14.33124899560551
 30
0.0
 11
41.52077043036885
 21
14.33124899560551
 31
0.0
  0
LINE
  5
39E
330
37
100
AcDbEntity
  8
0
  6
Continuous
 62
     7
100
AcDbLine
 10
40.22077043036886
 20
14.3412489956055
 30
0.0
 11
41.22077043036886
 21
14.3412489956055
 31
0.0
  0
LINE
  5
39F
330
37
100
AcDbEntity
  8
0
  6
Continuous
 62
     7
100
AcDbLine
 10
40.22077043036886
 20
15.1212489956055
 30
0.0
 11
41.22077043036886
 21
15.1212489956055
 31
0.0
  0
LINE
  5
3A0
330
37
100
AcDbEntity
  8
0
  6
Continuous
 62
     7
100
AcDbLine
 10
39.92077043036886
 20
15.13124899560552
 30
0.0
 11
40.22077043036886
 21
15.13124899560552
 31
0.0
  0
LINE
  5
3A1
330
37
100
AcDbEntity
  8
0
  6
Continuous
 62
     7
100
AcDbLine
 10
41.22077043036886
 20
15.13124899560552
 30
0.0
 11
41.52077043036885
 21
15.13124899560552
 31
0.0
  0
LINE
  5
3A2
330
37
100
AcDbEntity
  8
0
  6
Continuous
 62
     7
100
AcDbLine
 10
60.97077043036887
 20
15.1812489956055
 30
0.0
 11
62.57077043036886
 21
15.1812489956055
 31
0.0
  0
LINE
  5
3A3
330
37
100
AcDbEntity
  8
0
  6
Continuous
 62
     7
100
AcDbLine
 10
39.92077043036886
 20
16.33124899560551
 30
0.0
 11
40.22077043036886
 21
16.33124899560551
 31
0.0
  0
LINE
  5
3A4
330
37
100
AcDbEntity
  8
0
  6
Continuous
 62
     7
100
AcDbLine
 10
41.22077043036886
 20
16.33124899560551
 30
0.0
 11
41.52077043036885
 21
16.33124899560551
 31
0.0
  0
LINE
  5
3A5
330
37
100
AcDbEntity
  8
0
  6
Continuous
 62
     7
100
AcDbLine
 10
40.22077043036886
 20
16.3412489956055
 30
0.0
 11
41.22077043036886
 21
16.3412489956055
 31
0.0
  0
LINE
  5
3A6
330
37
100
AcDbEntity
  8
0
  6
Continuous
 62
     7
100
AcDbLine
 10
40.22077043036886
 20
17.12124899560549
 30
0.0
 11
41.22077043036886
 21
17.12124899560549
 31
0.0
  0
LINE
  5
3A7
330
37
100
AcDbEntity
  8
0
  6
Continuous
 62
     7
100
AcDbLine
 10
39.92077043036886
 20
17.13124899560552
 30
0.0
 11
40.22077043036886
 21
17.13124899560552
 31
0.0
  0
LINE
  5
3A8
330
37
100
AcDbEntity
  8
0
  6
Continuous
 62
     7
100
AcDbLine
 10
41.22077043036886
 20
17.13124899560552
 30
0.0
 11
41.52077043036885
 21
17.13124899560552
 31
0.0
  0
LINE
  5
3A9
330
37
100
AcDbEntity
  8
0
  6
Continuous
 62
     7
100
AcDbLine
 10
39.92077043036886
 20
18.33124899560551
 30
0.0
 11
40.22077043036886
 21
18.33124899560551
 31
0.0
  0
LINE
  5
3AA
330
37
100
AcDbEntity
  8
0
  6
Continuous
 62
     7
100
AcDbLine
 10
41.22077043036886
 20
18.33124899560551
 30
0.0
 11
41.52077043036885
 21
18.33124899560551
 31
0.0
  0
LINE
  5
3AB
330
37
100
AcDbEntity
  8
0
  6
Continuous
 62
     7
100
AcDbLine
 10
40.22077043036886
 20
18.3412489956055
 30
0.0
 11
41.22077043036886
 21
18.3412489956055
 31
0.0
  0
LINE
  5
3AC
330
37
100
AcDbEntity
  8
0
  6
Continuous
 62
     7
100
AcDbLine
 10
40.22077043036886
 20
19.1212489956055
 30
0.0
 11
41.22077043036886
 21
19.1212489956055
 31
0.0
  0
LINE
  5
3AD
330
37
100
AcDbEntity
  8
0
  6
Continuous
 62
     7
100
AcDbLine
 10
39.92077043036886
 20
19.13124899560552
 30
0.0
 11
40.22077043036886
 21
19.13124899560552
 31
0.0
  0
LINE
  5
3AE
330
37
100
AcDbEntity
  8
0
  6
Continuous
 62
     7
100
AcDbLine
 10
41.22077043036886
 20
19.13124899560552
 30
0.0
 11
41.52077043036885
 21
19.13124899560552
 31
0.0
  0
LINE
  5
3B8
330
37
100
AcDbEntity
  8
0
  6
Continuous
 62
     7
100
AcDbLine
 10
39.09077043036889
 20
22.18124899560551
 30
0.0
 11
41.19077043036886
 21
22.18124899560551
 31
0.0
  0
LINE
  5
3C4
330
37
100
AcDbEntity
  8
0
  6
Continuous
 62
     7
100
AcDbLine
 10
41.19077043036886
 20
28.7812489956055
 30
0.0
 11
39.09077043036889
 21
28.7812489956055
 31
0.0
  0
LINE
  5
3C7
330
37
100
AcDbEntity
  8
0
  6
Continuous
 62
     7
100
AcDbLine
 10
24.49077043036886
 20
31.2812489956055
 30
0.0
 11
39.19077043036887
 21
31.2812489956055
 31
0.0
  0
LINE
  5
3C8
330
37
100
AcDbEntity
  8
0
  6
Continuous
 62
     7
100
AcDbLine
 10
58.72077043036887
 20
31.93124899560551
 30
0.0
 11
43.72077043036887
 21
31.93124899560551
 31
0.0
  0
LINE
  5
3C9
330
37
100
AcDbEntity
  8
0
  6
Continuous
 62
     7
100
AcDbLine
 10
24.49077043036886
 20
10.1812489956055
 30
0.0
 11
24.49077043036886
 21
31.2812489956055
 31
0.0
  0
LINE
  5
3D1
330
37
100
AcDbEntity
  8
0
  6
Continuous
 62
     7
100
AcDbLine
 10
39.09077043036889
 20
19.88124899560552
 30
0.0
 11
39.09077043036889
 21
31.08124899560551
 31
0.0
  0
LINE
  5
3D2
330
37
100
AcDbEntity
  8
0
  6
Continuous
 62
     7
100
AcDbLine
 10
39.19077043036887
 20
31.2812489956055
 30
0.0
 11
39.19077043036887
 21
28.7812489956055
 31
0.0
  0
LINE
  5
3D3
330
37
100
AcDbEntity
  8
0
  6
Continuous
 62
     7
100
AcDbLine
 10
39.19077043036887
 20
22.18124899560551
 30
0.0
 11
39.19077043036887
 21
10.1812489956055
 31
0.0
  0
LINE
  5
3D4
330
37
100
AcDbEntity
  8
0
  6
Continuous
 62
     7
100
AcDbLine
 10
39.92077043036886
 20
14.33124899560551
 30
0.0
 11
39.92077043036886
 21
15.13124899560552
 31
0.0
  0
LINE
  5
3D5
330
37
100
AcDbEntity
  8
0
  6
Continuous
 62
     7
100
AcDbLine
 10
39.92077043036886
 20
16.33124899560551
 30
0.0
 11
39.92077043036886
 21
17.13124899560552
 31
0.0
  0
LINE
  5
3D6
330
37
100
AcDbEntity
  8
0
  6
Continuous
 62
     7
100
AcDbLine
 10
39.92077043036886
 20
18.33124899560551
 30
0.0
 11
39.92077043036886
 21
19.13124899560552
 31
0.0
  0
LINE
  5
3D7
330
37
100
AcDbEntity
  8
0
  6
Continuous
 62
     7
100
AcDbLine
 10
40.22077043036886
 20
14.33124899560551
 30
0.0
 11
40.22077043036886
 21
15.13124899560552
 31
0.0
  0
LINE
  5
3D8
330
37
100
AcDbEntity
  8
0
  6
Continuous
 62
     7
100
AcDbLine
 10
40.22077043036886
 20
16.33124899560551
 30
0.0
 11
40.22077043036886
 21
17.13124899560552
 31
0.0
  0
LINE
  5
3D9
330
37
100
AcDbEntity
  8
0
  6
Continuous
 62
     7
100
AcDbLine
 10
40.22077043036886
 20
18.33124899560551
 30
0.0
 11
40.22077043036886
 21
19.13124899560552
 31
0.0
  0
LINE
  5
3DA
330
37
100
AcDbEntity
  8
0
  6
Continuous
 62
     7
100
AcDbLine
 10
41.19077043036886
 20
22.18124899560551
 30
0.0
 11
41.19077043036886
 21
28.7812489956055
 31
0.0
  0
LINE
  5
3DB
330
37
100
AcDbEntity
  8
0
  6
Continuous
 62
     7
100
AcDbLine
 10
41.22077043036886
 20
14.33124899560551
 30
0.0
 11
41.22077043036886
 21
15.13124899560552
 31
0.0
  0
LINE
  5
3DC
330
37
100
AcDbEntity
  8
0
  6
Continuous
 62
     7
100
AcDbLine
 10
41.22077043036886
 20
16.33124899560551
 30
0.0
 11
41.22077043036886
 21
17.13124899560552
 31
0.0
  0
LINE
  5
3DD
330
37
100
AcDbEntity
  8
0
  6
Continuous
 62
     7
100
AcDbLine
 10
41.22077043036886
 20
18.33124899560551
 30
0.0
 11
41.22077043036886
 21
19.13124899560552
 31
0.0
  0
LINE
  5
3DE
330
37
100
AcDbEntity
  8
0
  6
Continuous
 62
     7
100
AcDbLine
 10
41.52077043036885
 20
14.33124899560551
 30
0.0
 11
41.52077043036885
 21
15.13124899560552
 31
0.0
  0
LINE
  5
3DF
330
37
100
AcDbEntity
  8
0
  6
Continuous
 62
     7
100
AcDbLine
 10
41.52077043036885
 20
16.33124899560551
 30
0.0
 11
41.52077043036885
 21
17.13124899560552
 31
0.0
  0
LINE
  5
3E0
330
37
100
AcDbEntity
  8
0
  6
Continuous
 62
     7
100
AcDbLine
 10
41.52077043036885
 20
18.33124899560551
 30
0.0
 11
41.52077043036885
 21
19.13124899560552
 31
0.0
  0
LINE
  5
3E1
330
37
100
AcDbEntity
  8
0
  6
Continuous
 62
     7
100
AcDbLine
 10
42.72077043036886
 20
30.93124899560551
 30
0.0
 11
42.72077043036886
 21
9.931248995605507
 31
0.0
  0
LINE
  5
3E7
330
37
100
AcDbEntity
  8
0
  6
Continuous
 62
     7
100
AcDbLine
 10
59.72077043036887
 20
30.93124899560551
 30
0.0
 11
59.72077043036887
 21
9.931248995605507
 31
0.0
  0
LINE
  5
3F0
330
37
100
AcDbEntity
  8
0
  6
Continuous
 62
     7
100
AcDbLine
 10
62.57077043036886
 20
15.1812489956055
 30
0.0
 11
62.57077043036886
 21
13.88124899560552
 31
0.0
  0
ARC
  5
3F3
330
37
100
AcDbEntity
  8
0
  6
Continuous
 62
     7
100
AcDbCircle
 10
58.72076790156885
 20
9.931248995605507
 30
0.0
 40
1.0
100
AcDbArc
 50
270.0001448917996
 51
0.0
  0
ARC
  5
3F4
330
37
100
AcDbEntity
  8
0
  6
Continuous
 62
     7
100
AcDbCircle
 10
43.72077295916886
 20
9.931248995605507
 30
0.0
 40
1.0
100
AcDbArc
 50
180.0
 51
269.9998551082004
  0
ARC
  5
3F5
330
37
100
AcDbEntity
  8
0
  6
Continuous
 62
     7
100
AcDbCircle
 10
43.72077043036887
 20
30.93124899560551
 30
0.0
 40
1.0
100
AcDbArc
 50
90.0
 51
180.0
  0
ARC
  5
3F6
330
37
100
AcDbEntity
  8
0
  6
Continuous
 62
     7
100
AcDbCircle
 10
58.72077043036887
 20
30.93124899560551
 30
0.0
 40
1.0
100
AcDbArc
 50
0.0
 51
90.0
  0
LINE
  5
408
330
37
100
AcDbEntity
  8
0
100
AcDbLine
 10
62.22077043036887
 20
28.00250077610555
 30
0.0
 11
62.22077043036887
 21
21.48250077630554
 31
0.0
  0
LINE
  5
409
330
37
100
AcDbEntity
  8
0
100
AcDbLine
 10
57.28077043036887
 20
28.00250077620555
 30
0.0
 11
57.28077043036887
 21
21.48250077620553
 31
0.0
  0
CIRCLE
  5
423
330
37
100
AcDbEntity
  8
0
100
AcDbCircle
 10
37.24387453483299
 20
12.40017645226558
 30
0.0
 40
1.6
  0
LWPOLYLINE
  5
441
330
37
100
AcDbEntity
  8
0
  6
Continuous
 62
     7
100
AcDbPolyline
 90
       16
 70
     1
 43
0.0
 10
59.09131000584839
 20
35.25953427781822
 42
-0.3966585453556134
 10
60.97077043036887
 20
33.26317002980554
 10
60.97077043036887
 20
8.221831522649271
 42
-0.396658545355806
 10
59.09131000584705
 20
6.225467274636514
 42
-0.0154458189626599
 10
28.22040242351267
 20
5.317070994263773
 42
-0.4137824810585052
 10
27.9707704303689
 20
5.567070723405535
 10
27.9707704303689
 20
8.417500776205526
 42
0.4142135623730951
 10
27.7207704303689
 20
8.667500776205526
 10
16.92077043036887
 20
8.667500776205526
 42
-0.4142135623730951
 10
16.67077043036887
 20
8.917500776205526
 10
16.67077043036887
 20
32.56750077620555
 42
-0.4142135623730951
 10
16.92077043036887
 20
32.81750077620553
 10
27.7207704303689
 20
32.81750077620553
 42
0.4142135623730951
 10
27.9707704303689
 20
33.06750077620553
 10
27.9707704303689
 20
35.91793082900553
 42
-0.4137824810586671
 10
28.22040242381237
 20
36.16793055812769
 42
-0.0154458189625098
  0
ENDSEC
  0
SECTION
  2
OBJECTS
  0
DICTIONARY
  5
C
330
0
100
AcDbDictionary
281
     1
  3
ACAD_2007HEADERVARS_RT
350
464
  3
ACAD_COLOR
350
30
  3
ACAD_GROUP
350
D
  3
ACAD_LAYOUT
350
2F
  3
ACAD_MATERIAL
350
10
  3
ACAD_MLINESTYLE
350
2C
  3
ACAD_PLOTSETTINGS
350
2E
  3
ACAD_PLOTSTYLENAME
350
E
  3
ACAD_TABLESTYLE
350
31
  3
ACAD_VISUALSTYLE
350
14
  3
AcDbVariableDictionary
350
188
  3
DWGPROPS
350
463
  0
DICTIONARY
  5
442
330
37
100
AcDbDictionary
280
     1
281
     1
  3
ACAD_SORTENTS
360
443
  0
DICTIONARY
  5
464
102
{ACAD_REACTORS
330
C
102
}
330
C
100
AcDbDictionary
281
     1
  3
DIMJOGANG
350
465
  0
DICTIONARY
  5
30
102
{ACAD_REACTORS
330
C
102
}
330
C
100
AcDbDictionary
281
     1
  0
DICTIONARY
  5
D
102
{ACAD_REACTORS
330
C
102
}
330
C
100
AcDbDictionary
281
     1
  0
DICTIONARY
  5
2F
102
{ACAD_REACTORS
330
C
102
}
330
C
100
AcDbDictionary
281
     1
  3
Model
350
3A
  3
布局1
350
36
  3
布局2
350
3E
  0
DICTIONARY
  5
10
102
{ACAD_REACTORS
330
C
102
}
330
C
100
AcDbDictionary
281
     1
  3
ByBlock
350
12
  3
ByLayer
350
11
  3
Global
350
13
  0
DICTIONARY
  5
2C
102
{ACAD_REACTORS
330
C
102
}
330
C
100
AcDbDictionary
281
     1
  3
Standard
350
2D
  0
DICTIONARY
  5
2E
102
{ACAD_REACTORS
330
C
102
}
330
C
100
AcDbDictionary
281
     1
  0
ACDBDICTIONARYWDFLT
  5
E
102
{ACAD_REACTORS
330
C
102
}
330
C
100
AcDbDictionary
281
     1
  3
Normal
350
F
100
AcDbDictionaryWithDefault
340
F
  0
DICTIONARY
  5
31
102
{ACAD_REACTORS
330
C
102
}
330
C
100
AcDbDictionary
281
     1
  3
Standard
350
32
  0
DICTIONARY
  5
14
102
{ACAD_REACTORS
330
C
102
}
330
C
100
AcDbDictionary
281
     1
  3
2dWireframe
350
1A
  3
3D Hidden
350
1C
  3
3dWireframe
350
1B
  3
Basic
350
19
  3
Brighten
350
20
  3
ColorChange
350
24
  3
Conceptual
350
1D
  3
Dim
350
1F
  3
Facepattern
350
23
  3
Flat
350
15
  3
FlatWithEdges
350
16
  3
Gouraud
350
17
  3
GouraudWithEdges
350
18
  3
Linepattern
350
22
  3
Realistic
350
1E
  3
Thicken
350
21
  0
DICTIONARY
  5
188
102
{ACAD_REACTORS
330
C
102
}
330
C
100
AcDbDictionary
281
     1
  3
CTABLESTYLE
350
189
  3
DIMASSOC
350
1B5
  3
HIDETEXT
350
1B4
  3
INDEXCTL
350
1B3
  3
SORTENTS
350
1B2
  0
XRECORD
  5
463
102
{ACAD_REACTORS
330
C
102
}
330
C
100
AcDbXrecord
280
     1
  1
DWGPROPS COOKIE
  2

  3

  4

  6

  7

  8
Administrator
  9

300
=
301
=
302
=
303
=
304
=
305
=
306
=
307
=
308
=
309
=
 40
0.0600967708333333
 41
2457199.642974699
 42
2457199.761076783
  1

 90
        0
  0
SORTENTSTABLE
  5
443
102
{ACAD_REACTORS
330
442
102
}
330
442
100
AcDbSortentsTable
330
37
331
3A3
  5
3A8
331
3F4
  5
423
331
3A6
  5
3AB
331
253
  5
39B
331
3A9
  5
3AE
331
408
  5
45E
331
22A
  5
252
331
3D3
  5
3D8
331
20B
  5
20D
331
222
  5
229
331
3AC
  5
3C7
331
398
  5
39D
331
3D6
  5
3DB
331
1E7
  5
1E7
331
3E1
  5
3F5
331
39B
  5
3A0
331
3D9
  5
3DE
331
230
  5
398
331
39E
  5
3A3
331
214
  5
221
331
3DC
  5
3E1
331
1ED
  5
1ED
331
3E7
  5
3F6
331
3C8
  5
3D4
331
3DF
  5
3F3
331
3A1
  5
3A6
331
3A4
  5
3A9
331
251
  5
399
331
21A
  5
226
331
1FB
  5
205
331
3F5
  5
43D
331
3A7
  5
3AC
331
254
  5
39C
331
228
  5
230
331
3D1
  5
3D6
331
3AA
  5
3B8
331
1E2
  5
1E2
331
409
  5
460
331
22B
  5
253
331
423
  5
461
331
20C
  5
215
331
3AD
  5
3C8
331
223
  5
22A
331
3D4
  5
3D9
331
3D7
  5
3DC
331
399
  5
39E
331
3B8
  5
3D1
331
226
  5
22B
331
207
  5
208
331
39C
  5
3A1
331
212
  5
21A
331
3DA
  5
3DF
331
1EB
  5
1EB
331
39F
  5
3A4
331
3DD
  5
3E7
331
1EE
  5
1EE
331
3F0
  5
408
331
3C9
  5
3D5
331
3A2
  5
3A7
331
3F3
  5
409
331
3A5
  5
3AA
331
252
  5
39A
331
3F6
  5
441
331
3A8
  5
3AD
331
229
  5
251
331
20A
  5
20C
331
3D2
  5
3D7
331
3AB
  5
3C4
331
221
  5
228
331
1E3
  5
1E3
331
3D5
  5
3DA
331
3AE
  5
3C9
331
1E6
  5
1E6
331
205
  5
207
331
441
  5
1FB
331
3E0
  5
3F4
331
39A
  5
39F
331
3D8
  5
3DD
331
22F
  5
254
331
227
  5
22F
331
3C4
  5
3D2
331
39D
  5
3A2
331
3DB
  5
3E0
331
1EC
  5
1EC
331
3C7
  5
3D3
331
3A0
  5
3A5
331
3DE
  5
3F0
  0
XRECORD
  5
465
102
{ACAD_REACTORS
330
464
102
}
330
464
100
AcDbXrecord
280
     1
 40
1.570796326794896
  0
LAYOUT
  5
3A
102
{ACAD_XDICTIONARY
360
46A
102
}
102
{ACAD_REACTORS
330
2F
102
}
330
2F
100
AcDbPlotSettings
  1

  2
C:\Users\Administrator\AppData\Roaming\Autodesk\AutoCAD 2007\R17.0\chs\plotters\Default Windows System Printer.pc3
  4

  6

 40
0.0
 41
0.0
 42
0.0
 43
0.0
 44
0.0
 45
0.0
 46
0.0
 47
0.0
 48
0.0
 49
0.0
140
0.0
141
0.0
142
1.0
143
1.0
 70
  1712
 72
     0
 73
     0
 74
     0
  7

 75
     0
147
1.0
148
0.0
149
0.0
100
AcDbLayout
  1
Model
 70
     1
 71
     0
 10
0.0
 20
0.0
 11
12.0
 21
9.0
 12
0.0
 22
0.0
 32
0.0
 14
0.0
 24
0.0
 34
0.0
 15
0.0
 25
0.0
 35
0.0
146
0.0
 13
0.0
 23
0.0
 33
0.0
 16
1.0
 26
0.0
 36
0.0
 17
0.0
 27
1.0
 37
0.0
 76
     0
330
37
331
28
  0
LAYOUT
  5
36
102
{ACAD_XDICTIONARY
360
468
102
}
102
{ACAD_REACTORS
330
2F
102
}
330
2F
100
AcDbPlotSettings
  1

  2
C:\Users\Administrator\AppData\Roaming\Autodesk\AutoCAD 2007\R17.0\chs\plotters\Default Windows System Printer.pc3
  4

  6

 40
0.0
 41
0.0
 42
0.0
 43
0.0
 44
0.0
 45
0.0
 46
0.0
 47
0.0
 48
0.0
 49
0.0
140
0.0
141
0.0
142
1.0
143
1.0
 70
   688
 72
     0
 73
     0
 74
     5
  7

 75
    16
147
1.0
148
0.0
149
0.0
100
AcDbLayout
  1
布局1
 70
     1
 71
     1
 10
0.0
 20
0.0
 11
420.0
 21
297.0
 12
0.0
 22
0.0
 32
0.0
 14
1.000000000000000E+20
 24
1.000000000000000E+20
 34
1.000000000000000E+20
 15
-1.000000000000000E+20
 25
-1.000000000000000E+20
 35
-1.000000000000000E+20
146
0.0
 13
0.0
 23
0.0
 33
0.0
 16
1.0
 26
0.0
 36
0.0
 17
0.0
 27
1.0
 37
0.0
 76
     0
330
33
  0
LAYOUT
  5
3E
102
{ACAD_XDICTIONARY
360
46C
102
}
102
{ACAD_REACTORS
330
2F
102
}
330
2F
100
AcDbPlotSettings
  1

  2
C:\Users\Administrator\AppData\Roaming\Autodesk\AutoCAD 2007\R17.0\chs\plotters\Default Windows System Printer.pc3
  4

  6

 40
0.0
 41
0.0
 42
0.0
 43
0.0
 44
0.0
 45
0.0
 46
0.0
 47
0.0
 48
0.0
 49
0.0
140
0.0
141
0.0
142
1.0
143
1.0
 70
   688
 72
     0
 73
     0
 74
     5
  7

 75
    16
147
1.0
148
0.0
149
0.0
100
AcDbLayout
  1
布局2
 70
     1
 71
     2
 10
0.0
 20
0.0
 11
12.0
 21
9.0
 12
0.0
 22
0.0
 32
0.0
 14
0.0
 24
0.0
 34
0.0
 15
0.0
 25
0.0
 35
0.0
146
0.0
 13
0.0
 23
0.0
 33
0.0
 16
1.0
 26
0.0
 36
0.0
 17
0.0
 27
1.0
 37
0.0
 76
     0
330
3B
  0
MATERIAL
  5
12
102
{ACAD_XDICTIONARY
360
1CD
102
}
102
{ACAD_REACTORS
330
10
102
}
330
10
100
AcDbMaterial
  1
ByBlock
  0
MATERIAL
  5
11
102
{ACAD_XDICTIONARY
360
1CB
102
}
102
{ACAD_REACTORS
330
10
102
}
330
10
100
AcDbMaterial
  1
ByLayer
  0
MATERIAL
  5
13
102
{ACAD_XDICTIONARY
360
1CF
102
}
102
{ACAD_REACTORS
330
10
102
}
330
10
100
AcDbMaterial
  1
Global
  0
MLINESTYLE
  5
2D
102
{ACAD_REACTORS
330
2C
102
}
330
2C
100
AcDbMlineStyle
  2
STANDARD
 70
     0
  3

 62
   256
 51
90.0
 52
90.0
 71
     2
 49
0.5
 62
   256
  6
BYLAYER
 49
-0.5
 62
   256
  6
BYLAYER
  0
ACDBPLACEHOLDER
  5
F
102
{ACAD_REACTORS
330
E
102
}
330
E
  0
TABLESTYLE
  5
32
102
{ACAD_XDICTIONARY
360
466
102
}
102
{ACAD_REACTORS
330
31
102
}
330
31
100
AcDbTableStyle
  3
Standard
 70
     0
 71
     0
 40
1.5
 41
1.5
280
     0
281
     0
  7
Standard
140
4.5
170
     2
 62
     0
 63
     7
283
     0
274
    -2
284
     1
 64
     0
275
    -2
285
     1
 65
     0
276
    -2
286
     1
 66
     0
277
    -2
287
     1
 67
     0
278
    -2
288
     1
 68
     0
279
    -2
289
     1
 69
     0
  7
Standard
140
6.0
170
     5
 62
     0
 63
     7
283
     0
274
    -2
284
     1
 64
     0
275
    -2
285
     1
 65
     0
276
    -2
286
     1
 66
     0
277
    -2
287
     1
 67
     0
278
    -2
288
     1
 68
     0
279
    -2
289
     1
 69
     0
  7
Standard
140
4.5
170
     5
 62
     0
 63
     7
283
     0
274
    -2
284
     1
 64
     0
275
    -2
285
     1
 65
     0
276
    -2
286
     1
 66
     0
277
    -2
287
     1
 67
     0
278
    -2
288
     1
 68
     0
279
    -2
289
     1
 69
     0
  0
VISUALSTYLE
  5
1A
102
{ACAD_REACTORS
330
14
102
}
330
14
100
AcDbVisualStyle
  2
2dWireframe
 70
     4
 71
     0
 72
     2
 73
     0
 90
        0
 40
-0.6
 41
-30.0
 62
     5
 63
     7
 74
     1
 91
        4
 64
     7
 65
   257
 75
     1
175
     1
 42
1.0
 92
        0
 66
   257
 43
1.0
 76
     1
 77
     6
 78
     2
 67
     7
 79
     5
170
     0
171
     0
290
     0
174
     0
 93
        1
 44
0.0
173
     0
291
     0
 45
0.0
1001
ACAD
1000
AcDbSavedByObjectVersion
1070
     0
1000
AcDbSavedByObjectVersion
1070
     0
  0
VISUALSTYLE
  5
1C
102
{ACAD_REACTORS
330
14
102
}
330
14
100
AcDbVisualStyle
  2
3D Hidden
 70
     6
 71
     1
 72
     2
 73
     2
 90
        0
 40
-0.6
 41
-30.0
 62
     5
 63
     7
 74
     2
 91
        2
 64
     7
 65
   257
 75
     2
175
     1
 42
40.0
 92
        0
 66
   257
 43
1.0
 76
     1
 77
     6
 78
     2
 67
     7
 79
     3
170
     0
171
     0
290
     0
174
     0
 93
        1
 44
0.0
173
     0
291
     0
 45
0.0
1001
ACAD
1000
AcDbSavedByObjectVersion
1070
     0
1000
AcDbSavedByObjectVersion
1070
     0
  0
VISUALSTYLE
  5
1B
102
{ACAD_REACTORS
330
14
102
}
330
14
100
AcDbVisualStyle
  2
3dWireframe
 70
     5
 71
     0
 72
     2
 73
     0
 90
        0
 40
-0.6
 41
-30.0
 62
     5
 63
     7
 74
     1
 91
        4
 64
     7
 65
   257
 75
     1
175
     1
 42
1.0
 92
        0
 66
   257
 43
1.0
 76
     1
 77
     6
 78
     2
 67
     7
 79
     5
170
     0
171
     0
290
     0
174
     0
 93
        1
 44
0.0
173
     0
291
     0
 45
0.0
1001
ACAD
1000
AcDbSavedByObjectVersion
1070
     0
1000
AcDbSavedByObjectVersion
1070
     0
  0
VISUALSTYLE
  5
19
102
{ACAD_REACTORS
330
14
102
}
330
14
100
AcDbVisualStyle
  2
Basic
 70
     7
 71
     1
 72
     0
 73
     1
 90
        0
 40
-0.6
 41
-30.0
 62
     5
 63
     7
 74
     0
 91
        4
 64
     7
 65
   257
 75
     1
175
     1
 42
1.0
 92
        8
 66
     7
 43
1.0
 76
     1
 77
     6
 78
     2
 67
     7
 79
     5
170
     0
171
     0
290
     0
174
     0
 93
        1
 44
0.0
173
     0
291
     1
 45
0.0
1001
ACAD
1000
AcDbSavedByObjectVersion
1070
     0
1000
AcDbSavedByObjectVersion
1070
     0
  0
VISUALSTYLE
  5
20
102
{ACAD_REACTORS
330
14
102
}
330
14
100
AcDbVisualStyle
  2
Brighten
 70
    12
 71
     2
 72
     2
 73
     0
 90
        0
 40
-0.6
 41
-30.0
 62
     5
 63
     7
 74
     1
 91
        4
 64
     7
 65
   257
 75
     1
175
     1
 42
1.0
 92
        8
 66
     7
 43
1.0
 76
     1
 77
     6
 78
     2
 67
     7
 79
     5
170
     0
171
     0
290
     0
174
     0
 93
        1
 44
50.0
173
     0
291
     1
 45
0.0
1001
ACAD
1000
AcDbSavedByObjectVersion
1070
     0
1000
AcDbSavedByObjectVersion
1070
     0
  0
VISUALSTYLE
  5
24
102
{ACAD_REACTORS
330
14
102
}
330
14
100
AcDbVisualStyle
  2
ColorChange
 70
    16
 71
     2
 72
     2
 73
     3
 90
        0
 40
-0.6
 41
-30.0
 62
     5
 63
     8
 74
     1
 91
        4
 64
     7
 65
   257
 75
     1
175
     1
 42
1.0
 92
        8
 66
     8
 43
1.0
 76
     1
 77
     6
 78
     2
 67
     7
 79
     5
170
     0
171
     0
290
     0
174
     0
 93
        1
 44
0.0
173
     0
291
     1
 45
0.0
1001
ACAD
1000
AcDbSavedByObjectVersion
1070
     0
1000
AcDbSavedByObjectVersion
1070
     0
  0
VISUALSTYLE
  5
1D
102
{ACAD_REACTORS
330
14
102
}
330
14
100
AcDbVisualStyle
  2
Conceptual
 70
     9
 71
     3
 72
     2
 73
     0
 90
        0
 40
-0.6
 41
-30.0
 62
     5
 63
     7
 74
     2
 91
        2
 64
     7
 65
   257
 75
     1
175
     1
 42
40.0
 92
        8
 66
     7
 43
1.0
 76
     1
 77
     6
 78
     2
 67
     7
 79
     3
170
     0
171
     0
290
     0
174
     0
 93
        1
 44
0.0
173
     0
291
     0
 45
0.0
1001
ACAD
1000
AcDbSavedByObjectVersion
1070
     0
1000
AcDbSavedByObjectVersion
1070
     0
  0
VISUALSTYLE
  5
1F
102
{ACAD_REACTORS
330
14
102
}
330
14
100
AcDbVisualStyle
  2
Dim
 70
    11
 71
     2
 72
     2
 73
     0
 90
        0
 40
-0.6
 41
-30.0
 62
     5
 63
     7
 74
     1
 91
        4
 64
     7
 65
   257
 75
     1
175
     1
 42
1.0
 92
        8
 66
     7
 43
1.0
 76
     1
 77
     6
 78
     2
 67
     7
 79
     5
170
     0
171
     0
290
     0
174
     0
 93
        1
 44
-50.0
173
     0
291
     1
 45
0.0
1001
ACAD
1000
AcDbSavedByObjectVersion
1070
     0
1000
AcDbSavedByObjectVersion
1070
     0
  0
VISUALSTYLE
  5
23
102
{ACAD_REACTORS
330
14
102
}
330
14
100
AcDbVisualStyle
  2
Facepattern
 70
    15
 71
     2
 72
     2
 73
     0
 90
        0
 40
-0.6
 41
-30.0
 62
     5
 63
     7
 74
     1
 91
        4
 64
     7
 65
   257
 75
     1
175
     1
 42
1.0
 92
        8
 66
     7
 43
1.0
 76
     1
 77
     6
 78
     2
 67
     7
 79
     5
170
     0
171
     0
290
     0
174
     0
 93
        1
 44
0.0
173
     0
291
     1
 45
0.0
1001
ACAD
1000
AcDbSavedByObjectVersion
1070
     0
1000
AcDbSavedByObjectVersion
1070
     0
  0
VISUALSTYLE
  5
15
102
{ACAD_REACTORS
330
14
102
}
330
14
100
AcDbVisualStyle
  2
Flat
 70
     0
 71
     2
 72
     1
 73
     1
 90
        2
 40
-0.6
 41
30.0
 62
     5
 63
     7
 74
     0
 91
        4
 64
     7
 65
   257
 75
     1
175
     1
 42
1.0
 92
        8
 66
     7
 43
1.0
 76
     1
 77
     6
 78
     2
 67
     7
 79
     5
170
     0
171
     0
290
     0
174
     0
 93
       13
 44
0.0
173
     0
291
     1
 45
0.0
1001
ACAD
1000
AcDbSavedByObjectVersion
1070
     0
1000
AcDbSavedByObjectVersion
1070
     0
  0
VISUALSTYLE
  5
16
102
{ACAD_REACTORS
330
14
102
}
330
14
100
AcDbVisualStyle
  2
FlatWithEdges
 70
     1
 71
     2
 72
     1
 73
     1
 90
        2
 40
-0.6
 41
30.0
 62
     5
 63
     7
 74
     1
 91
        4
 64
     7
 65
   257
 75
     1
175
     1
 42
1.0
 92
        0
 66
   257
 43
1.0
 76
     1
 77
     6
 78
     2
 67
     7
 79
     5
170
     0
171
     0
290
     0
174
     0
 93
       13
 44
0.0
173
     0
291
     1
 45
0.0
1001
ACAD
1000
AcDbSavedByObjectVersion
1070
     0
1000
AcDbSavedByObjectVersion
1070
     0
  0
VISUALSTYLE
  5
17
102
{ACAD_REACTORS
330
14
102
}
330
14
100
AcDbVisualStyle
  2
Gouraud
 70
     2
 71
     2
 72
     2
 73
     1
 90
        2
 40
-0.6
 41
30.0
 62
     5
 63
     7
 74
     0
 91
        4
 64
     7
 65
   257
 75
     1
175
     1
 42
1.0
 92
        0
 66
     7
 43
1.0
 76
     1
 77
     6
 78
     2
 67
     7
 79
     5
170
     0
171
     0
290
     0
174
     0
 93
       13
 44
0.0
173
     0
291
     1
 45
0.0
1001
ACAD
1000
AcDbSavedByObjectVersion
1070
     0
1000
AcDbSavedByObjectVersion
1070
     0
  0
VISUALSTYLE
  5
18
102
{ACAD_REACTORS
330
14
102
}
330
14
100
AcDbVisualStyle
  2
GouraudWithEdges
 70
     3
 71
     2
 72
     2
 73
     1
 90
        2
 40
-0.6
 41
30.0
 62
     5
 63
     7
 74
     1
 91
        4
 64
     7
 65
   257
 75
     1
175
     1
 42
1.0
 92
        0
 66
   257
 43
1.0
 76
     1
 77
     6
 78
     2
 67
     7
 79
     5
170
     0
171
     0
290
     0
174
     0
 93
       13
 44
0.0
173
     0
291
     1
 45
0.0
1001
ACAD
1000
AcDbSavedByObjectVersion
1070
     0
1000
AcDbSavedByObjectVersion
1070
     0
  0
VISUALSTYLE
  5
22
102
{ACAD_REACTORS
330
14
102
}
330
14
100
AcDbVisualStyle
  2
Linepattern
 70
    14
 71
     2
 72
     2
 73
     0
 90
        0
 40
-0.6
 41
-30.0
 62
     5
 63
     7
 74
     1
 91
        4
 64
     7
 65
   257
 75
     7
175
     7
 42
1.0
 92
        8
 66
     7
 43
1.0
 76
     1
 77
     6
 78
     2
 67
     7
 79
     5
170
     0
171
     0
290
     0
174
     0
 93
        1
 44
0.0
173
     0
291
     1
 45
0.0
1001
ACAD
1000
AcDbSavedByObjectVersion
1070
     0
1000
AcDbSavedByObjectVersion
1070
     0
  0
VISUALSTYLE
  5
1E
102
{ACAD_REACTORS
330
14
102
}
330
14
100
AcDbVisualStyle
  2
Realistic
 70
     8
 71
     2
 72
     2
 73
     0
 90
        0
 40
-0.6
 41
-30.0
 62
     5
 63
     7
 74
     1
 91
        0
 64
     7
 65
   257
 75
     1
175
     1
 42
1.0
 92
        8
 66
     8
 43
1.0
 76
     1
 77
     6
 78
     2
 67
     7
 79
     5
170
     0
171
     0
290
     0
174
     0
 93
       13
 44
0.0
173
     0
291
     0
 45
0.0
1001
ACAD
1000
AcDbSavedByObjectVersion
1070
     0
1000
AcDbSavedByObjectVersion
1070
     0
  0
VISUALSTYLE
  5
21
102
{ACAD_REACTORS
330
14
102
}
330
14
100
AcDbVisualStyle
  2
Thicken
 70
    13
 71
     2
 72
     2
 73
     0
 90
        0
 40
-0.6
 41
-30.0
 62
     5
 63
     7
 74
     1
 91
        4
 64
     7
 65
   257
 75
     1
175
     1
 42
1.0
 92
       12
 66
     7
 43
1.0
 76
     1
 77
     6
 78
     2
 67
     7
 79
     5
170
     0
171
     0
290
     0
174
     0
 93
        1
 44
0.0
173
     0
291
     1
 45
0.0
1001
ACAD
1000
AcDbSavedByObjectVersion
1070
     0
1000
AcDbSavedByObjectVersion
1070
     0
  0
DICTIONARYVAR
  5
189
102
{ACAD_REACTORS
330
188
102
}
330
188
100
DictionaryVariables
280
     0
  1
STANDARD
  0
DICTIONARYVAR
  5
1B5
102
{ACAD_REACTORS
330
188
102
}
330
188
100
DictionaryVariables
280
     0
  1
2
  0
DICTIONARYVAR
  5
1B4
102
{ACAD_REACTORS
330
188
102
}
330
188
100
DictionaryVariables
280
     0
  1
1
  0
DICTIONARYVAR
  5
1B3
102
{ACAD_REACTORS
330
188
102
}
330
188
100
DictionaryVariables
280
     0
  1
0
  0
DICTIONARYVAR
  5
1B2
102
{ACAD_REACTORS
330
188
102
}
330
188
100
DictionaryVariables
280
     0
  1
127
  0
DICTIONARY
  5
46A
330
3A
100
AcDbDictionary
280
     1
281
     1
  3
ACAD_XREC_ROUNDTRIP
360
46B
  0
DICTIONARY
  5
468
330
36
100
AcDbDictionary
280
     1
281
     1
  3
ACAD_XREC_ROUNDTRIP
360
469
  0
DICTIONARY
  5
46C
330
3E
100
AcDbDictionary
280
     1
281
     1
  3
ACAD_XREC_ROUNDTRIP
360
46D
  0
DICTIONARY
  5
1CD
330
12
100
AcDbDictionary
280
     1
281
     1
  3
ACAD_XREC_ROUNDTRIP
360
1CE
  0
DICTIONARY
  5
1CB
330
11
100
AcDbDictionary
280
     1
281
     1
  3
ACAD_XREC_ROUNDTRIP
360
1CC
  0
DICTIONARY
  5
1CF
330
13
100
AcDbDictionary
280
     1
281
     1
  3
ACAD_XREC_ROUNDTRIP
360
1D0
  0
DICTIONARY
  5
466
330
32
100
AcDbDictionary
280
     1
281
     1
  3
ACAD_XREC_ROUNDTRIP
360
467
  0
XRECORD
  5
46B
102
{ACAD_REACTORS
330
46A
102
}
330
46A
100
AcDbXrecord
280
     1
102
SHADEPLOT
 70
     0
102
SHADEPLOTRESLEVEL
 70
     2
102
SHADEPLOTCUSTOMDPI
 70
   300
  0
XRECORD
  5
469
102
{ACAD_REACTORS
330
468
102
}
330
468
100
AcDbXrecord
280
     1
102
SHADEPLOT
 70
     0
102
SHADEPLOTRESLEVEL
 70
     2
102
SHADEPLOTCUSTOMDPI
 70
   300
  0
XRECORD
  5
46D
102
{ACAD_REACTORS
330
46C
102
}
330
46C
100
AcDbXrecord
280
     1
102
SHADEPLOT
 70
     0
102
SHADEPLOTRESLEVEL
 70
     2
102
SHADEPLOTCUSTOMDPI
 70
   300
  0
XRECORD
  5
1CE
102
{ACAD_REACTORS
330
1CD
102
}
330
1CD
100
AcDbXrecord
280
     1
102
MATERIAL
148
0.0
149
0.0
149
0.0
 93
        0
 94
       63
282
     0
 72
     1
 77
     1
171
     1
175
     1
179
     1
273
     0
  0
XRECORD
  5
1CC
102
{ACAD_REACTORS
330
1CB
102
}
330
1CB
100
AcDbXrecord
280
     1
102
MATERIAL
148
0.0
149
0.0
149
0.0
 93
        0
 94
       63
282
     0
 72
     1
 77
     1
171
     1
175
     1
179
     1
273
     0
  0
XRECORD
  5
1D0
102
{ACAD_REACTORS
330
1CF
102
}
330
1CF
100
AcDbXrecord
280
     1
102
MATERIAL
148
0.0
149
0.0
149
0.0
 93
        0
 94
       63
282
     0
 72
     1
 77
     1
171
     1
175
     1
179
     1
273
     0
  0
XRECORD
  5
467
102
{ACAD_REACTORS
330
466
102
}
330
466
100
AcDbXrecord
280
     1
102
ACAD_ROUNDTRIP_PRE2007_TABLESTYLE
 90
      512
 91
        0
  1

 92
      512
 93
        0
  2

 94
      512
 95
        0
  3

  0
ENDSEC
  0
EOF
