  0
SECTION
  2
HEADER
  9
$EXTMIN
 10
19.09104
 20
15.33137
 30
0.0000
  9
$EXTMAX
 10
20.90896
 20
16.66863
 30
0.0000
  0
ENDSEC
  0
SECTION
  2
TABLES
  0
TABLE
  2
LTYPE
 70
3
  0
LTYPE
  2
BYBLOCK
 70
0
  3

 72
65
 73
0
 40
0.0000
  0
LTYPE
  2
BYLAYER
 70
0
  3

 72
65
 73
0
 40
0.0000
  0
LTYPE
  2
CONTINUOUS
 70
0
  3
Solid line
 72
65
 73
0
 40
0.0000
  0
ENDTAB
  0
TABLE
  2
LAYER
 70
2
  0
LAYER
  2
0
 70
0
 62
7
  6
CONTINUOUS
  0
LAYER
  2
GEN000_PHO
 70
0
 62
7
  6
CONTINUOUS
  0
LAYER
  2
GEN001_PHO
 70
0
 62
6
  6
CONTINUOUS
  0
ENDTAB
  0
TABLE
  2
STYLE
 70
0
  0
ENDTAB
  0
ENDSEC
  0
SECTION
  2
BLOCKS
  0
BLOCK
  2
ROUND_1
  3
ROUND_1
 70
64
 10
0.0000
 20
0.0000
 30
0.0000
  0
CIRCLE
  8
0
 10
0.0000
 20
0.0000
 30
0.0000
 40
0.0030
  0
ENDBLK
  0
BLOCK
  2
ROUND_2
  3
ROUND_2
 70
64
 10
0.0000
 20
0.0000
 30
0.0000
  0
CIRCLE
  8
0
 10
0.0000
 20
0.0000
 30
0.0000
 40
0.0025
  0
ENDBLK
  0
BLOCK
  2
ROUND_3
  3
ROUND_3
 70
64
 10
0.0000
 20
0.0000
 30
0.0000
  0
CIRCLE
  8
0
 10
0.0000
 20
0.0000
 30
0.0000
 40
0.0040
  0
ENDBLK
  0
BLOCK
  2
ROUND_4
  3
ROUND_4
 70
64
 10
0.0000
 20
0.0000
 30
0.0000
  0
CIRCLE
  8
0
 10
0.0000
 20
0.0000
 30
0.0000
 40
0.0005
  0
ENDBLK
  0
BLOCK
  2
ROUND_16
  3
ROUND_16
 70
64
 10
0.0000
 20
0.0000
 30
0.0000
  0
CIRCLE
  8
0
 10
0.0000
 20
0.0000
 30
0.0000
 40
0.0050
  0
ENDBLK
  0
BLOCK
  2
ROUND_17
  3
ROUND_17
 70
64
 10
0.0000
 20
0.0000
 30
0.0000
  0
CIRCLE
  8
0
 10
0.0000
 20
0.0000
 30
0.0000
 40
0.0060
  0
ENDBLK
  0
BLOCK
  2
ROUND_20
  3
ROUND_20
 70
64
 10
0.0000
 20
0.0000
 30
0.0000
  0
CIRCLE
  8
0
 10
0.0000
 20
0.0000
 30
0.0000
 40
0.0035
  0
ENDBLK
  0
BLOCK
  2
ROUND_33
  3
ROUND_33
 70
64
 10
0.0000
 20
0.0000
 30
0.0000
  0
CIRCLE
  8
0
 10
0.0000
 20
0.0000
 30
0.0000
 40
0.002955
  0
ENDBLK
  0
BLOCK
  2
SQUARE_37
  3
SQUARE_37
 70
64
 10
0.0000
 20
0.0000
 30
0.0000
  0
SOLID
  8
0
 10
0.0180
 20
0.0180
 30
0.0000
 11
0.0180
 21
-0.0180
 31
0.0000
 12
-0.0180
 22
0.0180
 32
0.0000
 13
-0.0180
 23
-0.0180
 33
0.0000
  0
ENDBLK
  0
BLOCK
  2
SQUARE_55
  3
SQUARE_55
 70
64
 10
0.0000
 20
0.0000
 30
0.0000
  0
SOLID
  8
0
 10
0.0150
 20
0.0150
 30
0.0000
 11
0.0150
 21
-0.0150
 31
0.0000
 12
-0.0150
 22
0.0150
 32
0.0000
 13
-0.0150
 23
-0.0150
 33
0.0000
  0
ENDBLK
  0
BLOCK
  2
RECTANGLE_56
  3
RECTANGLE_56
 70
64
 10
0.0000
 20
0.0000
 30
0.0000
  0
SOLID
  8
0
 10
0.0250
 20
0.0200
 30
0.0000
 11
0.0250
 21
-0.0200
 31
0.0000
 12
-0.0250
 22
0.0200
 32
0.0000
 13
-0.0250
 23
-0.0200
 33
0.0000
  0
ENDBLK
  0
BLOCK
  2
RECTANGLE_59
  3
RECTANGLE_59
 70
64
 10
0.0000
 20
0.0000
 30
0.0000
  0
SOLID
  8
0
 10
0.0200
 20
0.0250
 30
0.0000
 11
0.0200
 21
-0.0250
 31
0.0000
 12
-0.0200
 22
0.0250
 32
0.0000
 13
-0.0200
 23
-0.0250
 33
0.0000
  0
ENDBLK
  0
BLOCK
  2
ROUND_65
  3
ROUND_65
 70
64
 10
0.0000
 20
0.0000
 30
0.0000
  0
CIRCLE
  8
0
 10
0.0000
 20
0.0000
 30
0.0000
 40
0.03937
  0
ENDBLK
  0
BLOCK
  2
ROUND_73
  3
ROUND_73
 70
64
 10
0.0000
 20
0.0000
 30
0.0000
  0
CIRCLE
  8
0
 10
0.0000
 20
0.0000
 30
0.0000
 40
0.0175
  0
ENDBLK
  0
BLOCK
  2
ROUND_77
  3
ROUND_77
 70
64
 10
0.0000
 20
0.0000
 30
0.0000
  0
CIRCLE
  8
0
 10
0.0000
 20
0.0000
 30
0.0000
 40
0.00197
  0
ENDBLK
  0
BLOCK
  2
RECTANGLE_112
  3
RECTANGLE_112
 70
64
 10
0.0000
 20
0.0000
 30
0.0000
  0
SOLID
  8
0
 10
0.0180
 20
0.0250
 30
0.0000
 11
0.0180
 21
-0.0250
 31
0.0000
 12
-0.0180
 22
0.0250
 32
0.0000
 13
-0.0180
 23
-0.0250
 33
0.0000
  0
ENDBLK
  0
BLOCK
  2
SQUARE_208
  3
SQUARE_208
 70
64
 10
0.0000
 20
0.0000
 30
0.0000
  0
SOLID
  8
0
 10
0.0165
 20
0.0165
 30
0.0000
 11
0.0165
 21
-0.0165
 31
0.0000
 12
-0.0165
 22
0.0165
 32
0.0000
 13
-0.0165
 23
-0.0165
 33
0.0000
  0
ENDBLK
  0
BLOCK
  2
ROUND_236
  3
ROUND_236
 70
64
 10
0.0000
 20
0.0000
 30
0.0000
  0
CIRCLE
  8
0
 10
0.0000
 20
0.0000
 30
0.0000
 40
0.01575
  0
ENDBLK
  0
BLOCK
  2
RECTANGLE_248
  3
RECTANGLE_248
 70
64
 10
0.0000
 20
0.0000
 30
0.0000
  0
SOLID
  8
0
 10
0.0100
 20
0.0125
 30
0.0000
 11
0.0100
 21
-0.0125
 31
0.0000
 12
-0.0100
 22
0.0125
 32
0.0000
 13
-0.0100
 23
-0.0125
 33
0.0000
  0
ENDBLK
  0
BLOCK
  2
RECTANGLE_249
  3
RECTANGLE_249
 70
64
 10
0.0000
 20
0.0000
 30
0.0000
  0
SOLID
  8
0
 10
0.0125
 20
0.0100
 30
0.0000
 11
0.0125
 21
-0.0100
 31
0.0000
 12
-0.0125
 22
0.0100
 32
0.0000
 13
-0.0125
 23
-0.0100
 33
0.0000
  0
ENDBLK
  0
BLOCK
  2
RECTANGLE_255
  3
RECTANGLE_255
 70
64
 10
0.0000
 20
0.0000
 30
0.0000
  0
SOLID
  8
0
 10
0.0250
 20
0.0180
 30
0.0000
 11
0.0250
 21
-0.0180
 31
0.0000
 12
-0.0250
 22
0.0180
 32
0.0000
 13
-0.0250
 23
-0.0180
 33
0.0000
  0
ENDBLK
  0
BLOCK
  2
RECTANGLE_262
  3
RECTANGLE_262
 70
64
 10
0.0000
 20
0.0000
 30
0.0000
  0
SOLID
  8
0
 10
0.026575
 20
0.007875
 30
0.0000
 11
0.026575
 21
-0.007875
 31
0.0000
 12
-0.026575
 22
0.007875
 32
0.0000
 13
-0.026575
 23
-0.007875
 33
0.0000
  0
ENDBLK
  0
BLOCK
  2
RECTANGLE_263
  3
RECTANGLE_263
 70
64
 10
0.0000
 20
0.0000
 30
0.0000
  0
SOLID
  8
0
 10
0.047245
 20
0.043305
 30
0.0000
 11
0.047245
 21
-0.043305
 31
0.0000
 12
-0.047245
 22
0.043305
 32
0.0000
 13
-0.047245
 23
-0.043305
 33
0.0000
  0
ENDBLK
  0
BLOCK
  2
SQUARE_267
  3
SQUARE_267
 70
64
 10
0.0000
 20
0.0000
 30
0.0000
  0
SOLID
  8
0
 10
0.03937
 20
0.03937
 30
0.0000
 11
0.03937
 21
-0.03937
 31
0.0000
 12
-0.03937
 22
0.03937
 32
0.0000
 13
-0.03937
 23
-0.03937
 33
0.0000
  0
ENDBLK
  0
BLOCK
  2
RECTANGLE_268
  3
RECTANGLE_268
 70
64
 10
0.0000
 20
0.0000
 30
0.0000
  0
SOLID
  8
0
 10
0.02362
 20
0.007875
 30
0.0000
 11
0.02362
 21
-0.007875
 31
0.0000
 12
-0.02362
 22
0.007875
 32
0.0000
 13
-0.02362
 23
-0.007875
 33
0.0000
  0
ENDBLK
  0
BLOCK
  2
ROUND_269
  3
ROUND_269
 70
64
 10
0.0000
 20
0.0000
 30
0.0000
  0
CIRCLE
  8
0
 10
0.0000
 20
0.0000
 30
0.0000
 40
0.022045
  0
ENDBLK
  0
BLOCK
  2
RECTANGLE_270
  3
RECTANGLE_270
 70
64
 10
0.0000
 20
0.0000
 30
0.0000
  0
SOLID
  8
0
 10
0.0374
 20
0.02362
 30
0.0000
 11
0.0374
 21
-0.02362
 31
0.0000
 12
-0.0374
 22
0.02362
 32
0.0000
 13
-0.0374
 23
-0.02362
 33
0.0000
  0
ENDBLK
  0
BLOCK
  2
ROUND_271
  3
ROUND_271
 70
64
 10
0.0000
 20
0.0000
 30
0.0000
  0
CIRCLE
  8
0
 10
0.0000
 20
0.0000
 30
0.0000
 40
0.014175
  0
ENDBLK
  0
BLOCK
  2
RECTANGLE_273
  3
RECTANGLE_273
 70
64
 10
0.0000
 20
0.0000
 30
0.0000
  0
SOLID
  8
0
 10
0.019685
 20
0.021655
 30
0.0000
 11
0.019685
 21
-0.021655
 31
0.0000
 12
-0.019685
 22
0.021655
 32
0.0000
 13
-0.019685
 23
-0.021655
 33
0.0000
  0
ENDBLK
  0
BLOCK
  2
RECTANGLE_274
  3
RECTANGLE_274
 70
64
 10
0.0000
 20
0.0000
 30
0.0000
  0
SOLID
  8
0
 10
0.019685
 20
0.009845
 30
0.0000
 11
0.019685
 21
-0.009845
 31
0.0000
 12
-0.019685
 22
0.009845
 32
0.0000
 13
-0.019685
 23
-0.009845
 33
0.0000
  0
ENDBLK
  0
BLOCK
  2
SQUARE_275
  3
SQUARE_275
 70
64
 10
0.0000
 20
0.0000
 30
0.0000
  0
SOLID
  8
0
 10
0.019685
 20
0.019685
 30
0.0000
 11
0.019685
 21
-0.019685
 31
0.0000
 12
-0.019685
 22
0.019685
 32
0.0000
 13
-0.019685
 23
-0.019685
 33
0.0000
  0
ENDBLK
  0
BLOCK
  2
RECTANGLE_276
  3
RECTANGLE_276
 70
64
 10
0.0000
 20
0.0000
 30
0.0000
  0
SOLID
  8
0
 10
0.0250
 20
0.019685
 30
0.0000
 11
0.0250
 21
-0.019685
 31
0.0000
 12
-0.0250
 22
0.019685
 32
0.0000
 13
-0.0250
 23
-0.019685
 33
0.0000
  0
ENDBLK
  0
BLOCK
  2
RECTANGLE_278
  3
RECTANGLE_278
 70
64
 10
0.0000
 20
0.0000
 30
0.0000
  0
SOLID
  8
0
 10
0.02953
 20
0.01378
 30
0.0000
 11
0.02953
 21
-0.01378
 31
0.0000
 12
-0.02953
 22
0.01378
 32
0.0000
 13
-0.02953
 23
-0.01378
 33
0.0000
  0
ENDBLK
  0
BLOCK
  2
RECTANGLE_279
  3
RECTANGLE_279
 70
64
 10
0.0000
 20
0.0000
 30
0.0000
  0
SOLID
  8
0
 10
0.01575
 20
0.019685
 30
0.0000
 11
0.01575
 21
-0.019685
 31
0.0000
 12
-0.01575
 22
0.019685
 32
0.0000
 13
-0.01575
 23
-0.019685
 33
0.0000
  0
ENDBLK
  0
BLOCK
  2
RECTANGLE_280
  3
RECTANGLE_280
 70
64
 10
0.0000
 20
0.0000
 30
0.0000
  0
SOLID
  8
0
 10
0.019685
 20
0.0250
 30
0.0000
 11
0.019685
 21
-0.0250
 31
0.0000
 12
-0.019685
 22
0.0250
 32
0.0000
 13
-0.019685
 23
-0.0250
 33
0.0000
  0
ENDBLK
  0
BLOCK
  2
RECTANGLE_281
  3
RECTANGLE_281
 70
64
 10
0.0000
 20
0.0000
 30
0.0000
  0
SOLID
  8
0
 10
0.009845
 20
0.019685
 30
0.0000
 11
0.009845
 21
-0.019685
 31
0.0000
 12
-0.009845
 22
0.019685
 32
0.0000
 13
-0.009845
 23
-0.019685
 33
0.0000
  0
ENDBLK
  0
BLOCK
  2
ROUND_282
  3
ROUND_282
 70
64
 10
0.0000
 20
0.0000
 30
0.0000
  0
CIRCLE
  8
0
 10
0.0000
 20
0.0000
 30
0.0000
 40
0.003935
  0
ENDBLK
  0
BLOCK
  2
ROUND_283
  3
ROUND_283
 70
64
 10
0.0000
 20
0.0000
 30
0.0000
  0
CIRCLE
  8
0
 10
0.0000
 20
0.0000
 30
0.0000
 40
0.0049
  0
ENDBLK
  0
BLOCK
  2
OBLONG_284
  3
OBLONG_284
 70
64
 10
0.0000
 20
0.0000
 30
0.0000
  0
POLYLINE
  8
0
 66
1
 10
0.0000
 20
0.0000
 30
0.0000
 40
0.0118099
 41
0.0118099
  0
VERTEX
  8
0
 10
0.033465
 20
0.0000
 30
0.0000
  0
VERTEX
  8
0
 10
-0.033465
 20
0.0000
 30
0.0000
  0
SEQEND
  0
POLYLINE
  8
0
 66
1
 10
0.0000
 20
0.0000
 30
0.0000
 70
1
 40
0.005905
 41
0.005905
  0
VERTEX
  8
0
 10
0.0305126
 20
0.0000
 30
0.0000
 42
1
  0
VERTEX
  8
0
 10
0.0364175
 20
0.0000
 30
0.0000
 42
1
  0
SEQEND
  0
POLYLINE
  8
0
 66
1
 10
0.0000
 20
0.0000
 30
0.0000
 70
1
 40
0.005905
 41
0.005905
  0
VERTEX
  8
0
 10
-0.0364175
 20
0.0000
 30
0.0000
 42
1
  0
VERTEX
  8
0
 10
-0.0305126
 20
0.0000
 30
0.0000
 42
1
  0
SEQEND
  0
ENDBLK
  0
BLOCK
  2
RECTANGLE_285
  3
RECTANGLE_285
 70
64
 10
0.0000
 20
0.0000
 30
0.0000
  0
SOLID
  8
0
 10
0.047245
 20
0.01378
 30
0.0000
 11
0.047245
 21
-0.01378
 31
0.0000
 12
-0.047245
 22
0.01378
 32
0.0000
 13
-0.047245
 23
-0.01378
 33
0.0000
  0
ENDBLK
  0
BLOCK
  2
RECTANGLE_286
  3
RECTANGLE_286
 70
64
 10
0.0000
 20
0.0000
 30
0.0000
  0
SOLID
  8
0
 10
0.031495
 20
0.01378
 30
0.0000
 11
0.031495
 21
-0.01378
 31
0.0000
 12
-0.031495
 22
0.01378
 32
0.0000
 13
-0.031495
 23
-0.01378
 33
0.0000
  0
ENDBLK
  0
ENDSEC
  0
SECTION
  2
ENTITIES
  0
INSERT
  2
SQUARE_37
  8
GEN000_PHO
 10
19.81662
 20
16.49429
 30
0.0000
 41
1.0000
 42
1.0000
 50
0.0000
  0
INSERT
  2
SQUARE_37
  8
GEN000_PHO
 10
19.81662
 20
16.56929
 30
0.0000
 41
1.0000
 42
1.0000
 50
0.0000
  0
INSERT
  2
ROUND_65
  8
GEN000_PHO
 10
19.84381
 20
15.41769
 30
0.0000
 41
1.0000
 42
1.0000
 50
0.0000
  0
INSERT
  2
ROUND_65
  8
GEN000_PHO
 10
19.72846
 20
15.41612
 30
0.0000
 41
1.0000
 42
1.0000
 50
0.0000
  0
INSERT
  2
SQUARE_208
  8
GEN000_PHO
 10
20.05012
 20
15.93679
 30
0.0000
 41
1.0000
 42
1.0000
 50
0.0000
  0
INSERT
  2
SQUARE_208
  8
GEN000_PHO
 10
20.11312
 20
15.93679
 30
0.0000
 41
1.0000
 42
1.0000
 50
0.0000
  0
INSERT
  2
SQUARE_208
  8
GEN000_PHO
 10
20.05012
 20
15.85779
 30
0.0000
 41
1.0000
 42
1.0000
 50
0.0000
  0
INSERT
  2
SQUARE_208
  8
GEN000_PHO
 10
20.11312
 20
15.85779
 30
0.0000
 41
1.0000
 42
1.0000
 50
0.0000
  0
INSERT
  2
SQUARE_208
  8
GEN000_PHO
 10
20.05012
 20
15.77879
 30
0.0000
 41
1.0000
 42
1.0000
 50
0.0000
  0
INSERT
  2
SQUARE_208
  8
GEN000_PHO
 10
20.11312
 20
15.77879
 30
0.0000
 41
1.0000
 42
1.0000
 50
0.0000
  0
INSERT
  2
ROUND_236
  8
GEN000_PHO
 10
20.08162
 20
15.48079
 30
0.0000
 41
1.0000
 42
1.0000
 50
0.0000
  0
INSERT
  2
ROUND_236
  8
GEN000_PHO
 10
20.04225
 20
15.48079
 30
0.0000
 41
1.0000
 42
1.0000
 50
0.0000
  0
INSERT
  2
RECTANGLE_248
  8
GEN000_PHO
 10
20.04994
 20
15.72179
 30
0.0000
 41
1.0000
 42
1.0000
 50
0.0000
  0
INSERT
  2
RECTANGLE_248
  8
GEN000_PHO
 10
20.08931
 20
15.72179
 30
0.0000
 41
1.0000
 42
1.0000
 50
0.0000
  0
INSERT
  2
RECTANGLE_249
  8
GEN000_PHO
 10
19.91662
 20
16.5131
 30
0.0000
 41
1.0000
 42
1.0000
 50
0.0000
  0
INSERT
  2
RECTANGLE_249
  8
GEN000_PHO
 10
19.91662
 20
16.55247
 30
0.0000
 41
1.0000
 42
1.0000
 50
0.0000
  0
INSERT
  2
RECTANGLE_249
  8
GEN000_PHO
 10
19.96362
 20
16.55147
 30
0.0000
 41
1.0000
 42
1.0000
 50
0.0000
  0
INSERT
  2
RECTANGLE_249
  8
GEN000_PHO
 10
19.96362
 20
16.5121
 30
0.0000
 41
1.0000
 42
1.0000
 50
0.0000
  0
INSERT
  2
RECTANGLE_249
  8
GEN000_PHO
 10
19.86662
 20
16.5131
 30
0.0000
 41
1.0000
 42
1.0000
 50
0.0000
  0
INSERT
  2
RECTANGLE_249
  8
GEN000_PHO
 10
19.86662
 20
16.55247
 30
0.0000
 41
1.0000
 42
1.0000
 50
0.0000
  0
INSERT
  2
RECTANGLE_255
  8
GEN000_PHO
 10
19.73662
 20
16.53179
 30
0.0000
 41
1.0000
 42
1.0000
 50
0.0000
  0
INSERT
  2
RECTANGLE_262
  8
GEN000_PHO
 10
20.12662
 20
16.09479
 30
0.0000
 41
1.0000
 42
1.0000
 50
0.0000
  0
INSERT
  2
RECTANGLE_262
  8
GEN000_PHO
 10
20.04198
 20
16.11447
 30
0.0000
 41
1.0000
 42
1.0000
 50
0.0000
  0
INSERT
  2
RECTANGLE_262
  8
GEN000_PHO
 10
20.12662
 20
16.13416
 30
0.0000
 41
1.0000
 42
1.0000
 50
0.0000
  0
INSERT
  2
RECTANGLE_262
  8
GEN000_PHO
 10
20.04198
 20
16.15384
 30
0.0000
 41
1.0000
 42
1.0000
 50
0.0000
  0
INSERT
  2
RECTANGLE_262
  8
GEN000_PHO
 10
20.12662
 20
16.17353
 30
0.0000
 41
1.0000
 42
1.0000
 50
0.0000
  0
INSERT
  2
RECTANGLE_262
  8
GEN000_PHO
 10
20.04198
 20
16.19321
 30
0.0000
 41
1.0000
 42
1.0000
 50
0.0000
  0
INSERT
  2
RECTANGLE_262
  8
GEN000_PHO
 10
20.12662
 20
16.2129
 30
0.0000
 41
1.0000
 42
1.0000
 50
0.0000
  0
INSERT
  2
RECTANGLE_262
  8
GEN000_PHO
 10
20.04198
 20
16.23258
 30
0.0000
 41
1.0000
 42
1.0000
 50
0.0000
  0
INSERT
  2
RECTANGLE_262
  8
GEN000_PHO
 10
20.12662
 20
16.25227
 30
0.0000
 41
1.0000
 42
1.0000
 50
0.0000
  0
INSERT
  2
RECTANGLE_262
  8
GEN000_PHO
 10
20.04198
 20
16.27195
 30
0.0000
 41
1.0000
 42
1.0000
 50
0.0000
  0
INSERT
  2
RECTANGLE_262
  8
GEN000_PHO
 10
20.12662
 20
16.29164
 30
0.0000
 41
1.0000
 42
1.0000
 50
0.0000
  0
INSERT
  2
RECTANGLE_262
  8
GEN000_PHO
 10
20.04198
 20
16.31132
 30
0.0000
 41
1.0000
 42
1.0000
 50
0.0000
  0
INSERT
  2
RECTANGLE_263
  8
GEN000_PHO
 10
20.0843
 20
16.02097
 30
0.0000
 41
1.0000
 42
1.0000
 50
0.0000
  0
INSERT
  2
RECTANGLE_263
  8
GEN000_PHO
 10
20.0843
 20
16.38514
 30
0.0000
 41
1.0000
 42
1.0000
 50
0.0000
  0
POLYLINE
  8
GEN000_PHO
 66
1
 10
0.0000
 20
0.0000
 30
0.0000
 40
0.0060
 41
0.0060
  0
VERTEX
  8
GEN000_PHO
 10
19.93662
 20
16.57279
 30
0.0000
  0
VERTEX
  8
GEN000_PHO
 10
19.93662
 20
16.49279
 30
0.0000
  0
VERTEX
  8
GEN000_PHO
 10
19.89662
 20
16.49279
 30
0.0000
  0
VERTEX
  8
GEN000_PHO
 10
19.89662
 20
16.57279
 30
0.0000
  0
VERTEX
  8
GEN000_PHO
 10
19.93662
 20
16.57279
 30
0.0000
  0
SEQEND
  0
POLYLINE
  8
GEN000_PHO
 66
1
 10
0.0000
 20
0.0000
 30
0.0000
 40
0.0060
 41
0.0060
  0
VERTEX
  8
GEN000_PHO
 10
19.94362
 20
16.49179
 30
0.0000
  0
VERTEX
  8
GEN000_PHO
 10
19.94362
 20
16.57179
 30
0.0000
  0
VERTEX
  8
GEN000_PHO
 10
19.98362
 20
16.57179
 30
0.0000
  0
VERTEX
  8
GEN000_PHO
 10
19.98362
 20
16.49179
 30
0.0000
  0
VERTEX
  8
GEN000_PHO
 10
19.94362
 20
16.49179
 30
0.0000
  0
SEQEND
  0
POLYLINE
  8
GEN000_PHO
 66
1
 10
0.0000
 20
0.0000
 30
0.0000
 40
0.0060
 41
0.0060
  0
VERTEX
  8
GEN000_PHO
 10
19.88662
 20
16.57279
 30
0.0000
  0
VERTEX
  8
GEN000_PHO
 10
19.88662
 20
16.49279
 30
0.0000
  0
VERTEX
  8
GEN000_PHO
 10
19.84662
 20
16.49279
 30
0.0000
  0
VERTEX
  8
GEN000_PHO
 10
19.84662
 20
16.57279
 30
0.0000
  0
VERTEX
  8
GEN000_PHO
 10
19.88662
 20
16.57279
 30
0.0000
  0
SEQEND
  0
POLYLINE
  8
GEN000_PHO
 66
1
 10
0.0000
 20
0.0000
 30
0.0000
 40
0.0060
 41
0.0060
  0
VERTEX
  8
GEN000_PHO
 10
20.10962
 20
15.70179
 30
0.0000
  0
VERTEX
  8
GEN000_PHO
 10
20.02962
 20
15.70179
 30
0.0000
  0
VERTEX
  8
GEN000_PHO
 10
20.02962
 20
15.74179
 30
0.0000
  0
VERTEX
  8
GEN000_PHO
 10
20.10962
 20
15.74179
 30
0.0000
  0
VERTEX
  8
GEN000_PHO
 10
20.10962
 20
15.70179
 30
0.0000
  0
SEQEND
  0
POLYLINE
  8
GEN000_PHO
 66
1
 10
0.0000
 20
0.0000
 30
0.0000
 40
0.0080
 41
0.0080
  0
VERTEX
  8
GEN000_PHO
 10
20.08962
 20
15.95579
 30
0.0000
  0
VERTEX
  8
GEN000_PHO
 10
20.08962
 20
15.91779
 30
0.0000
  0
SEQEND
  0
POLYLINE
  8
GEN000_PHO
 66
1
 10
0.0000
 20
0.0000
 30
0.0000
 40
0.0080
 41
0.0080
  0
VERTEX
  8
GEN000_PHO
 10
20.07262
 20
15.94879
 30
0.0000
  0
VERTEX
  8
GEN000_PHO
 10
20.07262
 20
15.92479
 30
0.0000
  0
SEQEND
  0
POLYLINE
  8
GEN000_PHO
 66
1
 10
0.0000
 20
0.0000
 30
0.0000
 40
0.0080
 41
0.0080
  0
VERTEX
  8
GEN000_PHO
 10
20.07362
 20
15.92279
 30
0.0000
  0
VERTEX
  8
GEN000_PHO
 10
20.08662
 20
15.93479
 30
0.0000
  0
SEQEND
  0
POLYLINE
  8
GEN000_PHO
 66
1
 10
0.0000
 20
0.0000
 30
0.0000
 40
0.0080
 41
0.0080
  0
VERTEX
  8
GEN000_PHO
 10
20.07262
 20
15.95079
 30
0.0000
  0
VERTEX
  8
GEN000_PHO
 10
20.08662
 20
15.93979
 30
0.0000
  0
SEQEND
  0
POLYLINE
  8
GEN000_PHO
 66
1
 10
0.0000
 20
0.0000
 30
0.0000
 40
0.0080
 41
0.0080
  0
VERTEX
  8
GEN000_PHO
 10
20.08962
 20
15.93679
 30
0.0000
  0
VERTEX
  8
GEN000_PHO
 10
20.09562
 20
15.93679
 30
0.0000
  0
SEQEND
  0
POLYLINE
  8
GEN000_PHO
 66
1
 10
0.0000
 20
0.0000
 30
0.0000
 40
0.0080
 41
0.0080
  0
VERTEX
  8
GEN000_PHO
 10
20.07062
 20
15.93679
 30
0.0000
  0
VERTEX
  8
GEN000_PHO
 10
20.06662
 20
15.93679
 30
0.0000
  0
SEQEND
  0
POLYLINE
  8
GEN000_PHO
 66
1
 10
0.0000
 20
0.0000
 30
0.0000
 40
0.0080
 41
0.0080
  0
VERTEX
  8
GEN000_PHO
 10
20.08962
 20
15.87679
 30
0.0000
  0
VERTEX
  8
GEN000_PHO
 10
20.08962
 20
15.83879
 30
0.0000
  0
SEQEND
  0
POLYLINE
  8
GEN000_PHO
 66
1
 10
0.0000
 20
0.0000
 30
0.0000
 40
0.0080
 41
0.0080
  0
VERTEX
  8
GEN000_PHO
 10
20.07262
 20
15.86979
 30
0.0000
  0
VERTEX
  8
GEN000_PHO
 10
20.07262
 20
15.84579
 30
0.0000
  0
SEQEND
  0
POLYLINE
  8
GEN000_PHO
 66
1
 10
0.0000
 20
0.0000
 30
0.0000
 40
0.0080
 41
0.0080
  0
VERTEX
  8
GEN000_PHO
 10
20.07362
 20
15.84379
 30
0.0000
  0
VERTEX
  8
GEN000_PHO
 10
20.08662
 20
15.85579
 30
0.0000
  0
SEQEND
  0
POLYLINE
  8
GEN000_PHO
 66
1
 10
0.0000
 20
0.0000
 30
0.0000
 40
0.0080
 41
0.0080
  0
VERTEX
  8
GEN000_PHO
 10
20.07262
 20
15.87179
 30
0.0000
  0
VERTEX
  8
GEN000_PHO
 10
20.08662
 20
15.86079
 30
0.0000
  0
SEQEND
  0
POLYLINE
  8
GEN000_PHO
 66
1
 10
0.0000
 20
0.0000
 30
0.0000
 40
0.0080
 41
0.0080
  0
VERTEX
  8
GEN000_PHO
 10
20.08962
 20
15.85779
 30
0.0000
  0
VERTEX
  8
GEN000_PHO
 10
20.09562
 20
15.85779
 30
0.0000
  0
SEQEND
  0
POLYLINE
  8
GEN000_PHO
 66
1
 10
0.0000
 20
0.0000
 30
0.0000
 40
0.0080
 41
0.0080
  0
VERTEX
  8
GEN000_PHO
 10
20.07062
 20
15.85779
 30
0.0000
  0
VERTEX
  8
GEN000_PHO
 10
20.06662
 20
15.85779
 30
0.0000
  0
SEQEND
  0
POLYLINE
  8
GEN000_PHO
 66
1
 10
0.0000
 20
0.0000
 30
0.0000
 40
0.0080
 41
0.0080
  0
VERTEX
  8
GEN000_PHO
 10
20.08962
 20
15.79779
 30
0.0000
  0
VERTEX
  8
GEN000_PHO
 10
20.08962
 20
15.75979
 30
0.0000
  0
SEQEND
  0
POLYLINE
  8
GEN000_PHO
 66
1
 10
0.0000
 20
0.0000
 30
0.0000
 40
0.0080
 41
0.0080
  0
VERTEX
  8
GEN000_PHO
 10
20.07262
 20
15.79079
 30
0.0000
  0
VERTEX
  8
GEN000_PHO
 10
20.07262
 20
15.76679
 30
0.0000
  0
SEQEND
  0
POLYLINE
  8
GEN000_PHO
 66
1
 10
0.0000
 20
0.0000
 30
0.0000
 40
0.0080
 41
0.0080
  0
VERTEX
  8
GEN000_PHO
 10
20.07362
 20
15.76479
 30
0.0000
  0
VERTEX
  8
GEN000_PHO
 10
20.08662
 20
15.77679
 30
0.0000
  0
SEQEND
  0
POLYLINE
  8
GEN000_PHO
 66
1
 10
0.0000
 20
0.0000
 30
0.0000
 40
0.0080
 41
0.0080
  0
VERTEX
  8
GEN000_PHO
 10
20.07262
 20
15.79279
 30
0.0000
  0
VERTEX
  8
GEN000_PHO
 10
20.08662
 20
15.78179
 30
0.0000
  0
SEQEND
  0
POLYLINE
  8
GEN000_PHO
 66
1
 10
0.0000
 20
0.0000
 30
0.0000
 40
0.0080
 41
0.0080
  0
VERTEX
  8
GEN000_PHO
 10
20.08962
 20
15.77879
 30
0.0000
  0
VERTEX
  8
GEN000_PHO
 10
20.09562
 20
15.77879
 30
0.0000
  0
SEQEND
  0
POLYLINE
  8
GEN000_PHO
 66
1
 10
0.0000
 20
0.0000
 30
0.0000
 40
0.0080
 41
0.0080
  0
VERTEX
  8
GEN000_PHO
 10
20.07062
 20
15.77879
 30
0.0000
  0
VERTEX
  8
GEN000_PHO
 10
20.06662
 20
15.77879
 30
0.0000
  0
SEQEND
  0
POLYLINE
  8
GEN000_PHO
 66
1
 10
0.0000
 20
0.0000
 30
0.0000
 40
0.0010
 41
0.0010
  0
VERTEX
  8
GEN000_PHO
 10
20.87205
 20
16.50836
 30
0.0000
 42
0.3964581
  0
VERTEX
  8
GEN000_PHO
 10
20.79811
 20
16.58695
 30
0.0000
 42
0.0000
  0
SEQEND
  0
POLYLINE
  8
GEN000_PHO
 66
1
 10
0.0000
 20
0.0000
 30
0.0000
 40
0.0010
 41
0.0010
  0
VERTEX
  8
GEN000_PHO
 10
20.87205
 20
16.50836
 30
0.0000
  0
VERTEX
  8
GEN000_PHO
 10
20.87205
 20
15.52248
 30
0.0000
  0
SEQEND
  0
POLYLINE
  8
GEN000_PHO
 66
1
 10
0.0000
 20
0.0000
 30
0.0000
 40
0.0010
 41
0.0010
  0
VERTEX
  8
GEN000_PHO
 10
20.79811
 20
15.44389
 30
0.0000
 42
0.3964581
  0
VERTEX
  8
GEN000_PHO
 10
20.87205
 20
15.52248
 30
0.0000
 42
0.0000
  0
SEQEND
  0
POLYLINE
  8
GEN000_PHO
 66
1
 10
0.0000
 20
0.0000
 30
0.0000
 40
0.0010
 41
0.0010
  0
VERTEX
  8
GEN000_PHO
 10
20.79805
 20
15.44388
 30
0.0000
  0
VERTEX
  8
GEN000_PHO
 10
20.7676
 20
15.44206
 30
0.0000
  0
VERTEX
  8
GEN000_PHO
 10
20.7069
 20
15.43858
 30
0.0000
  0
VERTEX
  8
GEN000_PHO
 10
20.6462
 20
15.43529
 30
0.0000
  0
VERTEX
  8
GEN000_PHO
 10
20.58548
 20
15.43219
 30
0.0000
  0
VERTEX
  8
GEN000_PHO
 10
20.52476
 20
15.42928
 30
0.0000
  0
VERTEX
  8
GEN000_PHO
 10
20.46402
 20
15.42655
 30
0.0000
  0
VERTEX
  8
GEN000_PHO
 10
20.40328
 20
15.42401
 30
0.0000
  0
VERTEX
  8
GEN000_PHO
 10
20.34253
 20
15.42166
 30
0.0000
  0
VERTEX
  8
GEN000_PHO
 10
20.28178
 20
15.4195
 30
0.0000
  0
VERTEX
  8
GEN000_PHO
 10
20.22102
 20
15.41752
 30
0.0000
  0
VERTEX
  8
GEN000_PHO
 10
20.16025
 20
15.41573
 30
0.0000
  0
VERTEX
  8
GEN000_PHO
 10
20.09948
 20
15.41413
 30
0.0000
  0
VERTEX
  8
GEN000_PHO
 10
20.0387
 20
15.41272
 30
0.0000
  0
VERTEX
  8
GEN000_PHO
 10
19.97792
 20
15.41149
 30
0.0000
  0
VERTEX
  8
GEN000_PHO
 10
19.91713
 20
15.41046
 30
0.0000
  0
VERTEX
  8
GEN000_PHO
 10
19.85634
 20
15.40961
 30
0.0000
  0
VERTEX
  8
GEN000_PHO
 10
19.79555
 20
15.40895
 30
0.0000
  0
VERTEX
  8
GEN000_PHO
 10
19.73476
 20
15.40847
 30
0.0000
  0
VERTEX
  8
GEN000_PHO
 10
19.67397
 20
15.40819
 30
0.0000
  0
VERTEX
  8
GEN000_PHO
 10
19.61317
 20
15.40809
 30
0.0000
  0
VERTEX
  8
GEN000_PHO
 10
19.58266
 20
15.40812
 30
0.0000
  0
SEQEND
  0
POLYLINE
  8
GEN000_PHO
 66
1
 10
0.0000
 20
0.0000
 30
0.0000
 40
0.0010
 41
0.0010
  0
VERTEX
  8
GEN000_PHO
 10
19.57283
 20
15.41796
 30
0.0000
 42
0.4136187
  0
VERTEX
  8
GEN000_PHO
 10
19.58266
 20
15.40812
 30
0.0000
 42
0.0000
  0
SEQEND
  0
POLYLINE
  8
GEN000_PHO
 66
1
 10
0.0000
 20
0.0000
 30
0.0000
 40
0.0010
 41
0.0010
  0
VERTEX
  8
GEN000_PHO
 10
19.57283
 20
15.41796
 30
0.0000
  0
VERTEX
  8
GEN000_PHO
 10
19.57283
 20
15.53018
 30
0.0000
  0
SEQEND
  0
POLYLINE
  8
GEN000_PHO
 66
1
 10
0.0000
 20
0.0000
 30
0.0000
 40
0.0010
 41
0.0010
  0
VERTEX
  8
GEN000_PHO
 10
19.57283
 20
15.53018
 30
0.0000
 42
0.4142159
  0
VERTEX
  8
GEN000_PHO
 10
19.56299
 20
15.54003
 30
0.0000
 42
0.0000
  0
SEQEND
  0
POLYLINE
  8
GEN000_PHO
 66
1
 10
0.0000
 20
0.0000
 30
0.0000
 40
0.0010
 41
0.0010
  0
VERTEX
  8
GEN000_PHO
 10
19.56299
 20
15.54003
 30
0.0000
  0
VERTEX
  8
GEN000_PHO
 10
19.1378
 20
15.54003
 30
0.0000
  0
SEQEND
  0
POLYLINE
  8
GEN000_PHO
 66
1
 10
0.0000
 20
0.0000
 30
0.0000
 40
0.0010
 41
0.0010
  0
VERTEX
  8
GEN000_PHO
 10
19.12795
 20
15.54987
 30
0.0000
 42
0.4142159
  0
VERTEX
  8
GEN000_PHO
 10
19.1378
 20
15.54003
 30
0.0000
 42
0.0000
  0
SEQEND
  0
POLYLINE
  8
GEN000_PHO
 66
1
 10
0.0000
 20
0.0000
 30
0.0000
 40
0.0010
 41
0.0010
  0
VERTEX
  8
GEN000_PHO
 10
19.12795
 20
15.54987
 30
0.0000
  0
VERTEX
  8
GEN000_PHO
 10
19.12795
 20
16.48097
 30
0.0000
  0
SEQEND
  0
POLYLINE
  8
GEN000_PHO
 66
1
 10
0.0000
 20
0.0000
 30
0.0000
 40
0.0010
 41
0.0010
  0
VERTEX
  8
GEN000_PHO
 10
19.1378
 20
16.49081
 30
0.0000
 42
0.4142159
  0
VERTEX
  8
GEN000_PHO
 10
19.12795
 20
16.48097
 30
0.0000
 42
0.0000
  0
SEQEND
  0
POLYLINE
  8
GEN000_PHO
 66
1
 10
0.0000
 20
0.0000
 30
0.0000
 40
0.0010
 41
0.0010
  0
VERTEX
  8
GEN000_PHO
 10
19.1378
 20
16.49081
 30
0.0000
  0
VERTEX
  8
GEN000_PHO
 10
19.56299
 20
16.49081
 30
0.0000
  0
SEQEND
  0
POLYLINE
  8
GEN000_PHO
 66
1
 10
0.0000
 20
0.0000
 30
0.0000
 40
0.0010
 41
0.0010
  0
VERTEX
  8
GEN000_PHO
 10
19.56299
 20
16.49081
 30
0.0000
 42
0.4142159
  0
VERTEX
  8
GEN000_PHO
 10
19.57283
 20
16.50066
 30
0.0000
 42
0.0000
  0
SEQEND
  0
POLYLINE
  8
GEN000_PHO
 66
1
 10
0.0000
 20
0.0000
 30
0.0000
 40
0.0010
 41
0.0010
  0
VERTEX
  8
GEN000_PHO
 10
19.57283
 20
16.50066
 30
0.0000
  0
VERTEX
  8
GEN000_PHO
 10
19.57283
 20
16.61288
 30
0.0000
  0
SEQEND
  0
POLYLINE
  8
GEN000_PHO
 66
1
 10
0.0000
 20
0.0000
 30
0.0000
 40
0.0010
 41
0.0010
  0
VERTEX
  8
GEN000_PHO
 10
19.58266
 20
16.62272
 30
0.0000
 42
0.4136187
  0
VERTEX
  8
GEN000_PHO
 10
19.57283
 20
16.61288
 30
0.0000
 42
0.0000
  0
SEQEND
  0
POLYLINE
  8
GEN000_PHO
 66
1
 10
0.0000
 20
0.0000
 30
0.0000
 40
0.0010
 41
0.0010
  0
VERTEX
  8
GEN000_PHO
 10
19.58266
 20
16.62272
 30
0.0000
  0
VERTEX
  8
GEN000_PHO
 10
19.61317
 20
16.62275
 30
0.0000
  0
VERTEX
  8
GEN000_PHO
 10
19.67397
 20
16.62265
 30
0.0000
  0
VERTEX
  8
GEN000_PHO
 10
19.73476
 20
16.62237
 30
0.0000
  0
VERTEX
  8
GEN000_PHO
 10
19.79555
 20
16.62189
 30
0.0000
  0
VERTEX
  8
GEN000_PHO
 10
19.85634
 20
16.62123
 30
0.0000
  0
VERTEX
  8
GEN000_PHO
 10
19.91713
 20
16.62038
 30
0.0000
  0
VERTEX
  8
GEN000_PHO
 10
19.97792
 20
16.61935
 30
0.0000
  0
VERTEX
  8
GEN000_PHO
 10
20.0387
 20
16.61812
 30
0.0000
  0
VERTEX
  8
GEN000_PHO
 10
20.09948
 20
16.61671
 30
0.0000
  0
VERTEX
  8
GEN000_PHO
 10
20.16025
 20
16.61511
 30
0.0000
  0
VERTEX
  8
GEN000_PHO
 10
20.22102
 20
16.61332
 30
0.0000
  0
VERTEX
  8
GEN000_PHO
 10
20.28178
 20
16.61134
 30
0.0000
  0
VERTEX
  8
GEN000_PHO
 10
20.34253
 20
16.60918
 30
0.0000
  0
VERTEX
  8
GEN000_PHO
 10
20.40328
 20
16.60683
 30
0.0000
  0
VERTEX
  8
GEN000_PHO
 10
20.46402
 20
16.60429
 30
0.0000
  0
VERTEX
  8
GEN000_PHO
 10
20.52476
 20
16.60156
 30
0.0000
  0
VERTEX
  8
GEN000_PHO
 10
20.58548
 20
16.59865
 30
0.0000
  0
VERTEX
  8
GEN000_PHO
 10
20.6462
 20
16.59555
 30
0.0000
  0
VERTEX
  8
GEN000_PHO
 10
20.7069
 20
16.59226
 30
0.0000
  0
VERTEX
  8
GEN000_PHO
 10
20.7676
 20
16.58878
 30
0.0000
  0
VERTEX
  8
GEN000_PHO
 10
20.79805
 20
16.58696
 30
0.0000
  0
SEQEND
  0
POLYLINE
  8
GEN000_PHO
 66
1
 10
0.0000
 20
0.0000
 30
0.0000
 70
1
 40
0.0010
 41
0.0010
  0
VERTEX
  8
GEN000_PHO
 10
19.1697
 20
16.41744
 30
0.0000
 42
1
  0
VERTEX
  8
GEN000_PHO
 10
19.23662
 20
16.41744
 30
0.0000
 42
1
  0
SEQEND
  0
POLYLINE
  8
GEN000_PHO
 66
1
 10
0.0000
 20
0.0000
 30
0.0000
 70
1
 40
0.0010
 41
0.0010
  0
VERTEX
  8
GEN000_PHO
 10
19.22088
 20
15.61823
 30
0.0000
 42
1
  0
VERTEX
  8
GEN000_PHO
 10
19.2878
 20
15.61823
 30
0.0000
 42
1
  0
SEQEND
  0
POLYLINE
  8
GEN000_PHO
 66
1
 10
0.0000
 20
0.0000
 30
0.0000
 70
1
 40
0.0010
 41
0.0010
  0
VERTEX
  8
GEN000_PHO
 10
19.58674
 20
15.48619
 30
0.0000
 42
1
  0
VERTEX
  8
GEN000_PHO
 10
19.6576
 20
15.48619
 30
0.0000
 42
1
  0
SEQEND
  0
POLYLINE
  8
GEN000_PHO
 66
1
 10
0.0000
 20
0.0000
 30
0.0000
 70
1
 40
0.0010
 41
0.0010
  0
VERTEX
  8
GEN000_PHO
 10
20.67717
 20
15.48786
 30
0.0000
 42
1
  0
VERTEX
  8
GEN000_PHO
 10
20.74803
 20
15.48786
 30
0.0000
 42
1
  0
SEQEND
  0
POLYLINE
  8
GEN000_PHO
 66
1
 10
0.0000
 20
0.0000
 30
0.0000
 70
1
 40
0.0010
 41
0.0010
  0
VERTEX
  8
GEN000_PHO
 10
20.67717
 20
16.54298
 30
0.0000
 42
1
  0
VERTEX
  8
GEN000_PHO
 10
20.74803
 20
16.54298
 30
0.0000
 42
1
  0
SEQEND
  0
POLYLINE
  8
GEN000_PHO
 66
1
 10
0.0000
 20
0.0000
 30
0.0000
 70
1
 40
0.0010
 41
0.0010
  0
VERTEX
  8
GEN000_PHO
 10
19.58662
 20
16.54495
 30
0.0000
 42
1
  0
VERTEX
  8
GEN000_PHO
 10
19.65748
 20
16.54495
 30
0.0000
 42
1
  0
SEQEND
  0
POLYLINE
  8
GEN000_PHO
 66
1
 10
0.0000
 20
0.0000
 30
0.0000
 70
1
 40
0.0010
 41
0.0010
  0
VERTEX
  8
GEN000_PHO
 10
19.60001
 20
15.73983
 30
0.0000
 42
1
  0
VERTEX
  8
GEN000_PHO
 10
19.66299
 20
15.73983
 30
0.0000
 42
1
  0
SEQEND
  0
POLYLINE
  8
GEN000_PHO
 66
1
 10
0.0000
 20
0.0000
 30
0.0000
 70
1
 40
0.0010
 41
0.0010
  0
VERTEX
  8
GEN000_PHO
 10
19.60001
 20
16.29101
 30
0.0000
 42
1
  0
VERTEX
  8
GEN000_PHO
 10
19.66299
 20
16.29101
 30
0.0000
 42
1
  0
SEQEND
  0
POLYLINE
  8
GEN000_PHO
 66
1
 10
0.0000
 20
0.0000
 30
0.0000
 70
1
 40
0.0010
 41
0.0010
  0
VERTEX
  8
GEN000_PHO
 10
19.48277
 20
16.36823
 30
0.0000
 42
1
  0
VERTEX
  8
GEN000_PHO
 10
19.55363
 20
16.36823
 30
0.0000
 42
1
  0
SEQEND
  0
POLYLINE
  8
GEN000_PHO
 66
1
 10
0.0000
 20
0.0000
 30
0.0000
 70
1
 40
0.0010
 41
0.0010
  0
VERTEX
  8
GEN000_PHO
 10
19.90118
 20
15.68679
 30
0.0000
 42
1
  0
VERTEX
  8
GEN000_PHO
 10
19.97206
 20
15.68679
 30
0.0000
 42
1
  0
SEQEND
  0
POLYLINE
  8
GEN000_PHO
 66
1
 10
0.0000
 20
0.0000
 30
0.0000
 40
0.0010
 41
0.0010
  0
VERTEX
  8
GEN000_PHO
 10
20.01457
 20
15.59962
 30
0.0000
  0
VERTEX
  8
GEN000_PHO
 10
19.43583
 20
15.59962
 30
0.0000
  0
SEQEND
  0
POLYLINE
  8
GEN000_PHO
 66
1
 10
0.0000
 20
0.0000
 30
0.0000
 40
0.0010
 41
0.0010
  0
VERTEX
  8
GEN000_PHO
 10
20.04331
 20
15.76301
 30
0.0000
  0
VERTEX
  8
GEN000_PHO
 10
20.05512
 20
15.76301
 30
0.0000
  0
SEQEND
  0
POLYLINE
  8
GEN000_PHO
 66
1
 10
0.0000
 20
0.0000
 30
0.0000
 40
0.0010
 41
0.0010
  0
VERTEX
  8
GEN000_PHO
 10
20.09449
 20
15.76301
 30
0.0000
  0
VERTEX
  8
GEN000_PHO
 10
20.1063
 20
15.76301
 30
0.0000
  0
SEQEND
  0
POLYLINE
  8
GEN000_PHO
 66
1
 10
0.0000
 20
0.0000
 30
0.0000
 40
0.0010
 41
0.0010
  0
VERTEX
  8
GEN000_PHO
 10
20.05512
 20
15.7634
 30
0.0000
  0
VERTEX
  8
GEN000_PHO
 10
20.09449
 20
15.7634
 30
0.0000
  0
SEQEND
  0
POLYLINE
  8
GEN000_PHO
 66
1
 10
0.0000
 20
0.0000
 30
0.0000
 40
0.0010
 41
0.0010
  0
VERTEX
  8
GEN000_PHO
 10
20.05512
 20
15.79411
 30
0.0000
  0
VERTEX
  8
GEN000_PHO
 10
20.09449
 20
15.79411
 30
0.0000
  0
SEQEND
  0
POLYLINE
  8
GEN000_PHO
 66
1
 10
0.0000
 20
0.0000
 30
0.0000
 40
0.0010
 41
0.0010
  0
VERTEX
  8
GEN000_PHO
 10
20.04331
 20
15.7945
 30
0.0000
  0
VERTEX
  8
GEN000_PHO
 10
20.05512
 20
15.7945
 30
0.0000
  0
SEQEND
  0
POLYLINE
  8
GEN000_PHO
 66
1
 10
0.0000
 20
0.0000
 30
0.0000
 40
0.0010
 41
0.0010
  0
VERTEX
  8
GEN000_PHO
 10
20.09449
 20
15.7945
 30
0.0000
  0
VERTEX
  8
GEN000_PHO
 10
20.1063
 20
15.7945
 30
0.0000
  0
SEQEND
  0
POLYLINE
  8
GEN000_PHO
 66
1
 10
0.0000
 20
0.0000
 30
0.0000
 40
0.0010
 41
0.0010
  0
VERTEX
  8
GEN000_PHO
 10
20.04331
 20
15.84175
 30
0.0000
  0
VERTEX
  8
GEN000_PHO
 10
20.05512
 20
15.84175
 30
0.0000
  0
SEQEND
  0
POLYLINE
  8
GEN000_PHO
 66
1
 10
0.0000
 20
0.0000
 30
0.0000
 40
0.0010
 41
0.0010
  0
VERTEX
  8
GEN000_PHO
 10
20.09449
 20
15.84175
 30
0.0000
  0
VERTEX
  8
GEN000_PHO
 10
20.1063
 20
15.84175
 30
0.0000
  0
SEQEND
  0
POLYLINE
  8
GEN000_PHO
 66
1
 10
0.0000
 20
0.0000
 30
0.0000
 40
0.0010
 41
0.0010
  0
VERTEX
  8
GEN000_PHO
 10
20.05512
 20
15.84214
 30
0.0000
  0
VERTEX
  8
GEN000_PHO
 10
20.09449
 20
15.84214
 30
0.0000
  0
SEQEND
  0
POLYLINE
  8
GEN000_PHO
 66
1
 10
0.0000
 20
0.0000
 30
0.0000
 40
0.0010
 41
0.0010
  0
VERTEX
  8
GEN000_PHO
 10
20.05512
 20
15.87285
 30
0.0000
  0
VERTEX
  8
GEN000_PHO
 10
20.09449
 20
15.87285
 30
0.0000
  0
SEQEND
  0
POLYLINE
  8
GEN000_PHO
 66
1
 10
0.0000
 20
0.0000
 30
0.0000
 40
0.0010
 41
0.0010
  0
VERTEX
  8
GEN000_PHO
 10
20.04331
 20
15.87324
 30
0.0000
  0
VERTEX
  8
GEN000_PHO
 10
20.05512
 20
15.87324
 30
0.0000
  0
SEQEND
  0
POLYLINE
  8
GEN000_PHO
 66
1
 10
0.0000
 20
0.0000
 30
0.0000
 40
0.0010
 41
0.0010
  0
VERTEX
  8
GEN000_PHO
 10
20.09449
 20
15.87324
 30
0.0000
  0
VERTEX
  8
GEN000_PHO
 10
20.1063
 20
15.87324
 30
0.0000
  0
SEQEND
  0
POLYLINE
  8
GEN000_PHO
 66
1
 10
0.0000
 20
0.0000
 30
0.0000
 40
0.0010
 41
0.0010
  0
VERTEX
  8
GEN000_PHO
 10
20.04331
 20
15.92049
 30
0.0000
  0
VERTEX
  8
GEN000_PHO
 10
20.05512
 20
15.92049
 30
0.0000
  0
SEQEND
  0
POLYLINE
  8
GEN000_PHO
 66
1
 10
0.0000
 20
0.0000
 30
0.0000
 40
0.0010
 41
0.0010
  0
VERTEX
  8
GEN000_PHO
 10
20.09449
 20
15.92049
 30
0.0000
  0
VERTEX
  8
GEN000_PHO
 10
20.1063
 20
15.92049
 30
0.0000
  0
SEQEND
  0
POLYLINE
  8
GEN000_PHO
 66
1
 10
0.0000
 20
0.0000
 30
0.0000
 40
0.0010
 41
0.0010
  0
VERTEX
  8
GEN000_PHO
 10
20.05512
 20
15.92088
 30
0.0000
  0
VERTEX
  8
GEN000_PHO
 10
20.09449
 20
15.92088
 30
0.0000
  0
SEQEND
  0
POLYLINE
  8
GEN000_PHO
 66
1
 10
0.0000
 20
0.0000
 30
0.0000
 40
0.0010
 41
0.0010
  0
VERTEX
  8
GEN000_PHO
 10
20.05512
 20
15.95159
 30
0.0000
  0
VERTEX
  8
GEN000_PHO
 10
20.09449
 20
15.95159
 30
0.0000
  0
SEQEND
  0
POLYLINE
  8
GEN000_PHO
 66
1
 10
0.0000
 20
0.0000
 30
0.0000
 40
0.0010
 41
0.0010
  0
VERTEX
  8
GEN000_PHO
 10
20.04331
 20
15.95198
 30
0.0000
  0
VERTEX
  8
GEN000_PHO
 10
20.05512
 20
15.95198
 30
0.0000
  0
SEQEND
  0
POLYLINE
  8
GEN000_PHO
 66
1
 10
0.0000
 20
0.0000
 30
0.0000
 40
0.0010
 41
0.0010
  0
VERTEX
  8
GEN000_PHO
 10
20.09449
 20
15.95198
 30
0.0000
  0
VERTEX
  8
GEN000_PHO
 10
20.1063
 20
15.95198
 30
0.0000
  0
SEQEND
  0
POLYLINE
  8
GEN000_PHO
 66
1
 10
0.0000
 20
0.0000
 30
0.0000
 40
0.0010
 41
0.0010
  0
VERTEX
  8
GEN000_PHO
 10
20.01063
 20
16.07206
 30
0.0000
  0
VERTEX
  8
GEN000_PHO
 10
20.09331
 20
16.07206
 30
0.0000
  0
SEQEND
  0
POLYLINE
  8
GEN000_PHO
 66
1
 10
0.0000
 20
0.0000
 30
0.0000
 40
0.0010
 41
0.0010
  0
VERTEX
  8
GEN000_PHO
 10
20.09331
 20
16.33191
 30
0.0000
  0
VERTEX
  8
GEN000_PHO
 10
20.01063
 20
16.33191
 30
0.0000
  0
SEQEND
  0
POLYLINE
  8
GEN000_PHO
 66
1
 10
0.0000
 20
0.0000
 30
0.0000
 40
0.0010
 41
0.0010
  0
VERTEX
  8
GEN000_PHO
 10
19.43583
 20
16.43033
 30
0.0000
  0
VERTEX
  8
GEN000_PHO
 10
20.01457
 20
16.43033
 30
0.0000
  0
SEQEND
  0
POLYLINE
  8
GEN000_PHO
 66
1
 10
0.0000
 20
0.0000
 30
0.0000
 40
0.0010
 41
0.0010
  0
VERTEX
  8
GEN000_PHO
 10
20.78346
 20
16.45592
 30
0.0000
  0
VERTEX
  8
GEN000_PHO
 10
20.19291
 20
16.45592
 30
0.0000
  0
SEQEND
  0
POLYLINE
  8
GEN000_PHO
 66
1
 10
0.0000
 20
0.0000
 30
0.0000
 40
0.0010
 41
0.0010
  0
VERTEX
  8
GEN000_PHO
 10
19.43583
 20
15.59962
 30
0.0000
  0
VERTEX
  8
GEN000_PHO
 10
19.43583
 20
16.43033
 30
0.0000
  0
SEQEND
  0
POLYLINE
  8
GEN000_PHO
 66
1
 10
0.0000
 20
0.0000
 30
0.0000
 40
0.0010
 41
0.0010
  0
VERTEX
  8
GEN000_PHO
 10
20.01063
 20
15.98151
 30
0.0000
  0
VERTEX
  8
GEN000_PHO
 10
20.01063
 20
16.42246
 30
0.0000
  0
SEQEND
  0
POLYLINE
  8
GEN000_PHO
 66
1
 10
0.0000
 20
0.0000
 30
0.0000
 40
0.0010
 41
0.0010
  0
VERTEX
  8
GEN000_PHO
 10
20.01457
 20
16.43033
 30
0.0000
  0
VERTEX
  8
GEN000_PHO
 10
20.01457
 20
16.33191
 30
0.0000
  0
SEQEND
  0
POLYLINE
  8
GEN000_PHO
 66
1
 10
0.0000
 20
0.0000
 30
0.0000
 40
0.0010
 41
0.0010
  0
VERTEX
  8
GEN000_PHO
 10
20.01457
 20
16.07206
 30
0.0000
  0
VERTEX
  8
GEN000_PHO
 10
20.01457
 20
15.59962
 30
0.0000
  0
SEQEND
  0
POLYLINE
  8
GEN000_PHO
 66
1
 10
0.0000
 20
0.0000
 30
0.0000
 40
0.0010
 41
0.0010
  0
VERTEX
  8
GEN000_PHO
 10
20.04331
 20
15.76301
 30
0.0000
  0
VERTEX
  8
GEN000_PHO
 10
20.04331
 20
15.7945
 30
0.0000
  0
SEQEND
  0
POLYLINE
  8
GEN000_PHO
 66
1
 10
0.0000
 20
0.0000
 30
0.0000
 40
0.0010
 41
0.0010
  0
VERTEX
  8
GEN000_PHO
 10
20.04331
 20
15.84175
 30
0.0000
  0
VERTEX
  8
GEN000_PHO
 10
20.04331
 20
15.87324
 30
0.0000
  0
SEQEND
  0
POLYLINE
  8
GEN000_PHO
 66
1
 10
0.0000
 20
0.0000
 30
0.0000
 40
0.0010
 41
0.0010
  0
VERTEX
  8
GEN000_PHO
 10
20.04331
 20
15.92049
 30
0.0000
  0
VERTEX
  8
GEN000_PHO
 10
20.04331
 20
15.95198
 30
0.0000
  0
SEQEND
  0
POLYLINE
  8
GEN000_PHO
 66
1
 10
0.0000
 20
0.0000
 30
0.0000
 40
0.0010
 41
0.0010
  0
VERTEX
  8
GEN000_PHO
 10
20.05512
 20
15.76301
 30
0.0000
  0
VERTEX
  8
GEN000_PHO
 10
20.05512
 20
15.7945
 30
0.0000
  0
SEQEND
  0
POLYLINE
  8
GEN000_PHO
 66
1
 10
0.0000
 20
0.0000
 30
0.0000
 40
0.0010
 41
0.0010
  0
VERTEX
  8
GEN000_PHO
 10
20.05512
 20
15.84175
 30
0.0000
  0
VERTEX
  8
GEN000_PHO
 10
20.05512
 20
15.87324
 30
0.0000
  0
SEQEND
  0
POLYLINE
  8
GEN000_PHO
 66
1
 10
0.0000
 20
0.0000
 30
0.0000
 40
0.0010
 41
0.0010
  0
VERTEX
  8
GEN000_PHO
 10
20.05512
 20
15.92049
 30
0.0000
  0
VERTEX
  8
GEN000_PHO
 10
20.05512
 20
15.95198
 30
0.0000
  0
SEQEND
  0
POLYLINE
  8
GEN000_PHO
 66
1
 10
0.0000
 20
0.0000
 30
0.0000
 40
0.0010
 41
0.0010
  0
VERTEX
  8
GEN000_PHO
 10
20.09331
 20
16.07206
 30
0.0000
  0
VERTEX
  8
GEN000_PHO
 10
20.09331
 20
16.33191
 30
0.0000
  0
SEQEND
  0
POLYLINE
  8
GEN000_PHO
 66
1
 10
0.0000
 20
0.0000
 30
0.0000
 40
0.0010
 41
0.0010
  0
VERTEX
  8
GEN000_PHO
 10
20.09449
 20
15.76301
 30
0.0000
  0
VERTEX
  8
GEN000_PHO
 10
20.09449
 20
15.7945
 30
0.0000
  0
SEQEND
  0
POLYLINE
  8
GEN000_PHO
 66
1
 10
0.0000
 20
0.0000
 30
0.0000
 40
0.0010
 41
0.0010
  0
VERTEX
  8
GEN000_PHO
 10
20.09449
 20
15.84175
 30
0.0000
  0
VERTEX
  8
GEN000_PHO
 10
20.09449
 20
15.87324
 30
0.0000
  0
SEQEND
  0
POLYLINE
  8
GEN000_PHO
 66
1
 10
0.0000
 20
0.0000
 30
0.0000
 40
0.0010
 41
0.0010
  0
VERTEX
  8
GEN000_PHO
 10
20.09449
 20
15.92049
 30
0.0000
  0
VERTEX
  8
GEN000_PHO
 10
20.09449
 20
15.95198
 30
0.0000
  0
SEQEND
  0
POLYLINE
  8
GEN000_PHO
 66
1
 10
0.0000
 20
0.0000
 30
0.0000
 40
0.0010
 41
0.0010
  0
VERTEX
  8
GEN000_PHO
 10
20.1063
 20
15.76301
 30
0.0000
  0
VERTEX
  8
GEN000_PHO
 10
20.1063
 20
15.7945
 30
0.0000
  0
SEQEND
  0
POLYLINE
  8
GEN000_PHO
 66
1
 10
0.0000
 20
0.0000
 30
0.0000
 40
0.0010
 41
0.0010
  0
VERTEX
  8
GEN000_PHO
 10
20.1063
 20
15.84175
 30
0.0000
  0
VERTEX
  8
GEN000_PHO
 10
20.1063
 20
15.87324
 30
0.0000
  0
SEQEND
  0
POLYLINE
  8
GEN000_PHO
 66
1
 10
0.0000
 20
0.0000
 30
0.0000
 40
0.0010
 41
0.0010
  0
VERTEX
  8
GEN000_PHO
 10
20.1063
 20
15.92049
 30
0.0000
  0
VERTEX
  8
GEN000_PHO
 10
20.1063
 20
15.95198
 30
0.0000
  0
SEQEND
  0
POLYLINE
  8
GEN000_PHO
 66
1
 10
0.0000
 20
0.0000
 30
0.0000
 40
0.0010
 41
0.0010
  0
VERTEX
  8
GEN000_PHO
 10
20.15354
 20
16.41655
 30
0.0000
  0
VERTEX
  8
GEN000_PHO
 10
20.15354
 20
15.58978
 30
0.0000
  0
SEQEND
  0
POLYLINE
  8
GEN000_PHO
 66
1
 10
0.0000
 20
0.0000
 30
0.0000
 40
0.0010
 41
0.0010
  0
VERTEX
  8
GEN000_PHO
 10
20.19291
 20
16.45592
 30
0.0000
 42
0.4142136
  0
VERTEX
  8
GEN000_PHO
 10
20.15354
 20
16.41655
 30
0.0000
 42
0.0000
  0
SEQEND
  0
POLYLINE
  8
GEN000_PHO
 66
1
 10
0.0000
 20
0.0000
 30
0.0000
 40
0.0010
 41
0.0010
  0
VERTEX
  8
GEN000_PHO
 10
20.82283
 20
16.41655
 30
0.0000
 42
0.4142136
  0
VERTEX
  8
GEN000_PHO
 10
20.78346
 20
16.45592
 30
0.0000
 42
0.0000
  0
SEQEND
  0
POLYLINE
  8
GEN000_PHO
 66
1
 10
0.0000
 20
0.0000
 30
0.0000
 40
0.0010
 41
0.0010
  0
VERTEX
  8
GEN000_PHO
 10
20.82283
 20
16.41655
 30
0.0000
  0
VERTEX
  8
GEN000_PHO
 10
20.82283
 20
15.58978
 30
0.0000
  0
SEQEND
  0
POLYLINE
  8
GEN000_PHO
 66
1
 10
0.0000
 20
0.0000
 30
0.0000
 40
0.0010
 41
0.0010
  0
VERTEX
  8
GEN000_PHO
 10
20.78346
 20
15.55041
 30
0.0000
 42
0.4142136
  0
VERTEX
  8
GEN000_PHO
 10
20.82283
 20
15.58978
 30
0.0000
 42
0.0000
  0
SEQEND
  0
POLYLINE
  8
GEN000_PHO
 66
1
 10
0.0000
 20
0.0000
 30
0.0000
 40
0.0010
 41
0.0010
  0
VERTEX
  8
GEN000_PHO
 10
20.82283
 20
15.58978
 30
0.0000
  0
VERTEX
  8
GEN000_PHO
 10
20.15354
 20
15.58978
 30
0.0000
  0
SEQEND
  0
POLYLINE
  8
GEN000_PHO
 66
1
 10
0.0000
 20
0.0000
 30
0.0000
 40
0.0010
 41
0.0010
  0
VERTEX
  8
GEN000_PHO
 10
20.15354
 20
15.58978
 30
0.0000
 42
0.4142136
  0
VERTEX
  8
GEN000_PHO
 10
20.19291
 20
15.55041
 30
0.0000
 42
0.0000
  0
SEQEND
  0
POLYLINE
  8
GEN000_PHO
 66
1
 10
0.0000
 20
0.0000
 30
0.0000
 40
0.0010
 41
0.0010
  0
VERTEX
  8
GEN000_PHO
 10
20.19291
 20
15.55041
 30
0.0000
  0
VERTEX
  8
GEN000_PHO
 10
20.78346
 20
15.55041
 30
0.0000
  0
SEQEND
  0
POLYLINE
  8
GEN000_PHO
 66
1
 10
0.0000
 20
0.0000
 30
0.0000
 40
0.0100
 41
0.0100
  0
VERTEX
  8
GEN000_PHO
 10
19.73762
 20
16.50179
 30
0.0000
  0
VERTEX
  8
GEN000_PHO
 10
19.73762
 20
16.47679
 30
0.0000
  0
VERTEX
  8
GEN000_PHO
 10
19.78762
 20
16.47679
 30
0.0000
  0
SEQEND
  0
POLYLINE
  8
GEN000_PHO
 66
1
 10
0.0000
 20
0.0000
 30
0.0000
 40
0.0100
 41
0.0100
  0
VERTEX
  8
GEN000_PHO
 10
19.73762
 20
16.56179
 30
0.0000
  0
VERTEX
  8
GEN000_PHO
 10
19.73762
 20
16.58679
 30
0.0000
  0
VERTEX
  8
GEN000_PHO
 10
19.78762
 20
16.58679
 30
0.0000
  0
SEQEND
  0
POLYLINE
  8
GEN000_PHO
 66
1
 10
0.0000
 20
0.0000
 30
0.0000
 40
0.0100
 41
0.0100
  0
VERTEX
  8
GEN000_PHO
 10
19.82762
 20
16.52679
 30
0.0000
  0
VERTEX
  8
GEN000_PHO
 10
19.82762
 20
16.53679
 30
0.0000
  0
SEQEND
  0
POLYLINE
  8
GEN000_PHO
 66
1
 10
0.0000
 20
0.0000
 30
0.0000
 40
0.0100
 41
0.0100
  0
VERTEX
  8
GEN000_PHO
 10
20.00891
 20
15.96998
 30
0.0000
  0
VERTEX
  8
GEN000_PHO
 10
20.00891
 20
16.43573
 30
0.0000
  0
VERTEX
  8
GEN000_PHO
 10
20.15969
 20
16.43573
 30
0.0000
  0
VERTEX
  8
GEN000_PHO
 10
20.15969
 20
15.96998
 30
0.0000
  0
VERTEX
  8
GEN000_PHO
 10
20.00891
 20
15.96998
 30
0.0000
  0
SEQEND
  0
POLYLINE
  8
GEN000_PHO
 66
1
 10
0.0000
 20
0.0000
 30
0.0000
 40
0.00591
 41
0.00591
  0
VERTEX
  8
GEN000_PHO
 10
20.02454
 20
15.96435
 30
0.0000
  0
VERTEX
  8
GEN000_PHO
 10
20.12871
 20
15.96435
 30
0.0000
  0
VERTEX
  8
GEN000_PHO
 10
20.13871
 20
15.95435
 30
0.0000
  0
VERTEX
  8
GEN000_PHO
 10
20.13871
 20
15.91923
 30
0.0000
  0
VERTEX
  8
GEN000_PHO
 10
20.12871
 20
15.90923
 30
0.0000
  0
VERTEX
  8
GEN000_PHO
 10
20.02454
 20
15.90923
 30
0.0000
  0
VERTEX
  8
GEN000_PHO
 10
20.02454
 20
15.96435
 30
0.0000
  0
SEQEND
  0
POLYLINE
  8
GEN000_PHO
 66
1
 10
0.0000
 20
0.0000
 30
0.0000
 40
0.00591
 41
0.00591
  0
VERTEX
  8
GEN000_PHO
 10
20.02454
 20
15.88535
 30
0.0000
  0
VERTEX
  8
GEN000_PHO
 10
20.12871
 20
15.88535
 30
0.0000
  0
VERTEX
  8
GEN000_PHO
 10
20.13871
 20
15.87535
 30
0.0000
  0
VERTEX
  8
GEN000_PHO
 10
20.13871
 20
15.84023
 30
0.0000
  0
VERTEX
  8
GEN000_PHO
 10
20.12871
 20
15.83023
 30
0.0000
  0
VERTEX
  8
GEN000_PHO
 10
20.02454
 20
15.83023
 30
0.0000
  0
VERTEX
  8
GEN000_PHO
 10
20.02454
 20
15.88535
 30
0.0000
  0
SEQEND
  0
POLYLINE
  8
GEN000_PHO
 66
1
 10
0.0000
 20
0.0000
 30
0.0000
 40
0.00591
 41
0.00591
  0
VERTEX
  8
GEN000_PHO
 10
20.02454
 20
15.80635
 30
0.0000
  0
VERTEX
  8
GEN000_PHO
 10
20.12871
 20
15.80635
 30
0.0000
  0
VERTEX
  8
GEN000_PHO
 10
20.13871
 20
15.79635
 30
0.0000
  0
VERTEX
  8
GEN000_PHO
 10
20.13871
 20
15.76123
 30
0.0000
  0
VERTEX
  8
GEN000_PHO
 10
20.12871
 20
15.75123
 30
0.0000
  0
VERTEX
  8
GEN000_PHO
 10
20.02454
 20
15.75123
 30
0.0000
  0
VERTEX
  8
GEN000_PHO
 10
20.02454
 20
15.80635
 30
0.0000
  0
SEQEND
  0
ENDSEC
  0
EOF
